<svg width="77px" height="77px" viewBox="0 0 77 77" xmlns="http://www.w3.org/2000/svg" cl-svg="1537673011493"><defs/><g stroke="none" stroke-width="1" fill="none" fill-rule="evenodd"><g fill="#FFFFFF"><path d="M64.532,76.8825 L4.105,76.8825 C1.909,76.8825 0,74.5525 0,72.3525 L0,11.9225 C0,9.7325 1.909,8.8825 4.105,8.8825 L26.704,8.8825 C28.9,8.8825 30.679,10.6825 30.679,12.8825 C30.679,15.0725 28.9,16.8825 26.704,16.8825 L8,16.8825 L8,68.8825 L60,68.8825 L60,49.7525 C60,47.5625 61.804,45.7825 64,45.7825 C66.196,45.7825 68,47.5625 68,49.7525 L68,72.3525 C68,74.5525 66.728,76.8825 64.532,76.8825"/><path d="M72,35.7825 C69.804,35.7825 68,34.0025 68,31.8025 L68,8.8825 L44.655,8.8825 C42.459,8.8825 40.679,7.0725 40.679,4.8825 C40.679,2.6825 42.459,0.8825 44.655,0.8825 L72.483,0.8825 C74.679,0.8825 76,1.7825 76,3.9725 L76,31.8025 C76,34.0025 74.196,35.7825 72,35.7825"/><path d="M42.402,38.0325 C41.385,38.0325 40.367,37.6425 39.591,36.8725 C38.038,35.3125 38.038,32.8025 39.591,31.2425 L69.672,1.1625 C71.223,-0.3875 73.742,-0.3875 75.294,1.1625 C76.847,2.7225 76.847,5.2325 75.294,6.7825 L45.213,36.8725 C44.437,37.6425 43.419,38.0325 42.402,38.0325"/></g></g></svg>