<svg xmlns="http://www.w3.org/2000/svg" width="64.55" height="75.71" viewBox="0 0 64.55 75.71" cl-svg="1536456937486"><g><path d="M508,274.84a4,4,0,0,0-4,4v13.41c0,2.25-1.93,4.78-4.18,4.78H461.33l7.09-7.44a4.19,4.19,0,0,0,0-5.8,4,4,0,0,0-5.62-.09l-13.15,13.11a3.93,3.93,0,0,0-2.19,3.51c0,0.05,0,.09,0,0.14s0,0.1,0,.15a4,4,0,0,0,1.16,2.81l14.18,14.18a4,4,0,0,0,5.62,0,3.54,3.54,0,0,0,0-5.25l-7.7-7.32h39.1c6.64,0,12.18-6.15,12.18-12.78V278.81A4,4,0,0,0,508,274.84Z" transform="translate(-447.45 -243.03)" style="fill: #fff"/><path d="M511.86,261.19a4,4,0,0,0-1.16-2.81L496.51,244.2a4,4,0,0,0-5.62,0,4.27,4.27,0,0,0,0,5.86l7.7,7.94h-39.1A11.19,11.19,0,0,0,448,269.55V283a4,4,0,0,0,8,0V269.55a3.19,3.19,0,0,1,3.49-3.55H498l-7.09,6.82a3.82,3.82,0,0,0,0,5.49,3.89,3.89,0,0,0,2.81,1.1,4,4,0,0,0,2.81-1.2L509.66,265a4,4,0,0,0,2.19-3.54c0-.05,0-0.1,0-0.15S511.86,261.24,511.86,261.19Z" transform="translate(-447.45 -243.03)" style="fill: #fff"/></g></svg>