<svg xmlns="http://www.w3.org/2000/svg" width="63.61" height="71.56" viewBox="0 0 63.61 71.56" cl-svg="1536458763911"><g><g><path d="M480.9,316.71a4,4,0,0,1-2-.52l-22-12.55a15.65,15.65,0,0,1-7.87-13.56v-29.3a15.64,15.64,0,0,1,15.62-15.62H480.9a4,4,0,0,1,0,8H464.72a7.68,7.68,0,0,0-7.67,7.67v29.3a7.68,7.68,0,0,0,3.86,6.66l22,12.55A4,4,0,0,1,480.9,316.71Z" transform="translate(-449.1 -245.15)" style="fill: #fff"/><path d="M480.91,316.71a4,4,0,0,1-2-7.43l22-12.55a7.69,7.69,0,0,0,3.86-6.66v-29.3a7.68,7.68,0,0,0-7.67-7.67H480.9a4,4,0,0,1,0-8h16.18a15.64,15.64,0,0,1,15.62,15.62v29.3a15.65,15.65,0,0,1-7.87,13.56l-22,12.55A4,4,0,0,1,480.91,316.71Z" transform="translate(-449.1 -245.15)" style="fill: #fff"/></g><path d="M475.63,290.47a4,4,0,0,1-2.81-1.16l-8-8a4,4,0,0,1,5.62-5.62l5.14,5.14,15.68-15.67a4,4,0,1,1,5.62,5.62l-18.49,18.49A4,4,0,0,1,475.63,290.47Z" transform="translate(-449.1 -245.15)" style="fill: #fff"/></g></svg>