<svg xmlns="http://www.w3.org/2000/svg" width="79.91" height="79.86" viewBox="0 0 79.91 79.86" cl-svg="1536457122368"><g><path d="M517.75,254.63l-12.37-12.37a4.09,4.09,0,0,0-5.62,0l-39.84,39.84c-0.06.06-.09,0.12-0.15,0.18a3.91,3.91,0,0,0-.27.33c-0.08.11-.14,0.22-0.21,0.33s-0.12.22-.18,0.34a3.91,3.91,0,0,0-.15.41c0,0.07-.06.14-0.08,0.21l-4.5,16.87a4,4,0,0,0,4.87,4.87l16.87-4.5,0.21-.08a3.91,3.91,0,0,0,.41-0.15l0.34-.18,0.32-.2a3.91,3.91,0,0,0,.34-0.28l0.17-.14,39.84-39.84A4,4,0,0,0,517.75,254.63ZM466.29,287l26.15-26.15,6.75,6.75L473,293.71l-9.2,2.45Zm38.52-25-6.75-6.75,4.5-4.5,6.75,6.75Z" transform="translate(-439 -241.14)" style="fill: #fff"/><path d="M505,321h-62c-2.2,0-3.94-2.54-3.94-4.73v-62c0-2.2,1.74-3.25,3.94-3.25h26.24a4,4,0,0,1,0,8H447v54h54V290a4,4,0,0,1,8,0v26.24C509,318.46,507.15,321,505,321Z" transform="translate(-439 -241.14)" style="fill: #fff"/></g></svg>