<svg width="73px" height="73px" viewBox="0 0 73 73" xmlns="http://www.w3.org/2000/svg" cl-svg="1537672970385"><defs/><g stroke="none" stroke-width="1" fill="none" fill-rule="evenodd"><g fill="#FFFFFF"><path d="M30.8454677,65 L38.8454677,65 L38.8454677,61.54 C38.8454677,59.76 40.2144677,58.19 41.9324677,57.71 C45.3314677,56.76 48.5944677,54.98 51.1954677,52.56 C52.4604677,51.38 54.3864677,51.15 55.8934677,52 L58.2814677,53.32 L62.4504677,46.33 L59.8804677,44.83 C58.4124677,43.98 57.6514677,42.29 57.9834677,40.62 C58.2734677,39.16 58.4224677,37.69 58.4224677,36.23 C58.4224677,34.55 58.2074677,32.79 57.7824677,31.02 C57.3714677,29.3 58.1414677,27.52 59.6724677,26.64 L62.6434677,24.94 L58.3474677,17.92 L55.1274677,19.72 C53.6714677,20.54 51.8644677,20.36 50.5974677,19.28 C48.1194677,17.15 45.0824677,15.63 41.9324677,14.75 C40.2144677,14.27 38.8454677,12.7 38.8454677,10.92 L38.8454677,8 L30.8454677,8 L30.8454677,11.47 C30.8454677,13.15 29.9934677,14.65 28.4084677,15.22 C25.6684677,16.19 23.2804677,17.67 21.1064677,19.63 C19.8104677,20.79 17.9644677,20.97 16.4684677,20.08 L13.1364677,18.08 L9.35546772,24.86 L12.5054677,26.66 C14.0364677,27.54 14.8084677,29.32 14.3984677,31.03 C13.9774677,32.8 13.7644677,34.55 13.7644677,36.23 C13.7644677,37.67 13.9104677,39.14 14.1964677,40.58 C14.5274677,42.25 13.7614677,43.94 12.2914677,44.8 L9.49946772,46.41 L13.1744677,53.16 L15.7234677,51.65 C17.2704677,50.73 19.2394677,50.96 20.5274677,52.22 C22.8334677,54.46 25.3484677,56.15 28.4104677,57.24 C29.9944677,57.81 30.8454677,59.31 30.8454677,60.99 L30.8454677,65 Z M43.1844677,73 L27.2824677,73 C25.0864677,73 22.8454677,70.96 22.8454677,68.76 L22.8454677,63.66 C19.8454677,62.66 18.9204677,61.42 17.0724677,59.96 L13.5724677,62.1 C12.6424677,62.65 11.5874677,62.81 10.5464677,62.52 C9.50546772,62.23 8.65346772,61.54 8.13746772,60.59 L0.651467723,46.82 C-0.379532277,44.92 0.291467723,42.56 2.15646772,41.48 L5.96646772,39.27 C5.86346772,38.25 5.81346772,37.24 5.81346772,36.23 C5.81346772,34.89 5.91146772,33.53 6.10446772,32.15 L1.99946772,29.8 C0.107467723,28.72 -0.557532277,26.31 0.507467723,24.41 L8.21846772,10.64 C8.74246772,9.7 9.62246772,9.02 10.6584677,8.74 C11.6924677,8.46 12.7964677,8.62 13.7204677,9.16 L17.9734677,11.83 C19.5734677,10.66 20.8454677,9.65 22.8454677,8.81 L22.8454677,3.57 C22.8454677,1.37 25.0864677,0 27.2824677,0 L43.1844677,0 C45.3804677,0 46.8454677,1.37 46.8454677,3.57 L46.8454677,8.06 C48.8454677,8.95 51.3994677,10.1 53.3824677,11.5 L57.7174677,9.11 C59.5794677,8.07 61.9744677,8.68 63.0914677,10.51 L71.5424677,24.28 C72.1034677,25.19 72.2794677,26.3 72.0124677,27.34 C71.7464677,28.38 71.0754677,29.27 70.1434677,29.8 L66.0784677,32.13 C66.2734677,33.51 66.3734677,34.88 66.3734677,36.23 C66.3734677,37.26 66.3204677,38.29 66.2144677,39.32 L69.9294677,41.48 C70.8464677,42.01 71.5124677,42.89 71.7784677,43.92 C72.0454677,44.94 71.8894677,46.04 71.3474677,46.95 L63.1564677,60.72 C62.0544677,62.57 59.6774677,63.21 57.7954677,62.15 L54.2914677,60.28 C52.0624677,61.98 48.8454677,63.37 46.8454677,64.39 L46.8454677,68.76 C46.8454677,70.96 45.3804677,73 43.1844677,73 Z"/><path d="M36.0944677,29.98 C32.7694677,29.98 30.0654677,32.69 30.0654677,36.01 C30.0654677,39.34 32.7694677,42.04 36.0944677,42.04 C39.4194677,42.04 42.1244677,39.34 42.1244677,36.01 C42.1244677,32.69 39.4194677,29.98 36.0944677,29.98 Z M36.0944677,49.99 C28.3854677,49.99 22.1144677,43.72 22.1144677,36.01 C22.1144677,28.3 28.3854677,22.03 36.0944677,22.03 C43.8044677,22.03 50.0754677,28.3 50.0754677,36.01 C50.0754677,43.72 43.8044677,49.99 36.0944677,49.99 Z"/></g></g></svg>