<svg xmlns="http://www.w3.org/2000/svg" width="76.78" height="77.28" viewBox="0 0 76.78 77.28" cl-svg="1536459324813"><g><path d="M506.86,320H446.43c-2.2,0-4.43-2.73-4.43-4.93V254.65c0-2.2,2.23-2.65,4.43-2.65H469a4,4,0,0,1,0,8H450v52h52V292.47a4,4,0,0,1,8,0v22.6C510,317.27,509.05,320,506.86,320Z" transform="translate(-442 -242.72)" style="fill: #fff"/><g><path d="M514,278.5a4,4,0,0,1-4-4V252H487a4,4,0,0,1,0-8h27.83c2.2,0,3.19.5,3.19,2.7v27.83A4,4,0,0,1,514,278.5Z" transform="translate(-442 -242.72)" style="fill: #fff"/><path d="M484.73,280.75a4,4,0,0,1-2.81-6.79L512,243.88a4,4,0,0,1,5.62,5.62l-30.08,30.08A4,4,0,0,1,484.73,280.75Z" transform="translate(-442 -242.72)" style="fill: #fff"/></g></g></svg>