<svg xmlns="http://www.w3.org/2000/svg" width="79.01" height="60.26" viewBox="0 0 79.01 60.26" cl-svg="1536456733581"><g><path d="M481.59,311a4,4,0,0,1-2-.55l-21.43-12.58a4,4,0,0,1-2-3.43V267.31a4,4,0,0,1,2-3.43l21.43-12.58a4,4,0,0,1,6,3.43V307A4,4,0,0,1,481.59,311Zm-17.46-18.83,13.48,7.91V261.67l-13.48,7.91v22.61Z" transform="translate(-440.78 -250.75)" style="fill: #fff"/><path d="M460.16,298.44h-7.93A11.47,11.47,0,0,1,440.78,287v-12.2a11.47,11.47,0,0,1,11.45-11.45h7.93a4,4,0,0,1,4,4v27.16A4,4,0,0,1,460.16,298.44Zm-7.93-27.16a3.51,3.51,0,0,0-3.5,3.5V287a3.51,3.51,0,0,0,3.5,3.5h4V271.28h-4Z" transform="translate(-440.78 -250.75)" style="fill: #fff"/><path d="M515.82,295.46A4,4,0,0,1,513,294.3l-20.58-20.58a4,4,0,1,1,5.62-5.62l20.58,20.58A4,4,0,0,1,515.82,295.46Z" transform="translate(-440.78 -250.75)" style="fill: #fff"/><path d="M495.24,295.46a4,4,0,0,1-2.81-6.79L513,268.09a4,4,0,1,1,5.62,5.62L498,294.3A4,4,0,0,1,495.24,295.46Z" transform="translate(-440.78 -250.75)" style="fill: #fff"/></g></svg>