<svg xmlns="http://www.w3.org/2000/svg" width="69.97" height="65.99" viewBox="0 0 69.97 65.99" cl-svg="1536456689629"><g><path d="M498.57,313.76a4,4,0,0,1-2.71-1.07L481.11,299a1.17,1.17,0,0,0-.8-0.32H454.43a9.14,9.14,0,0,1-9.13-9.13V256.9a9.14,9.14,0,0,1,9.13-9.13h51.71a9.14,9.14,0,0,1,9.13,9.13v32.63a9.14,9.14,0,0,1-9.13,9.13h-2.42a1.18,1.18,0,0,0-1.18,1.18v10A4,4,0,0,1,498.57,313.76Zm-44.14-58a1.18,1.18,0,0,0-1.18,1.18v32.63a1.18,1.18,0,0,0,1.18,1.18h25.88a9.1,9.1,0,0,1,6.22,2.44l8.07,7.51v-0.83a9.14,9.14,0,0,1,9.13-9.13h2.42a1.18,1.18,0,0,0,1.18-1.18V256.9a1.18,1.18,0,0,0-1.18-1.18H454.43Z" transform="translate(-445.3 -247.77)" style="fill: #fff"/><g><path d="M466.23,277.87a4,4,0,1,1,4-4A4,4,0,0,1,466.23,277.87Zm4-4h0Zm-4,0h0Z" transform="translate(-445.3 -247.77)" style="fill: #fff"/><path d="M480.28,277.87a4,4,0,1,1,4-4A4,4,0,0,1,480.28,277.87Zm4-4h0Zm-4,0h0Z" transform="translate(-445.3 -247.77)" style="fill: #fff"/><path d="M494.34,277.87a4,4,0,1,1,4-4A4,4,0,0,1,494.34,277.87Zm4-4h0Zm-4,0h0Z" transform="translate(-445.3 -247.77)" style="fill: #fff"/></g></g></svg>