<svg xmlns="http://www.w3.org/2000/svg" width="68" height="68" viewBox="0 0 68 68" cl-svg="1536460498339"><path d="M497.14,247h60.43c2.2,0,4.43,2.73,4.43,4.93v60.43c0,2.2-2.23,2.65-4.43,2.65H535a4,4,0,0,1,0-8h19V255H502v19.53a4,4,0,0,1-8,0v-22.6C494,249.73,494.95,247,497.14,247Z" transform="translate(-494 -247)" style="fill: #fff"/><path d="M558.86,315H498.43c-2.2,0-4.43-2.73-4.43-4.93V249.65c0-2.2,2.23-2.65,4.43-2.65H521a4,4,0,0,1,0,8H502v52h52V287.47a4,4,0,0,1,8,0v22.6C562,312.27,561.05,315,558.86,315Z" transform="translate(-494 -247)" style="fill: #fff"/><path d="M499,268h39.1c1.42,0,2.87,1.77,2.87,3.19v39.1c0,1.42-1.44,1.71-2.87,1.71H523.51a2.5,2.5,0,1,1,0-5H536V273H502v12.81a2.5,2.5,0,1,1-5,0V271.19C497,269.77,497.61,268,499,268Z" transform="translate(-494 -247)" style="fill: #fff"/></svg>