<svg xmlns="http://www.w3.org/2000/svg" width="78.2" height="60.26" viewBox="0 0 78.2 60.26" cl-svg="1536456755862"><g><path d="M480.39,311a4,4,0,0,1-2-.55l-21.43-12.58a4,4,0,0,1-2-3.43V267.31a4,4,0,0,1,2-3.43l21.43-12.58a4,4,0,0,1,6,3.43V307A4,4,0,0,1,480.39,311Zm-17.46-18.83,13.48,7.91V261.67l-13.48,7.91v22.61Z" transform="translate(-439.58 -250.75)" style="fill: #fff"/><path d="M459,298.44H451A11.47,11.47,0,0,1,439.58,287v-12.2A11.47,11.47,0,0,1,451,263.33H459a4,4,0,0,1,4,4v27.16A4,4,0,0,1,459,298.44ZM451,271.28a3.51,3.51,0,0,0-3.5,3.5V287a3.51,3.51,0,0,0,3.5,3.5h4V271.28h-4Z" transform="translate(-439.58 -250.75)" style="fill: #fff"/><path d="M504.84,306.54a4,4,0,0,1-2.81-6.79A26.72,26.72,0,0,0,502,262a4,4,0,0,1,5.62-5.62,34.67,34.67,0,0,1,0,49A4,4,0,0,1,504.84,306.54Z" transform="translate(-439.58 -250.75)" style="fill: #fff"/><path d="M493.14,294.84a4,4,0,0,1-2.81-6.79,10.14,10.14,0,0,0,0-14.34,4,4,0,1,1,5.62-5.62,18.09,18.09,0,0,1,0,25.58A4,4,0,0,1,493.14,294.84Z" transform="translate(-439.58 -250.75)" style="fill: #fff"/></g></svg>