<svg xmlns="http://www.w3.org/2000/svg" width="1028.99" height="243.46" viewBox="0 0 1028.99 243.46" cl-svg="1539402000950"><g><path d="M1210.87-.25" transform="translate(-88.05 -36.98)" style="fill: #fff"/><path d="M0-.25" transform="translate(-88.05 -36.98)" style="fill: #fff"/><g style="opacity: 0.34"><path d="M133.3,86.56a2.07,2.07,0,0,1,3-.79,25.65,25.65,0,0,0,16.42,4.47,18.45,18.45,0,0,0,10.48-3.88,11.45,11.45,0,0,0,4.27-8.8,9.52,9.52,0,0,1-9.07,2.69,8,8,0,0,1-5.26-5,6.9,6.9,0,0,1,.66-6.35,8.36,8.36,0,0,1,8.43-3,10.76,10.76,0,0,1,4.31,1.89,13.89,13.89,0,0,0-.73-3.14,36.65,36.65,0,0,0-4.92-8.47,2.08,2.08,0,0,1,3.39-2.39,39.76,39.76,0,0,1,5.43,9.47,16.07,16.07,0,0,1,.65,9.13,12.48,12.48,0,0,1,1.21,4.34,15.51,15.51,0,0,1-5.7,12.89,22.55,22.55,0,0,1-12.84,4.84A29.81,29.81,0,0,1,134,89.19,2.07,2.07,0,0,1,133.3,86.56Zm32.55-13.77a7.23,7.23,0,0,0-4.36-2.89,4.25,4.25,0,0,0-4.24,1.33,2.88,2.88,0,0,0-.17,2.57,3.9,3.9,0,0,0,2.45,2.44c2.2,0.6,5-.84,6.21-3.22Z" transform="translate(-88.05 -36.98)" style="fill: #f47a20"/><path d="M278,164.11a42.32,42.32,0,0,1-9-26.6c0.07-5,1.14-12.35,5.79-18.6,4.35-5.84,11.16-9.35,17.78-9.16a17.72,17.72,0,0,1,6.25,1.35,22.82,22.82,0,0,1,13,.15c5.14,1.49,9.58,4.25,13.87,6.91a2.95,2.95,0,0,1-3.11,5c-4-2.45-8-5-12.41-6.26a19.73,19.73,0,0,0-4.51-.77,15.28,15.28,0,0,1,3,5.94c1.18,4.69-.27,9.59-3.61,12.2a9.79,9.79,0,0,1-8.94,1.46,11.42,11.42,0,0,1-7.56-7,13.51,13.51,0,0,1,3-13.07,16.26,16.26,0,0,0-12.12,6.78c-3.71,5-4.56,11-4.63,15.17a36.41,36.41,0,0,0,7.7,22.89,3,3,0,0,1-.5,4.14,3,3,0,0,1-.35.24A3,3,0,0,1,278,164.11Zm20.25-46.35c-3.26,1.93-5.08,6-4,9.06a5.53,5.53,0,0,0,3.66,3.27,4.09,4.09,0,0,0,3.62-.46c1.51-1.18,2.14-3.7,1.52-6.12a10.25,10.25,0,0,0-4.45-5.94Z" transform="translate(-88.05 -36.98)" style="fill: #14ad9e"/><path d="M245.68,77l-1.82,4.8a1.51,1.51,0,0,1-1.09.94l-5,1.1,4.06,3.46a1.51,1.51,0,0,1,.53,1.26L242,93.84l4.33-2.76a1.51,1.51,0,0,1,1.43-.11l4.7,2.1L251.09,88a1.48,1.48,0,0,1,.31-1.36l3.39-4-5.24-.41a1.51,1.51,0,0,1-1.18-.73Z" transform="translate(-88.05 -36.98)" style="fill: #ffda66"/><polygon points="880.86 139.55 875.01 127.21 861.75 125.34 871.43 115.61 869.26 102.01 881.09 108.34 893.02 101.81 890.65 115.44 900.18 125 886.89 127.11 880.86 139.55" style="fill: #0b7686"/><polygon points="120.72 27.7 117.66 21.24 110.72 20.26 115.78 15.16 114.65 8.04 120.84 11.36 127.09 7.94 125.85 15.08 130.84 20.08 123.88 21.18 120.72 27.7" style="fill: #0b7686"/><path d="M862.48,149.38a1.68,1.68,0,0,1-.18-1.54l4.58-12.11-12,3.88a1.68,1.68,0,0,1-1.57-.29l-9.75-7.89-0.4,13a1.68,1.68,0,0,1-.73,1.33L831.69,153l11.87,4.06a1.68,1.68,0,0,1,1.08,1.17l3.18,12.3,7.72-10.35a1.66,1.66,0,0,1,1.4-.67l12.68,0.41ZM844,153.06a1.68,1.68,0,0,1,0-3.36A1.68,1.68,0,0,1,844,153.06Zm3.69-8.4a1.68,1.68,0,0,1,0-3.36A1.68,1.68,0,0,1,847.69,144.66Zm2.69,15.78a1.68,1.68,0,0,1,0-3.36A1.68,1.68,0,0,1,850.38,160.45Zm0.34-9.74a1.68,1.68,0,0,1,0-3.36A1.68,1.68,0,0,1,850.72,150.71Zm4.37-9.07a1.68,1.68,0,0,1,0,3.36A1.68,1.68,0,0,1,855.08,141.64Zm2,12.09a1.68,1.68,0,0,1,0-3.36A1.68,1.68,0,0,1,857.1,153.73Z" transform="translate(-88.05 -36.98)" style="fill: #ef4756"/><polygon points="93.95 102.62 117.11 104.07 104.51 77.23 93.95 102.62" style="fill: #f04d4f"/><polygon points="0 139.03 10.16 155.49 22.37 134 0 139.03" style="fill: #f04d4f"/><path d="M166.63,191.6a43.63,43.63,0,0,1,36.07,8.19c1.73,1.34,3.44-1.62,1.72-2.94a46.5,46.5,0,0,0-38.9-8.48c-4.23-9.72-15.56-14.43-26.15-11-2.08.68-1.23,4,.86,3.3,8.68-2.83,18.25.36,22,8.52-7.75,2.57-26.46,14.59-13.83,23.31,11,7.62,19.69-9.25,18.72-18.15A21.3,21.3,0,0,0,166.63,191.6Zm-7.54,16.73q-19.21-2.78-4-12.22a33.44,33.44,0,0,1,8.28-3.63c0,0.09.05,0.16,0.07,0.25C164.49,197.5,163.63,205.31,159.09,208.33Z" transform="translate(-88.05 -36.98)" style="fill: #e73057"/><path d="M424.29,95.65a15.11,15.11,0,0,0,4.21-8c0.8-6.21-3.11-10.19-9.09-10.36-15.43-.43-15.68,14.37-4.67,20l-0.26.14a39.86,39.86,0,0,1-20.69,7c-12.87.59-24.21-5.43-32.48-14.94-2.08-2.39-5.54,1.1-3.47,3.47,13.93,16,36.81,21.46,55.81,10.76a54.51,54.51,0,0,0,6.71-4.42M416,82.57c4.34,4.6,5.39,8.35,3.3,11.3C415.7,92.57,414.57,88.83,416,82.57Z" transform="translate(-88.05 -36.98)" style="fill: #ef4756"/><path d="M914.44,195.66a37.66,37.66,0,0,1-14.69,5.66l-0.93.14a6.84,6.84,0,0,0,1.14-2.93c1.08-8.81-11.32-6.73-11.2.47a5.36,5.36,0,0,0,2.1,4.6,38.21,38.21,0,0,1-7.74,2.58c-8,1.36-15.22-.12-22.61,4a28.36,28.36,0,0,0-11.89,12.87c-3.34,7.25-3.4,16.11-10.35,21.19-1.49,1.09.35,3.3,1.84,2.21,4.8-3.51,6.68-8.49,8.37-14,2.66-8.72,6.29-16.47,15.07-20.57,7.94-3.7,16.94-1.41,25.18-4.12a30.26,30.26,0,0,0,6.51-2.92c7,0.19,17.44-4.71,20.39-6.54C917.18,197.32,916,194.69,914.44,195.66Z" transform="translate(-88.05 -36.98)" style="fill: #015f93"/><g><path d="M947.41,220.28l-16.61-9.85c-2.25-1.33-4.08,2.29-1.84,3.62l16.61,9.85C947.82,225.23,949.65,221.61,947.41,220.28Z" transform="translate(-88.05 -36.98)" style="fill: #f04d4f"/><path d="M945.9,188.91c-0.82-2.48-4.68-1.23-3.86,1.26a112,112,0,0,0,9.73,21.53c1.32,2.26,4.73.06,3.42-2.19A107,107,0,0,1,945.9,188.91Z" transform="translate(-88.05 -36.98)" style="fill: #f04d4f"/><path d="M967.2,201.62a13,13,0,0,0-1.69,8.29c0.33,2.58,4.39,2.37,4.05-.24a9.39,9.39,0,0,1,1.26-6.21C972.14,201.2,968.52,199.37,967.2,201.62Z" transform="translate(-88.05 -36.98)" style="fill: #f04d4f"/></g><path d="M770.88,207.16a135.26,135.26,0,0,1,6-21.87c1.09-2.93-3.27-5.21-4.36-2.26a143,143,0,0,0-6.47,23.11C765.49,209.25,770.29,210.27,770.88,207.16Z" transform="translate(-88.05 -36.98)" style="fill: #e73057"/><path d="M801.7,221.19a14,14,0,0,1,7.23-8.22c2.81-1.44.11-5.54-2.68-4.12a18.86,18.86,0,0,0-9.35,11.32C795.93,223.18,800.75,224.18,801.7,221.19Z" transform="translate(-88.05 -36.98)" style="fill: #e73057"/><path d="M412.35,233.58c-1.92-2.51-5.82.48-3.9,3l9,11.69" transform="translate(-88.05 -36.98)" style="fill: #f47a20"/><path d="M396.45,271.21l-5.51-5c-2.33-2.13-5.28,1.79-3,3.92l5.51,5C395.81,277.26,398.77,273.33,396.45,271.21Z" transform="translate(-88.05 -36.98)" style="fill: #f47a20"/><polygon points="227.11 27.59 213.55 14.91 207.67 37.89 227.11 27.59" style="fill: #14ad9e"/><polygon points="283.91 30.11 289.79 11.17 264.95 16.2 283.91 30.11" style="fill: #14ad9e"/><polygon points="1010.2 17.13 1015.08 22.64 1018.26 13.79 1010.2 17.13" style="fill: #e73057"/><polygon points="15.96 5.16 13.78 12.2 23 10.33 15.96 5.16" style="fill: #14ad9e"/><path d="M913.79,135.66l1.74,5.86a1.8,1.8,0,0,0,1.21,1.21l5.84,1.74-5.12,3.75a1.8,1.8,0,0,0-.74,1.45l0,6.34-4.9-3.65a1.8,1.8,0,0,0-1.69-.25l-5.77,2.09,2-5.92a1.77,1.77,0,0,0-.25-1.65l-3.68-5,6.25,0a1.8,1.8,0,0,0,1.46-.77Z" transform="translate(-88.05 -36.98)" style="fill: #f04d4f"/><polygon points="1009.03 214.43 1012.7 207.97 1019.97 207.48 1015.1 201.81 1016.82 194.51 1010.14 197.48 1003.93 193.46 1004.67 200.96 999.12 205.77 1006.25 207.44 1009.03 214.43" style="fill: #e73057"/><polyline points="644.93 27.32 639.98 21.56 641.72 14.14 634.94 17.16 628.62 13.07" style="fill: #e73057"/><path d="M131.5,247.33a21.53,21.53,0,0,1-3.5-12.4c0.05-2.55-3.91-2.4-4,.15a25.25,25.25,0,0,0,4.09,14.34C129.52,251.56,132.9,249.48,131.5,247.33Z" transform="translate(-88.05 -36.98)" style="fill: #f04d4f"/><path d="M121.48,260a64.4,64.4,0,0,0-13.77-22.33c-1.76-1.86-4.48,1-2.74,2.87a59.51,59.51,0,0,1,12.72,20.62C118.55,263.59,122.35,262.45,121.48,260Z" transform="translate(-88.05 -36.98)" style="fill: #f04d4f"/><path d="M108,270.59c-2.33-1-4.25,2.48-1.91,3.48" transform="translate(-88.05 -36.98)" style="fill: #f04d4f"/><polygon points="949.84 185.39 976.19 162.75 934.64 147.12 949.84 185.39" style="fill: #015f93"/><polygon points="742.59 44.16 732.93 16.25 707.57 44.21 742.59 44.16" style="fill: #015f93"/><path d="M992.57,105.22a61.94,61.94,0,0,1,36.95-18c7.33-.83,18.14-0.65,28.09,4.94,9.29,5.22,15.65,14.46,16.61,24.11a25.93,25.93,0,0,1-.79,9.33,33.4,33.4,0,0,1,2.2,18.88c-1.21,7.74-4.38,14.69-7.44,21.42a4.31,4.31,0,0,1-7.85-3.58c2.83-6.2,5.75-12.61,6.77-19.18a28.9,28.9,0,0,0,.28-6.69,22.37,22.37,0,0,1-8.06,5.51c-6.58,2.59-14,1.4-18.38-3a14.34,14.34,0,0,1-3.79-12.7,16.72,16.72,0,0,1,8.79-12.28c6.08-3,13.64-2,19.55,2-1.05-6.5-5.6-12.68-12.11-16.33-7.93-4.46-16.83-4.57-22.89-3.89a53.29,53.29,0,0,0-31.79,15.45A4.31,4.31,0,1,1,992.57,105.22ZM1063.63,126c-3.42-4.38-9.66-6.25-13.91-4.17a8.1,8.1,0,0,0-4.07,5.93c-0.16,1-.36,3.5,1.34,5.17,2,2,5.76,2.41,9.17,1.07a15,15,0,0,0,7.79-7.57Z" transform="translate(-88.05 -36.98)" style="fill: #14ad9e"/><polygon points="200.65 182.76 197.11 175.3 189.09 174.17 194.95 168.29 193.64 160.06 200.79 163.89 208 159.94 206.57 168.19 212.34 173.97 204.3 175.24 200.65 182.76" style="fill: #0b7686"/><path d="M366.16,230.21a2.53,2.53,0,0,1-.27-2.31l6.88-18.21-18.11,5.84a2.52,2.52,0,0,1-2.36-.44l-14.66-11.86L337,222.72a2.53,2.53,0,0,1-1.1,2l-16.07,11,17.85,6.1a2.52,2.52,0,0,1,1.63,1.76l4.79,18.5,11.6-15.57a2.49,2.49,0,0,1,2.11-1l19.07,0.62Zm-27.8,5.54c-3.26,0-3.26-5.05,0-5.05S341.63,235.75,338.37,235.75Zm5.56-12.63c-3.26,0-3.26-5.05,0-5.05S347.18,223.12,343.92,223.12Zm4,23.74c-3.26,0-3.26-5.05,0-5.05S351.22,246.86,348,246.86Zm0.5-14.65c-3.26,0-3.26-5.05,0-5.05S351.73,232.21,348.47,232.21ZM355,218.58c3.26,0,3.26,5.05,0,5.05S351.78,218.58,355,218.58Zm3,18.18c-3.26,0-3.26-5.05,0-5.05S361.32,236.76,358.07,236.76Z" transform="translate(-88.05 -36.98)" style="fill: #ef4756"/><path d="M982.28,43.87A54.64,54.64,0,0,0,960.16,56.1c-8.43,7.74-20.86,15.89-33,10.78a15.11,15.11,0,0,0,4.21-8c0.8-6.21-3.11-10.19-9.09-10.36-15.43-.43-15.68,14.37-4.67,20l-0.26.14a39.86,39.86,0,0,1-20.69,7c-12.87.59-24.21-5.43-32.48-14.94-2.08-2.39-5.54,1.1-3.47,3.47,13.93,16,36.81,21.46,55.81,10.76a54.5,54.5,0,0,0,6.71-4.42c8.41,2.32,18.76,3.28,26.64.1C954,68.92,957,66.09,960.2,63c7.23-6.85,13.64-11.55,23.38-14.44C986.61,47.71,985.32,43,982.28,43.87ZM918.83,53.8c4.34,4.6,5.39,8.35,3.3,11.3C918.54,63.8,917.41,60.06,918.83,53.8Z" transform="translate(-88.05 -36.98)" style="fill: #ef4756"/><g><path d="M348.58,177.67l-23.31-1.5c-3.16-.2-3.14,4.71,0,4.91l23.31,1.5C351.74,182.78,351.72,177.87,348.58,177.67Z" transform="translate(-88.05 -36.98)" style="fill: #f04d4f"/><path d="M329.73,144.68c-2.25-2.23-5.72,1.24-3.47,3.47A135.46,135.46,0,0,0,348.57,166c2.67,1.71,5.13-2.54,2.48-4.24A129.44,129.44,0,0,1,329.73,144.68Z" transform="translate(-88.05 -36.98)" style="fill: #f04d4f"/><path d="M359.67,146.68a15.71,15.71,0,0,0,2.72,9.86c1.77,2.6,6,.14,4.24-2.48a11.35,11.35,0,0,1-2.05-7.39C364.77,143.53,359.86,143.54,359.67,146.68Z" transform="translate(-88.05 -36.98)" style="fill: #f04d4f"/></g><path d="M770.88,207.16a135.26,135.26,0,0,1,6-21.87c1.09-2.93-3.27-5.21-4.36-2.26a143,143,0,0,0-6.47,23.11C765.49,209.25,770.29,210.27,770.88,207.16Z" transform="translate(-88.05 -36.98)" style="fill: #e73057"/><path d="M801.7,221.19a14,14,0,0,1,7.23-8.22c2.81-1.44.11-5.54-2.68-4.12a18.86,18.86,0,0,0-9.35,11.32C795.93,223.18,800.75,224.18,801.7,221.19Z" transform="translate(-88.05 -36.98)" style="fill: #e73057"/><path d="M412.35,233.58c-1.92-2.51-5.82.48-3.9,3l9,11.69" transform="translate(-88.05 -36.98)" style="fill: #f47a20"/><path d="M396.45,271.21l-5.51-5c-2.33-2.13-5.28,1.79-3,3.92l5.51,5C395.81,277.26,398.77,273.33,396.45,271.21Z" transform="translate(-88.05 -36.98)" style="fill: #f47a20"/><path d="M766.14,118.58a24.27,24.27,0,0,0,7.41-2.82,53.77,53.77,0,0,0,6.66,1.9c28.26,6.28,58.19.57,83.38-13.07,2.78-1.51.3-5.75-2.48-4.24-23.83,12.9-52.82,18.77-79.6,12.58a21.53,21.53,0,0,1-3-1.06,14.82,14.82,0,0,0,4.15-11.17c-0.44-6.79-6.74-13-13.91-11.74-6.61,1.14-9.38,7.7-8.28,13.78a15,15,0,0,0,7,10l-5.52,1.39" transform="translate(-88.05 -36.98)" style="fill: #f47a20"/><polygon points="168.17 157.22 148.45 138.79 139.9 172.21 168.17 157.22" style="fill: #14ad9e"/><path d="M864,269.68" transform="translate(-88.05 -36.98)" style="fill: #14ad9e"/><polygon points="711.08 133 719.09 107.22 685.28 114.07 711.08 133" style="fill: #14ad9e"/><polygon points="20.62 77.59 26.74 64.2 5.97 69.34 20.62 77.59" style="fill: #14ad9e"/><polygon points="1015.74 111.61 1028.99 118 1024.28 97.13 1015.74 111.61" style="fill: #015f93"/><polygon points="963.82 27.9 969.94 14.52 949.17 19.66 963.82 27.9" style="fill: #14ad9e"/><polygon points="854.25 88.13 860.97 76.25 874.34 75.35 865.39 64.94 868.54 51.54 856.28 56.99 844.86 49.6 846.23 63.38 836.03 72.22 849.13 75.28 854.25 88.13" style="fill: #e73057"/></g><g><path d="M594,280.44a125,125,0,0,1-88.05-36.52,120.33,120.33,0,0,1-35.52-88.82,6.21,6.21,0,0,1,6.27-6,6.12,6.12,0,0,1,6,6.27,108.2,108.2,0,0,0,31.94,79.86,112.75,112.75,0,0,0,82.59,32.89c28.14-.82,53.55-12.41,71.55-32.63C709.22,190,709.34,120.65,669,80.91c-42.91-42.26-112.18-42.27-154.42,0a6.12,6.12,0,0,1-8.66-8.66c47-47,124-47,171.67,0,44.93,44.24,45.05,121.17.28,171.47-20.26,22.77-48.8,35.81-80.34,36.73Q595.74,280.44,594,280.44Z" transform="translate(-88.05 -36.98)" style="fill: #abcf78"/><path d="M480.64,133.42a6.13,6.13,0,0,1-5.9-7.75,120.63,120.63,0,0,1,10.42-25.76,6.12,6.12,0,0,1,10.75,5.87,108.55,108.55,0,0,0-9.37,23.15A6.13,6.13,0,0,1,480.64,133.42Z" transform="translate(-88.05 -36.98)" style="fill: #abcf78"/><path d="M522,158.43l42.43,42.43a6.74,6.74,0,0,0,9.53,0l84-84a6.12,6.12,0,1,1,8.66,8.66l-84,84a19,19,0,0,1-26.84,0l-42.43-42.43" transform="translate(-88.05 -36.98)" style="fill: #abcf78"/></g></g></svg>