<svg width="314px" height="457px" viewBox="0 0 314 457" xmlns="http://www.w3.org/2000/svg" cl-svg="1536282618579"><defs/><g stroke="none" stroke-width="1" fill="none" fill-rule="evenodd"><g fill-rule="nonzero"><path d="M313.635,429.036 L303.509,348.024 C301.98,335.796 293.566,325.532 281.875,321.635 L242.828,308.619 C237.466,306.831 231.584,307.97 227.449,311.493 L215.948,307.659 C209.415,305.481 205.008,299.367 205.008,292.48 L205.008,266.678 L239.469,252.319 C257.356,244.866 269.008,227.389 269.008,208.011 L269.008,200.011 C282.263,200.011 293.008,189.266 293.008,176.011 C293.008,169.453 290.375,163.512 286.112,159.18 L294.548,91.688 C298.487,60.174 283.775,29.24 256.844,12.408 C243.88,4.309 228.901,0.013 213.615,0.013 C213.615,0.013 99.128,0.036 98.631,0.073 C81.867,0.89 67.372,10.313 59.444,24.013 L57.199,24.013 C33.574,24.013 13.797,44.115 16.457,67.589 C16.476,67.758 16.496,67.927 16.517,68.095 L27.903,159.182 C23.64,163.514 21.007,169.455 21.007,176.013 C21.007,189.268 31.752,200.013 45.007,200.013 L45.007,208.013 C45.007,227.39 56.658,244.867 74.545,252.321 L109.007,266.68 L109.007,292.481 C109.007,299.368 104.6,305.482 98.067,307.66 L86.566,311.494 C82.431,307.971 76.549,306.832 71.187,308.62 L32.14,321.636 C20.449,325.533 12.035,335.797 10.506,348.025 L0.38,429.037 C-1.411,443.362 9.759,456.014 24.195,456.014 L24.42,456.014 L289.596,456.014 L289.821,456.014 C304.256,456.013 315.425,443.361 313.635,429.036 Z" fill="#B0B0B0"/><path d="M256.843,12.41 C243.88,4.309 228.901,0.013 213.615,0.013 L213.007,0.013 L213.007,168.013 L285.007,168.013 L294.547,91.691 C298.486,60.177 283.774,29.242 256.843,12.41 Z" fill="#9B9B9B"/><path d="M16.456,67.589 C16.475,67.758 16.495,67.927 16.516,68.095 L29.006,168.013 L77.006,168.013 L77.006,24.013 L57.198,24.013 C33.573,24.013 13.796,44.114 16.456,67.589 Z" fill="#9B9B9B"/><path d="M269.007,152.013 L269.007,136.013 C269.007,113.922 251.098,96.013 229.007,96.013 L85.007,96.013 C62.915,96.013 45.007,113.922 45.007,136.013 L45.007,152.013 C31.752,152.013 21.007,162.759 21.007,176.013 C21.007,189.268 31.752,200.013 45.007,200.013 L45.007,208.013 C45.007,227.39 56.658,244.867 74.545,252.321 L126.236,273.859 C135.986,277.922 146.444,280.013 157.006,280.013 C167.568,280.013 178.025,277.921 187.775,273.859 L239.469,252.32 C257.356,244.867 269.008,227.39 269.008,208.012 L269.008,200.012 C282.263,200.012 293.008,189.267 293.008,176.012 C293.008,162.757 282.262,152.013 269.007,152.013 Z" fill="#BEBEBE"/><path d="M213.007,0.013 L101.007,0.013 C74.497,0.013 53.007,21.503 53.007,48.013 C53.007,94.263 97.004,122.267 133.007,136.013 C133.007,136.013 128.992,128.684 123.584,117.852 C155.515,128.534 204.832,136.013 272.007,136.013 C272.007,136.013 272.007,118.763 272.007,113.013 C272.007,-3.654 213.007,0.013 213.007,0.013 Z" fill="#9B9B9B"/><path d="M157.007,358.013 C189.587,358.013 217.931,339.894 232.524,313.185 L215.948,307.66 C214.339,307.124 212.866,306.34 211.55,305.373 C200.299,323.727 180.114,336.013 157.008,336.013 C133.902,336.013 113.717,323.727 102.466,305.373 C101.149,306.339 99.676,307.123 98.068,307.66 L81.491,313.185 C96.082,339.894 124.427,358.013 157.007,358.013 Z" fill="#969696"/><path d="M313.635,429.036 L303.509,348.024 C301.981,335.796 293.566,325.532 281.876,321.635 L242.829,308.619 C236.029,306.352 228.379,308.773 224.538,314.825 C210.357,337.168 185.432,352.012 157.008,352.012 C128.584,352.012 103.659,337.168 89.478,314.825 C85.637,308.773 77.987,306.352 71.187,308.619 L32.14,321.635 C20.449,325.532 12.035,335.796 10.507,348.024 L0.381,429.036 C-1.41,443.36 9.76,456.013 24.196,456.013 L289.82,456.013 C304.256,456.013 315.425,443.361 313.635,429.036 Z" fill="#C5C5C5"/></g></g></svg>