<svg xmlns="http://www.w3.org/2000/svg" width="93" height="94" viewBox="0 0 93 94" cl-svg="1536378139621"><g><path d="M703.37,948.7c0-6-3.68-5.82,2.07-5.82h67.48v64.64a1,1,0,0,1-1,1H705.34c-5.94,0-2-.69-2-5.82v-54Z" transform="translate(-691.58 -918.22)" style="fill: #d0ddea"/><path d="M768.86,1012.22H707.42a7.73,7.73,0,0,1-7.72-7.72v-15.9a2,2,0,1,1,4,0v15.9a3.72,3.72,0,0,0,3.72,3.72h61.44a3.72,3.72,0,0,0,3.72-3.72V946.94a3.72,3.72,0,0,0-3.72-3.72H707.52a3.82,3.82,0,0,0-3.82,3.72v21.72a2,2,0,0,1-4,0V946.94a7.78,7.78,0,0,1,7.82-7.72h61.34a7.73,7.73,0,0,1,7.72,7.72v57.57A7.73,7.73,0,0,1,768.86,1012.22Z" transform="translate(-691.58 -918.22)" style="fill: #5e125c"/><path d="M695.7,929.22c0-7.17-.81-7,6.1-7h78.78V1000a1.25,1.25,0,0,1-1.25,1.25H701.69c-7.15,0-6-.83-6-7v-65Z" transform="translate(-691.58 -918.22)" style="fill: #f8f9fb"/><path d="M693.7,971.22a2,2,0,0,1-2-2v-9a2,2,0,0,1,4,0v9A2,2,0,0,1,693.7,971.22Z" transform="translate(-691.58 -918.22)" style="fill: #5e125c"/><path d="M10.51,1h71A9.51,9.51,0,0,1,91,10.51V18a0,0,0,0,1,0,0H1a0,0,0,0,1,0,0V10.51A9.51,9.51,0,0,1,10.51,1Z" style="fill: #abcf79"/><path d="M775.7,1005.22H700.58a8.89,8.89,0,0,1-8.88-8.88V977.22a2,2,0,0,1,4,0v19.12a4.88,4.88,0,0,0,4.88,4.88H775.7a4.88,4.88,0,0,0,4.88-4.88V927.1a4.88,4.88,0,0,0-4.88-4.88h-75a5,5,0,0,0-5,4.88v26.12a2,2,0,0,1-4,0V927.1a9,9,0,0,1,9-8.88h75a8.89,8.89,0,0,1,8.88,8.88v69.24A8.89,8.89,0,0,1,775.7,1005.22Z" transform="translate(-691.58 -918.22)" style="fill: #5e125c"/><path d="M772.58,938.22h-79a2,2,0,0,1,0-4h79A2,2,0,1,1,772.58,938.22Z" transform="translate(-691.58 -918.22)" style="fill: #5e125c"/><path d="M703.58,931.22a3,3,0,1,1,3-3A3,3,0,0,1,703.58,931.22Zm0-4a1,1,0,1,0,1,1A1,1,0,0,0,703.58,927.22Z" transform="translate(-691.58 -918.22)" style="fill: #5e125c"/><path d="M712.58,931.22a3,3,0,1,1,3-3A3,3,0,0,1,712.58,931.22Zm0-4a1,1,0,1,0,1,1A1,1,0,0,0,712.58,927.22Z" transform="translate(-691.58 -918.22)" style="fill: #5e125c"/><path d="M721.58,931.22a3,3,0,1,1,3-3A3,3,0,0,1,721.58,931.22Zm0-4a1,1,0,1,0,1,1A1,1,0,0,0,721.58,927.22Z" transform="translate(-691.58 -918.22)" style="fill: #5e125c"/><path d="M720.67,982.22a2,2,0,0,1-1.41-.59l-8-8a5.67,5.67,0,0,1,0-8l8-8a2,2,0,0,1,2.83,2.83l-8,8a1.67,1.67,0,0,0,0,2.35l8,8A2,2,0,0,1,720.67,982.22Z" transform="translate(-691.58 -918.22)" style="fill: #5e125c"/><path d="M755.58,982.22a2,2,0,0,1-1.41-3.41l8-8a1.67,1.67,0,0,0,0-2.35l-8-8a2,2,0,0,1,2.83-2.83l8,8a5.67,5.67,0,0,1,0,8l-8,8A2,2,0,0,1,755.58,982.22Z" transform="translate(-691.58 -918.22)" style="fill: #5e125c"/><path d="M730.58,989.26a2,2,0,0,1-1.84-2.77l14-33.5a2,2,0,0,1,3.69,1.54l-14,33.5A2,2,0,0,1,730.58,989.26Z" transform="translate(-691.58 -918.22)" style="fill: #5e125c"/></g></svg>