<svg width="45px" height="54px" viewBox="0 0 45 54" xmlns="http://www.w3.org/2000/svg" cl-svg="1533390817529"><defs/><g stroke="none" stroke-width="1" fill="none" fill-rule="evenodd"><g fill="#9CEF53"><polygon opacity="0.25" points="0 3.55271368e-15 0 54 45 54 45 16 29 0"/><path d="M4,4 L4,50 L41,50 L41,17.6568542 L27.3431458,4 L4,4 Z M0,0 L29,0 L45,16 L45,54 L0,54 L0,0 Z" fill-rule="nonzero"/><path d="M11,17 L32,17 L32,21 L11,21 L11,17 Z M11,27 L32,27 L32,31 L11,31 L11,27 Z M11,37 L32,37 L32,41 L11,41 L11,37 Z"/></g></g></svg>