<svg width="46px" height="46px" viewBox="0 0 46 46" xmlns="http://www.w3.org/2000/svg" cl-svg="1533181841972"><defs><circle id="icon-error-path-1" cx="23" cy="23" r="23"/></defs><g stroke="none" stroke-width="1" fill="none" fill-rule="evenodd"><g><g><use fill="#FF0067" fill-rule="evenodd" href="#icon-error-path-1"/><circle stroke-opacity="0.646993886" stroke="#FFFFFF" stroke-width="6" cx="23" cy="23" r="20"/><circle stroke="#B20047" stroke-width="3" cx="23" cy="23" r="21.5"/></g><path d="M23.5,19.9644661 L18.9074734,15.3719395 C17.9204593,14.3849253 16.3445827,14.3919613 15.368272,15.368272 C14.3851546,16.3513894 14.3936033,17.9291372 15.3719395,18.9074734 L19.9644661,23.5 L15.3719395,28.0925266 C14.3849253,29.0795407 14.3919613,30.6554173 15.368272,31.631728 C16.3513894,32.6148454 17.9291372,32.6063967 18.9074734,31.6280605 L23.5,27.0355339 L28.0925266,31.6280605 C29.0795407,32.6150747 30.6554173,32.6080387 31.631728,31.631728 C32.6148454,30.6486106 32.6063967,29.0708628 31.6280605,28.0925266 L27.0355339,23.5 L31.6280605,18.9074734 C32.6150747,17.9204593 32.6080387,16.3445827 31.631728,15.368272 C30.6486106,14.3851546 29.0708628,14.3936033 28.0925266,15.3719395 L23.5,19.9644661 Z" fill="#FFFFFF"/></g></g></svg>