<svg xmlns="http://www.w3.org/2000/svg" width="59" height="100" viewBox="0 0 59 100" cl-svg="1536378113047"><g><path d="M712.7,318.33V277.21a6.88,6.88,0,0,1,6.88-6.88H758.7a6.88,6.88,0,0,1,6.88,6.88v82.24a6.88,6.88,0,0,1-6.88,6.88H719.46a6.88,6.88,0,0,1-6.88-6.88V336.33" transform="translate(-708.58 -268.33)" style="fill: #995d91"/><path d="M710.58,332.33a2,2,0,0,1-2-2v-6a2,2,0,0,1,4,0v6A2,2,0,0,1,710.58,332.33Z" transform="translate(-708.58 -268.33)" style="fill: #5e125c"/><circle cx="30" cy="90" r="3" style="fill: #5e125c"/><path d="M9.31,3.88H49.69A5.31,5.31,0,0,1,55,9.19V83a0,0,0,0,1,0,0H4a0,0,0,0,1,0,0V9.19A5.31,5.31,0,0,1,9.31,3.88Z" style="fill: #e6cfe7"/><rect x="4" y="2" width="51" height="7.19" style="fill: #995d91"/><path d="M754.58,353.33h-42a2,2,0,0,1,0-4h42A2,2,0,0,1,754.58,353.33Z" transform="translate(-708.58 -268.33)" style="fill: #5e125c"/><path d="M764.58,279.33h-52a2,2,0,0,1,0-4h52A2,2,0,0,1,764.58,279.33Z" transform="translate(-708.58 -268.33)" style="fill: #5e125c"/><path d="M758.7,368.33H717.46a8.89,8.89,0,0,1-8.88-8.88V336.33a2,2,0,0,1,4,0v23.12a4.88,4.88,0,0,0,4.88,4.88H758.7a4.88,4.88,0,0,0,4.88-4.88V277.21a4.88,4.88,0,0,0-4.88-4.88H717.58a4.88,4.88,0,0,0-4.88,4.88v41.12a2,2,0,1,1-4,0V277.21a8.89,8.89,0,0,1,8.88-8.88H758.7a8.89,8.89,0,0,1,8.88,8.88v82.24A8.89,8.89,0,0,1,758.7,368.33Z" transform="translate(-708.58 -268.33)" style="fill: #5e125c"/><path d="M763.58,284.31v-5H712.7a0.12,0.12,0,0,0-.12.12v55.68C729.78,317.85,747.09,300.57,763.58,284.31Z" transform="translate(-708.58 -268.33)" style="fill: #fff;opacity: 0.5"/></g></svg>