<svg width="54px" height="64px" viewBox="0 0 54 64" xmlns="http://www.w3.org/2000/svg" cl-svg="1535245491830"><defs/><g stroke="none" stroke-width="1" fill="none" fill-rule="evenodd"><g><polygon fill="#FFFFFF" points="0 3.55271368e-15 0 54 45 54 45 16 29 0"/><path d="M4,4 L4,50 L41,50 L41,17.6568542 L27.3431458,4 L4,4 Z M0,0 L29,0 L45,16 L45,54 L0,54 L0,0 Z" fill="#E2E2E2" fill-rule="nonzero"/><path d="M11,17 L32,17 L32,21 L11,21 L11,17 Z M11,27 L32,27 L32,31 L11,31 L11,27 Z M11,37 L32,37 L32,41 L11,41 L11,37 Z" fill="#E2E2E2"/><path d="M33.49996,23.3083226 L15.3096799,44.5847511 C14.9557958,45.0228704 14.7630797,45.5676504 14.7630797,46.1290323 C14.7630797,47.4905144 15.8739972,48.5967742 17.2475272,48.5967742 L23.7107148,48.5967742 L23.7107148,62.5 L43.2892506,62.5 L43.2892506,48.5967742 L49.7524382,48.5967742 C50.3200482,48.5967742 50.8703732,48.4037255 51.3119864,48.0500042 C52.3784592,47.1957856 52.5472487,45.6456978 51.7170347,44.6169383 L33.49996,23.3083226 Z" stroke="#213E00" stroke-width="3" fill="#7ED321"/></g></g></svg>