<svg width="59px" height="100px" viewBox="0 0 59 100" xmlns="http://www.w3.org/2000/svg" cl-svg="1537569613175"><defs/><g stroke="none" stroke-width="1" fill="none" fill-rule="evenodd"><g fill-rule="nonzero"><path d="M4.12,50 L4.12,8.88 C4.12,5.08028092 7.20028092,2 11,2 L50.12,2 C53.9197191,2 57,5.08028092 57,8.88 L57,91.12 C57,94.9197191 53.9197191,98 50.12,98 L10.88,98 C7.08028092,98 4,94.9197191 4,91.12 L4,68" fill="#995D91"/><path d="M2,64 C0.8954305,64 0,63.1045695 0,62 L0,56 C0,54.8954305 0.8954305,54 2,54 C3.1045695,54 4,54.8954305 4,56 L4,62 C4,63.1045695 3.1045695,64 2,64 Z" fill="#343434"/><circle fill="#5E125C" cx="30" cy="90" r="3"/><path d="M9.31,3.88 L49.69,3.88 C52.622632,3.88 55,6.25736798 55,9.19 L55,83 L4,83 L4,9.19 C4,6.25736798 6.37736798,3.88 9.31,3.88 Z" fill="#E6CFE7"/><rect fill="#995D91" x="4" y="2" width="51" height="7.19"/><path d="M46,85 L4,85 C2.8954305,85 2,84.1045695 2,83 C2,81.8954305 2.8954305,81 4,81 L46,81 C47.1045695,81 48,81.8954305 48,83 C48,84.1045695 47.1045695,85 46,85 Z" fill="#343434"/><path d="M56,11 L4,11 C2.8954305,11 2,10.1045695 2,9 C2,7.8954305 2.8954305,7 4,7 L56,7 C57.1045695,7 58,7.8954305 58,9 C58,10.1045695 57.1045695,11 56,11 Z" fill="#343434"/><path d="M50.12,100 L8.88,100 C3.97799596,99.994489 0.00551097098,96.022004 0,91.12 L0,68 C0,66.8954305 0.8954305,66 2,66 C3.1045695,66 4,66.8954305 4,68 L4,91.12 C4,93.8151496 6.18485042,96 8.88,96 L50.12,96 C52.8151496,96 55,93.8151496 55,91.12 L55,8.88 C55,6.18485042 52.8151496,4 50.12,4 L9,4 C6.30485042,4 4.12,6.18485042 4.12,8.88 L4.12,50 C4.12,51.1045695 3.2245695,52 2.12,52 C1.0154305,52 0.12,51.1045695 0.12,50 L0.12,8.88 C0.125510971,3.97799596 4.09799596,0.00551097098 9,0 L50.12,0 C55.022004,0.00551097098 58.994489,3.97799596 59,8.88 L59,91.12 C58.994489,96.022004 55.022004,99.994489 50.12,100 Z" fill="#343434"/><path d="M55,15.98 L55,10.98 L4.12,10.98 C4.05372583,10.98 4,11.0337258 4,11.1 L4,66.78 C21.2,49.52 38.51,32.24 55,15.98 Z" fill="#FFFFFF" opacity="0.5"/></g></g></svg>