<svg width="46px" height="56px" viewBox="0 0 46 56" xmlns="http://www.w3.org/2000/svg" cl-svg="1535244774553"><defs/><g stroke="none" stroke-width="1" fill="none" fill-rule="evenodd"><g><path d="M30.5,15.5 L36.5,15.5 L36.5,4 C36.5,2.61928813 35.3807119,1.5 34,1.5 L12,1.5 C10.6192881,1.5 9.5,2.61928813 9.5,4 L9.5,15.5 L15.5,15.5 L15.5,7.5 L30.5,7.5 L30.5,15.5 Z" stroke="#979797" stroke-width="3" fill="#D8D8D8"/><path d="M4.56663449,11.5 L6.37381518,53.0651558 C6.40869906,53.867485 7.06931222,54.5 7.87239942,54.5 L38.1276006,54.5 C38.9306878,54.5 39.5913009,53.867485 39.6261848,53.0651558 L41.4333655,11.5 L4.56663449,11.5 Z" stroke="#979797" stroke-width="3" fill="#D8D8D8"/><path d="M4.57375687,11.5 C3.83340025,11.5 3.20377587,12.0401667 3.09119932,12.7719142 L1.83703668,20.9239714 C1.83316623,20.9491293 1.83122253,20.9745461 1.83122253,21 C1.83122253,21.2761424 2.05508015,21.5 2.33122253,21.5 L43.6687775,21.5 C43.6942314,21.5 43.7196481,21.4980563 43.7448061,21.4941858 C44.0177374,21.4521964 44.2049528,21.1969027 44.1629633,20.9239714 L42.9088007,12.7719142 C42.7962241,12.0401667 42.1665998,11.5 41.4262431,11.5 L4.57375687,11.5 Z" stroke="#979797" stroke-width="3" fill="#D8D8D8"/><rect fill="#979797" x="12" y="28" width="4" height="20" rx="2"/><rect fill="#979797" x="21" y="28" width="4" height="20" rx="2"/><rect fill="#979797" x="30" y="28" width="4" height="20" rx="2"/></g></g></svg>