<svg width="71px" height="59px" viewBox="0 0 71 59" xmlns="http://www.w3.org/2000/svg" cl-svg="1535245509125"><defs><path d="M0,4.99767164 C0,2.23753381 2.2303666,0 5.00443555,0 L24.9955644,0 C27.7594379,0 30,2.23924844 30,4.99767164 L30,26 L0,26 L0,4.99767164 Z" id="icon-add-folder-path-1"/><path d="M53.0047535,5 C55.763552,5 58,7.23520515 58,10.0069123 L58,40.9930877 C58,43.758329 55.76187,46 53.0047535,46 L4.99524651,46 C2.23644804,46 0,43.7647948 0,40.9930877 L0,11 L23.1801948,11 L29.1801948,5 L53.0047535,5 Z" id="icon-add-folder-path-2"/></defs><g stroke="none" stroke-width="1" fill="none" fill-rule="evenodd"><g><g stroke-linejoin="square"><path stroke-opacity="0.646993886" stroke="#FFFFFF" stroke-width="6" d="M3,23 L27,23 L27,4.99767164 C27,3.89626013 26.1027395,3 24.9955644,3 L5.00443555,3 C3.89077953,3 3,3.89082918 3,4.99767164 L3,23 Z" fill="#FFC137" fill-rule="evenodd"/><path stroke="#DAAA0A" stroke-width="3" d="M1.5,24.5 L28.5,24.5 L28.5,4.99767164 C28.5,3.06745819 26.9307923,1.5 24.9955644,1.5 L5.00443555,1.5 C3.06233369,1.5 1.5,3.06242078 1.5,4.99767164 L1.5,24.5 Z"/></g><g stroke-linejoin="square"><path stroke-opacity="0.646993886" stroke="#FFFFFF" stroke-width="6" d="M30.4228355,8 L24.4228355,14 L3,14 L3,40.9930877 C3,42.1066739 3.89204039,43 4.99524651,43 L53.0047535,43 C54.1041847,43 55,42.1023014 55,40.9930877 L55,10.0069123 C55,8.89332606 54.1079596,8 53.0047535,8 L30.4228355,8 Z" fill="#FFDD3B" fill-rule="evenodd"/><path stroke="#DAAA0A" stroke-width="3" d="M29.8015152,6.5 L23.8015152,12.5 L1.5,12.5 L1.5,40.9930877 C1.5,42.9346178 3.06312927,44.5 4.99524651,44.5 L53.0047535,44.5 C54.9333178,44.5 56.5,42.9300242 56.5,40.9930877 L56.5,10.0069123 C56.5,8.06538216 54.9368707,6.5 53.0047535,6.5 L29.8015152,6.5 Z"/></g><path d="M56.5588235,16.5 L41.4411765,16.5 L41.4411765,29.4411765 L28.5,29.4411765 L28.5,44.5588235 L41.4411765,44.5588235 L41.4411765,57.5 L56.5588235,57.5 L56.5588235,44.5588235 L69.5,44.5588235 L69.5,29.4411765 L56.5588235,29.4411765 L56.5588235,16.5 Z" stroke="#213E00" stroke-width="3" fill="#7ED321"/></g></g></svg>