<svg xmlns="http://www.w3.org/2000/svg" width="93" height="86" viewBox="0 0 93 86" cl-svg="1536378271408"><g style="isolation: isolate"><g><path d="M445.52,867.51H404.45a2,2,0,1,1,0-4h41.07A2,2,0,1,1,445.52,867.51Z" transform="translate(-377.45 -781.51)" style="fill: #5e125c"/><rect x="38" y="63.46" width="19" height="20.54" style="fill: #995d91"/><path d="M436.45,867.51h-23v-25h23v25Zm-19-4h15v-17h-15v17Z" transform="translate(-377.45 -781.51)" style="fill: #5e125c"/><path d="M456.31,848.36l-64.72.15c-12.14,0-12.14-.83-12.14-12.14V783.66l89-.15v52.71C468.45,848.18,469.95,848.36,456.31,848.36Z" transform="translate(-377.45 -781.51)" style="fill: #ffc963"/><path d="M379.45,815a2,2,0,0,1-2-2v-2.5a2,2,0,0,1,4,0V813A2,2,0,0,1,379.45,815Z" transform="translate(-377.45 -781.51)" style="fill: #5e125c"/><path d="M468.3,850.51H377.45v-29a2,2,0,0,1,4,0v25h85v-53a2,2,0,0,1,4,0v54.85A2.15,2.15,0,0,1,468.3,850.51Z" transform="translate(-377.45 -781.51)" style="fill: #5e125c"/><path d="M379.45,802.51a2,2,0,0,1-2-2v-19h91a2,2,0,0,1,0,4h-87v15A2,2,0,0,1,379.45,802.51Z" transform="translate(-377.45 -781.51)" style="fill: #5e125c"/><path d="M468.71,785.51H379.19a2,2,0,0,1,0-4h89.52A2,2,0,0,1,468.71,785.51Z" transform="translate(-377.45 -781.51)" style="fill: #5e125c"/><path d="M468.71,850.51H379.19a2,2,0,0,1,0-4h89.52A2,2,0,0,1,468.71,850.51Z" transform="translate(-377.45 -781.51)" style="fill: #5e125c"/><path d="M379.48,816.51h0a2,2,0,0,1-2-2v-7a2,2,0,0,1,2-2h0a2,2,0,0,1,2,2v7A2,2,0,0,1,379.48,816.51Z" transform="translate(-377.45 -781.51)" style="fill: #5e125c"/><rect x="12" y="10" width="69" height="47" style="fill: #fff"/><rect x="10" y="53" width="73" height="6" style="fill: #edf1f7"/><path d="M462.45,842.51h-77v-54h77v54Zm-73-4h69v-46h-69v46Z" transform="translate(-377.45 -781.51)" style="fill: #5e125c"/><rect x="24" y="27" width="13" height="22" style="fill: #abcf79"/><rect x="40" y="20" width="13" height="29" style="fill: #77caf7"/><rect x="56" y="40" width="13" height="9" style="fill: #e2696c"/><rect x="40" y="69" width="15" height="6" style="fill: #995d91;opacity: 0.41000000000000003;mix-blend-mode: multiply"/></g></g></svg>