<svg width="75px" height="72px" viewBox="0 0 75 72" xmlns="http://www.w3.org/2000/svg" cl-svg="1556200101841"><g stroke="none" stroke-width="1" fill="none" fill-rule="evenodd"><g transform="translate(-1997.000000, -560.000000)" fill="#ffffff"><path d="M2034.25,631.98 C2023.64,631.98 2013.51,627.422 2006.47,619.475 C2005.02,617.83 2005.17,615.317 2006.81,613.862 C2008.45,612.403 2010.97,612.556 2012.42,614.201 C2017.96,620.447 2025.91,624.029 2034.25,624.029 C2050.33,624.029 2063.41,610.951 2063.41,594.876 C2063.41,592.681 2065.18,590.901 2067.38,590.901 C2069.58,590.901 2071.36,592.681 2071.36,594.876 C2071.36,615.336 2054.71,631.98 2034.25,631.98"/><path d="M2006.35,629.115 C2006.21,629.115 2006.06,629.107 2005.92,629.092 C2003.73,628.853 2002.16,626.89 2002.4,624.706 L2003.75,612.356 C2003.86,611.309 2004.39,610.35 2005.21,609.69 C2006.03,609.03 2007.08,608.728 2008.13,608.837 L2020.48,610.19 C2022.66,610.429 2024.24,612.392 2024,614.575 C2023.76,616.757 2021.79,618.325 2019.62,618.094 L2011.22,617.175 L2010.3,625.573 C2010.08,627.607 2008.35,629.115 2006.35,629.115"/><path d="M2001.58,601.719 C1999.38,601.719 1997.6,599.939 1997.6,597.743 C1997.6,577.284 2014.25,560.638 2034.71,560.638 C2045.32,560.638 2055.44,565.197 2062.49,573.145 C2063.94,574.788 2063.79,577.301 2062.15,578.757 C2060.5,580.214 2057.99,580.06 2056.54,578.419 C2051,572.171 2043.04,568.589 2034.71,568.589 C2018.63,568.589 2005.55,581.667 2005.55,597.743 C2005.55,599.939 2003.77,601.719 2001.58,601.719"/><path d="M2061.26,583.804 C2061.12,583.804 2060.97,583.796 2060.83,583.781 L2048.48,582.43 C2046.29,582.191 2044.72,580.228 2044.96,578.046 C2045.19,575.863 2047.15,574.294 2049.34,574.526 L2057.74,575.445 L2058.66,567.047 C2058.9,564.865 2060.86,563.287 2063.04,563.528 C2065.23,563.767 2066.8,565.73 2066.56,567.913 L2065.21,580.262 C2064.99,582.296 2063.26,583.804 2061.26,583.804"/></g></g></svg>