<svg width="45px" height="54px" viewBox="0 0 45 54" xmlns="http://www.w3.org/2000/svg" cl-svg="1534703572905"><defs/><g stroke="none" stroke-width="1" fill="none" fill-rule="evenodd"><g fill="#24C8FF"><polygon opacity="0.25" points="0 3.55271368e-15 0 54 45 54 45 16 29 0"/><path d="M4,4 L4,50 L41,50 L41,17.6568542 L27.3431458,4 L4,4 Z M0,0 L29,0 L45,16 L45,54 L0,54 L0,0 Z" fill-rule="nonzero"/><path d="M13,20 L13,42 L32,42 L32,20 L13,20 Z M10,17 L35,17 L35,45 L10,45 L10,17 Z" fill-rule="nonzero"/><path d="M31,32.3747024 L31,41 L14,41 L14,36.3755794 L20.5800781,32.8896484 L25.3574219,35.0532227 L31,32.3747024 Z"/><circle cx="27" cy="27" r="4"/></g></g></svg>