<svg width="93px" height="94px" viewBox="0 0 93 94" xmlns="http://www.w3.org/2000/svg" cl-svg="1537569172703"><defs/><g stroke="none" stroke-width="1" fill="none" fill-rule="evenodd"><g fill-rule="nonzero"><path d="M11.79,30.48 C11.79,24.48 8.11,24.66 13.86,24.66 L81.34,24.6594233 L81.34,89.3 C81.34,89.8522847 80.8922847,90.3 80.34,90.3 L13.76,90.3 C7.82,90.3 11.76,89.61 11.76,84.48 L11.76,30.48 L11.79,30.48 Z" fill="#D0DDEA"/><path d="M77.28,94 L15.84,94 C11.5786458,93.9944908 8.12550919,90.5413542 8.12,86.28 L8.12,70.38 C8.12,69.2754305 9.0154305,68.38 10.12,68.38 C11.2245695,68.38 12.12,69.2754305 12.12,70.38 L12.12,86.28 C12.12,87.2666053 12.5119274,88.2128019 13.2095628,88.9104372 C13.9071981,89.6080726 14.8533947,90 15.84,90 L77.28,90 C79.3344993,90 81,88.3344993 81,86.28 L81,28.72 C81,27.7333947 80.6080726,26.7871981 79.9104372,26.0895628 C79.2128019,25.3919274 78.2666053,25 77.28,25 L15.94,25 C13.8687156,24.9992902 12.174222,26.6494253 12.12,28.72 L12.12,50.44 C12.12,51.5445695 11.2245695,52.44 10.12,52.44 C9.0154305,52.44 8.12,51.5445695 8.12,50.44 L8.12,28.72 C8.15302053,24.4310297 11.65096,20.977821 15.94,21 L77.28,21 C81.5413542,21.0055092 84.9944908,24.4586458 85,28.72 L85,86.29 C84.9889881,90.5474484 81.5374591,93.9945065 77.28,94 Z" fill="#343434"/><path d="M4.12,11 C4.12,3.83 3.31,4 10.22,4 L89,3.99965156 L89,81.78 C89,82.4703559 88.4403559,83.03 87.75,83.03 L10.11,83.03 C2.96,83.03 4.11,82.2 4.11,76.03 L4.11,11.03 L4.12,11 Z" fill="#F8F9FB"/><path d="M2.12,53 C1.0154305,53 0.12,52.1045695 0.12,51 L0.12,42 C0.12,40.8954305 1.0154305,40 2.12,40 C3.2245695,40 4.12,40.8954305 4.12,42 L4.12,51 C4.12,52.1045695 3.2245695,53 2.12,53 Z" fill="#343434"/><path d="M10.51,1 L81.51,1 C86.7544158,1.01102929 91.0000116,5.26557261 91,10.51 L91,18 L1,18 L1,10.51 C1,5.25777203 5.25777203,1 10.51,1 Z" fill="#ABCF79"/><path d="M84.12,87 L9,87 C4.09799596,86.994489 0.125510971,83.022004 0.12,78.12 L0.12,59 C0.12,57.8954305 1.0154305,57 2.12,57 C3.2245695,57 4.12,57.8954305 4.12,59 L4.12,78.12 C4.12,80.8151496 6.30485042,83 9,83 L84.12,83 C86.8151496,83 89,80.8151496 89,78.12 L89,8.88 C89,6.18485042 86.8151496,4 84.12,4 L9.12,4 C6.40476837,3.9992179 4.18516545,6.16555036 4.12,8.88 L4.12,35 C4.12,36.1045695 3.2245695,37 2.12,37 C1.0154305,37 0.12,36.1045695 0.12,35 L0.12,8.88 C0.185654307,3.95636323 4.19592554,-0.000437714705 9.12,0 L84.12,0 C89.022004,0.00551097098 92.994489,3.97799596 93,8.88 L93,78.12 C92.994489,83.022004 89.022004,86.994489 84.12,87 Z" fill="#343434"/><path d="M81,20 L2,20 C0.8954305,20 0,19.1045695 0,18 C0,16.8954305 0.8954305,16 2,16 L81,16 C82.1045695,16 83,16.8954305 83,18 C83,19.1045695 82.1045695,20 81,20 Z" fill="#343434"/><path d="M12,13 C10.3431458,13 9,11.6568542 9,10 C9,8.34314575 10.3431458,7 12,7 C13.6568542,7 15,8.34314575 15,10 C15,11.6568542 13.6568542,13 12,13 Z M12,9 C11.4477153,9 11,9.44771525 11,10 C11,10.5522847 11.4477153,11 12,11 C12.5522847,11 13,10.5522847 13,10 C13,9.44771525 12.5522847,9 12,9 Z" fill="#343434"/><path d="M21,13 C19.3431458,13 18,11.6568542 18,10 C18,8.34314575 19.3431458,7 21,7 C22.6568542,7 24,8.34314575 24,10 C24,11.6568542 22.6568542,13 21,13 Z M21,9 C20.4477153,9 20,9.44771525 20,10 C20,10.5522847 20.4477153,11 21,11 C21.5522847,11 22,10.5522847 22,10 C22,9.44771525 21.5522847,9 21,9 Z" fill="#343434"/><path d="M30,13 C28.3431458,13 27,11.6568542 27,10 C27,8.34314575 28.3431458,7 30,7 C31.6568542,7 33,8.34314575 33,10 C33,11.6568542 31.6568542,13 30,13 Z M30,9 C29.4477153,9 29,9.44771525 29,10 C29,10.5522847 29.4477153,11 30,11 C30.5522847,11 31,10.5522847 31,10 C31,9.44771525 30.5522847,9 30,9 Z" fill="#343434"/><path d="M29.09,64 C28.5604232,63.9977672 28.0533503,63.7855878 27.68,63.41 L19.68,55.41 C17.4780925,53.1978705 17.4780925,49.6221295 19.68,47.41 L27.68,39.41 C28.4614829,38.6285171 29.7285171,38.6285171 30.51,39.41 C31.2914829,40.1914829 31.2914829,41.4585171 30.51,42.24 L22.51,50.24 C21.8656102,50.8908105 21.8656102,51.9391895 22.51,52.59 L30.51,60.59 C31.0797322,61.1631318 31.2485641,62.0228156 30.9379,62.7688469 C30.627236,63.5148782 29.8981302,64.0006409 29.09,64 Z" fill="#595959"/><path d="M64,64 C63.1936886,63.9966146 62.4682697,63.5093742 62.1601654,62.7642425 C61.8520611,62.0191108 62.0215384,61.1618399 62.59,60.59 L70.59,52.59 C71.2343898,51.9391895 71.2343898,50.8908105 70.59,50.24 L62.59,42.24 C61.8085171,41.4585171 61.8085171,40.1914829 62.59,39.41 C63.3714829,38.6285171 64.6385171,38.6285171 65.42,39.41 L73.42,47.41 C75.6219075,49.6221295 75.6219075,53.1978705 73.42,55.41 L65.42,63.41 C65.0442036,63.7880394 64.5330446,64.0004224 64,64 Z" fill="#595959"/><path d="M39,71.04 C38.3321798,71.0380534 37.709395,70.702911 37.3398808,70.1466315 C36.9703666,69.5903521 36.9028853,68.8863437 37.16,68.27 L51.16,34.77 C51.604655,33.7825224 52.754512,33.3283603 53.7539386,33.7454652 C54.7533653,34.1625701 55.2392341,35.2993928 54.85,36.31 L40.85,69.81 C40.5386846,70.5562858 39.8086142,71.041684 39,71.04 Z" fill="#595959"/></g></g></svg>