<svg width="52px" height="76px" viewBox="0 0 52 76" xmlns="http://www.w3.org/2000/svg" cl-svg="1556200047456"><g stroke="none" stroke-width="1" fill="none" fill-rule="evenodd"><g transform="translate(-2584.000000, -376.000000)" fill="#ffffff"><path d="M2596.98,384.662 C2594.56,384.662 2592.59,386.631 2592.59,389.051 L2592.59,439.508 C2592.59,441.928 2594.56,443.897 2596.98,443.897 L2623.51,443.897 C2625.93,443.897 2627.89,441.928 2627.89,439.508 L2627.89,389.051 C2627.89,386.631 2625.93,384.662 2623.51,384.662 L2596.98,384.662 Z M2623.51,451.848 L2596.98,451.848 C2590.17,451.848 2584.64,446.311 2584.64,439.508 L2584.64,389.051 C2584.64,382.248 2590.17,376.711 2596.98,376.711 L2623.51,376.711 C2630.31,376.711 2635.84,382.248 2635.84,389.051 L2635.84,439.508 C2635.84,446.311 2630.31,451.848 2623.51,451.848 Z"/><path d="M2610.24,430.678 C2608.62,430.678 2607.31,431.994 2607.31,433.61 C2607.31,435.227 2608.62,436.542 2610.24,436.542 C2611.86,436.542 2613.17,435.227 2613.17,433.61 C2613.17,431.994 2611.86,430.678 2610.24,430.678 Z M2610.24,438.629 C2607.47,438.629 2605.22,436.377 2605.22,433.61 C2605.22,430.843 2607.47,428.591 2610.24,428.591 C2613.01,428.591 2615.26,430.843 2615.26,433.61 C2615.26,436.377 2613.01,438.629 2610.24,438.629 Z"/><path d="M2614.99,395.117 L2603.86,395.117 C2601.66,395.117 2599.89,393.313 2599.89,391.117 C2599.89,388.922 2601.66,387.117 2603.86,387.117 L2614.99,387.117 C2617.19,387.117 2618.97,388.922 2618.97,391.117 C2618.97,393.313 2617.19,395.117 2614.99,395.117"/></g></g></svg>