<svg width="58px" height="46px" viewBox="0 0 58 46" xmlns="http://www.w3.org/2000/svg" cl-svg="1533129460217"><defs><linearGradient x1="50%" y1="95.5835459%" x2="50%" y2="0%" id="icon-folder-linearGradient-1"><stop stop-color="#FFC029" offset="0%"/><stop stop-color="#FFC22B" offset="100%"/></linearGradient><path d="M0,4.99767164 C0,2.23753381 2.2303666,0 5.00443555,0 L24.9955644,0 C27.7594379,0 30,2.23924844 30,4.99767164 L30,26 L0,26 L0,4.99767164 Z" id="icon-folder-path-2"/><linearGradient x1="50%" y1="0%" x2="50%" y2="100%" id="icon-folder-linearGradient-3"><stop stop-color="#FFD93A" offset="0%"/><stop stop-color="#FFC029" offset="100%"/></linearGradient><path d="M53.0047535,5 C55.763552,5 58,7.23520515 58,10.0069123 L58,40.9930877 C58,43.758329 55.76187,46 53.0047535,46 L4.99524651,46 C2.23644804,46 0,43.7647948 0,40.9930877 L0,11 L23.1801948,11 L29.1801948,5 L53.0047535,5 Z" id="icon-folder-path-4"/></defs><g stroke="none" stroke-width="1" fill="none" fill-rule="evenodd"><g><g><use fill="url(#icon-folder-linearGradient-1)" fill-rule="evenodd" href="#icon-folder-path-2"/><path stroke-opacity="0.646993886" stroke="#FFFFFF" stroke-width="6" d="M27,23 L3,23 L3,4.99767164 C3,3.89082918 3.89077953,3 5.00443555,3 L24.9955644,3 C26.1027395,3 27,3.89626013 27,4.99767164 L27,23 Z"/><path stroke="#DAAA0A" stroke-width="3" d="M28.5,24.5 L1.5,24.5 L1.5,4.99767164 C1.5,3.06242078 3.06233369,1.5 5.00443555,1.5 L24.9955644,1.5 C26.9307923,1.5 28.5,3.06745819 28.5,4.99767164 L28.5,24.5 Z"/></g><g><use fill="url(#icon-folder-linearGradient-3)" fill-rule="evenodd" href="#icon-folder-path-4"/><path stroke-opacity="0.646993886" stroke="#FFFFFF" stroke-width="6" d="M3,14 L23.1801948,14 L24.4228355,14 L25.3015152,13.1213203 L30.4228355,8 L53.0047535,8 C54.1079596,8 55,8.89332606 55,10.0069123 L55,40.9930877 C55,42.1023014 54.1041847,43 53.0047535,43 L4.99524651,43 C3.89204039,43 3,42.1066739 3,40.9930877 L3,14 Z"/><path stroke="#DAAA0A" stroke-width="3" d="M1.5,12.5 L23.1801948,12.5 L23.8015152,12.5 L24.240855,12.0606602 L29.8015152,6.5 L53.0047535,6.5 C54.9368707,6.5 56.5,8.06538216 56.5,10.0069123 L56.5,40.9930877 C56.5,42.9300242 54.9333178,44.5 53.0047535,44.5 L4.99524651,44.5 C3.06312927,44.5 1.5,42.9346178 1.5,40.9930877 L1.5,12.5 Z"/></g></g></g></svg>