<svg width="95px" height="86px" viewBox="0 0 95 86" xmlns="http://www.w3.org/2000/svg" cl-svg="1537584736983"><defs/><g stroke="none" stroke-width="1" fill="none" fill-rule="evenodd"><g fill-rule="nonzero"><path d="M69.07,86 L28,86 C26.8954305,86 26,85.1045695 26,84 C26,82.8954305 26.8954305,82 28,82 L69.07,82 C70.1745695,82 71.07,82.8954305 71.07,84 C71.07,85.1045695 70.1745695,86 69.07,86 Z" fill="#343434"/><rect fill="#AAB1B9" x="39" y="63.46" width="19" height="20.54"/><path d="M60,86 L37,86 L37,61 L60,61 L60,86 Z M41,82 L56,82 L56,65 L41,65 L41,82 Z" fill="#343434"/><path d="M79.86,66.85 L15.14,67 C3,67 3,66.17 3,54.86 L3,2.15 L92,2 L92,54.71 C92,66.67 93.5,66.85 79.86,66.85 Z" fill="#D4DBE2"/><path d="M3,33.49 C1.8954305,33.49 1,32.5945695 1,31.49 L1,28.99 C1,27.8854305 1.8954305,26.99 3,26.99 C4.1045695,26.99 5,27.8854305 5,28.99 L5,31.49 C5,32.5945695 4.1045695,33.49 3,33.49 Z" fill="#5E125C"/><path d="M91.85,69 L1,69 L1,40 C1,38.8954305 1.8954305,38 3,38 C4.1045695,38 5,38.8954305 5,40 L5,65 L90,65 L90,12 C90,10.8954305 90.8954305,10 92,10 C93.1045695,10 94,10.8954305 94,12 L94,66.85 C94,68.0374122 93.0374122,69 91.85,69 Z" fill="#343434"/><path d="M3,21 C1.8954305,21 1,20.1045695 1,19 L1,0 L92,0 C93.1045695,0 94,0.8954305 94,2 C94,3.1045695 93.1045695,4 92,4 L5,4 L5,19 C5,20.1045695 4.1045695,21 3,21 Z" fill="#343434"/><path d="M92.26,4 L2.74,4 C1.6354305,4 0.74,3.1045695 0.74,2 C0.74,0.8954305 1.6354305,0 2.74,0 L92.26,0 C93.3645695,0 94.26,0.8954305 94.26,2 C94.26,3.1045695 93.3645695,4 92.26,4 Z" fill="#343434"/><path d="M92.26,69 L2.74,69 C1.6354305,69 0.74,68.1045695 0.74,67 C0.74,65.8954305 1.6354305,65 2.74,65 L92.26,65 C93.3645695,65 94.26,65.8954305 94.26,67 C94.26,68.1045695 93.3645695,69 92.26,69 Z" fill="#343434"/><path d="M3.03,35 C1.9254305,35 1.03,34.1045695 1.03,33 L1.03,26 C1.03,24.8954305 1.9254305,24 3.03,24 C4.1345695,24 5.03,24.8954305 5.03,26 L5.03,33 C5.03,34.1045695 4.1345695,35 3.03,35 Z" fill="#343434"/><rect fill="#FFFFFF" x="13" y="10" width="69" height="47"/><rect fill="#EDF1F7" x="11" y="53" width="73" height="6"/><path d="M86,61 L9,61 L9,7 L86,7 L86,61 Z M13,57 L82,57 L82,11 L13,11 L13,57 Z" fill="#595959"/><rect fill="#ABCF79" x="18" y="17" width="45" height="7.67" rx="3.83"/><rect fill="#5A646F" opacity="0.41" style="mix-blend-mode: multiply;" x="41" y="69" width="15" height="6"/><rect fill="#77CAF7" x="18" y="29" width="20.73" height="7.67" rx="3.83"/><rect fill="#ABCF79" x="41" y="29" width="27.74" height="7.67" rx="3.83"/><rect fill="#E2696C" x="18" y="41" width="31.74" height="7.67" rx="3.83"/><rect fill="#77CAF7" x="53" y="41" width="9" height="7.67" rx="3.83"/><rect fill="#E2696C" x="66" y="17" width="9" height="7.67" rx="3.83"/></g></g></svg>