<svg width="121px" height="93px" viewBox="0 0 121 93" xmlns="http://www.w3.org/2000/svg" cl-svg="1536432303445"><defs><rect id="icon-project-game-path-1" x="54" y="42" width="12" height="17" rx="3"/><filter x="-4.2%" y="-2.9%" width="108.3%" height="105.9%" filterUnits="objectBoundingBox" id="icon-project-game-filter-2"><feOffset dx="0" dy="1" in="SourceAlpha" result="shadowOffsetInner1"/><feComposite in="shadowOffsetInner1" in2="SourceAlpha" operator="arithmetic" k2="-1" k3="1" result="shadowInnerInner1"/><feColorMatrix values="0 0 0 0 1 0 0 0 0 1 0 0 0 0 1 0 0 0 0.351845562 0" type="matrix" in="shadowInnerInner1"/></filter></defs><g stroke="none" stroke-width="1" fill="none" fill-rule="evenodd"><g transform="translate(1.000000, 3.000000)"><path d="M61.9835697,64.3731884 L57.0164303,64.3731884 L56.9540626,64.75 L2.04593744,64.75 L1.80358511,63.2857623 C1.43646105,61.0676822 1.25,58.7980057 1.25,56.5 C1.25,39.2711336 16.9376484,23.3962955 32.8805213,22.3052734 L32.9982435,22.3011909 L84.0199431,22.2501136 C84.1005135,22.2510319 84.1685373,22.2510319 84.3264603,22.2504337 C84.4109851,22.2501126 84.4109851,22.2501126 84.5,22.25 C101.045141,22.25 117.75,38.5011101 117.75,56.5 C117.75,58.7980057 117.563539,61.0676822 117.196415,63.2857623 L116.954063,64.75 L62.0459374,64.75 L61.9835697,64.3731884 Z" stroke="#5E125C" stroke-width="3.5" fill="#B4B4B4"/><path d="M2.42565535,72.9842882 C0.921905481,69.6222721 0.0873438435,63.9067583 0.0873438435,60 C0.0873438435,45.4089963 11.7284879,33.4856268 26.3954536,32.6826606 L90.5872414,32.6395658 C90.7622395,32.6411614 90.9376317,32.6395658 91.1134036,32.6395658 C106.514746,32.6395658 119,44.8892495 119,60 C119,75.1107505 106.514746,89.3604342 91.1134036,89.3604342 C77.5464201,89.3604342 66.2422566,79.8549478 63.7419763,67.261622 L55.3453675,67.261622 C52.8450872,79.8549478 41.5409237,89.3604342 27.9739402,89.3604342 C25.8979322,89.3604342 23.8749078,89.1378646 21.9283031,88.7157193 C19.1255003,88.107897 16.4811267,87.0863255 14.0651389,85.7196418 C12.3435888,84.7457898 10.7380016,83.596707 9.27368804,82.2972267 C8.0515331,81.2126459 5.76885553,78.1083331 2.42565535,72.9842882 Z" fill="#5E125C" fill-rule="nonzero"/><path d="M90.025641,36 C90.1855417,36.0014579 90.3458025,36 90.5064103,36 C104.579051,36 115.987179,47.1928813 115.987179,61 C115.987179,74.8071187 104.579051,86 90.5064103,86 C78.109875,86 67.7809421,76.3145692 65.4963655,64.8076923 L53.490814,64.8076923 C51.2062374,76.3145692 40.8773045,86 28.4807692,86 C14.408129,86 3,74.8071187 3,61 C3,47.6677886 13.6368415,36.7730697 27.0384615,36.0393769 L90.025641,36 Z" fill="#D8D8D8"/><ellipse fill="#E9E9E9" cx="28.5" cy="62" rx="20.5" ry="20"/><ellipse fill="#E9E9E9" cx="90" cy="62.5" rx="21" ry="20.5"/><circle stroke="#5E125C" stroke-width="3" fill="#F5A623" cx="90" cy="51" r="5.5"/><circle stroke="#5E125C" stroke-width="3" fill="#D0021B" cx="90" cy="73" r="5.5"/><circle stroke="#5E125C" stroke-width="3" fill="#7ED321" cx="101" cy="62" r="5.5"/><circle stroke="#5E125C" stroke-width="3" fill="#4A90E2" cx="79" cy="62" r="5.5"/><path d="M34.0108696,55.9891304 L39,55.9891304 C40.9329966,55.9891304 42.5,57.5561338 42.5,59.4891304 L42.5,64.0108696 C42.5,65.9438662 40.9329966,67.5108696 39,67.5108696 L34.0108696,67.5108696 L34.0108696,72.5 C34.0108696,74.4329966 32.4438662,76 30.5108696,76 L25.9891304,76 C24.0561338,76 22.4891304,74.4329966 22.4891304,72.5 L22.4891304,67.5108696 L17.5,67.5108696 C15.5670034,67.5108696 14,65.9438662 14,64.0108696 L14,59.4891304 C14,57.5561338 15.5670034,55.9891304 17.5,55.9891304 L22.4891304,55.9891304 L22.4891304,51 C22.4891304,49.0670034 24.0561338,47.5 25.9891304,47.5 L30.5108696,47.5 C32.4438662,47.5 34.0108696,49.0670034 34.0108696,51 L34.0108696,55.9891304 Z" stroke="#5E125C" stroke-width="3" fill="#606060"/><g opacity="0.206138393"><use fill="#353535" fill-rule="evenodd" href="#icon-project-game-path-1"/><use fill="black" fill-opacity="1" filter="url(#filter-2)" href="#icon-project-game-path-1"/></g><path d="M60.1435096,27.4101563 C59.2444074,17.9772514 62.5700311,13.2607989 70.1203809,13.2607989 C77.6707306,13.2607989 80.5127754,8.84053263 78.6465153,0" stroke="#5E125C" stroke-width="6" stroke-linecap="round"/></g></g></svg>