<svg width="121px" height="95px" viewBox="0 0 121 95" xmlns="http://www.w3.org/2000/svg" cl-svg="1536378397120"><defs><path d="M2.22204439,72.4381199 C0.793064995,69.2432723 0,65.7125038 0,62 C0,48.1345001 11.0623152,36.8039925 25,36.040952 L86,36 C86.1662967,36.0015162 86.3329679,36 86.5,36 C101.135546,36 113,47.6405965 113,62 C113,76.3594035 101.135546,88 86.5,88 C73.6076033,88 62.8655131,78.9671519 60.4895534,67 L52.5104466,67 C50.1344869,78.9671519 39.3923967,88 26.5,88 C24.5272167,88 22.6047825,87.7884972 20.7549682,87.3873421 C18.0915283,86.8097424 15.57864,85.8389662 13.2827816,84.5402376 C11.6468316,83.6148081 10.1210785,82.5228608 8.72957453,81.2879941" id="icon-project-game-path-1"/><mask id="icon-project-game-mask-2" maskContentUnits="userSpaceOnUse" maskUnits="objectBoundingBox" x="-3.5" y="-3.5" width="120" height="59"><rect x="-3.5" y="32.5" width="120" height="59" fill="white"/><use href="#icon-project-game-path-1" fill="black"/></mask><circle id="icon-project-game-path-3" cx="87" cy="51" r="4"/><filter x="-50.0%" y="-50.0%" width="200.0%" height="200.0%" filterUnits="objectBoundingBox" id="icon-project-game-filter-4"><feMorphology radius="1" operator="erode" in="SourceAlpha" result="shadowSpreadInner1"/><feOffset dx="0" dy="1" in="shadowSpreadInner1" result="shadowOffsetInner1"/><feComposite in="shadowOffsetInner1" in2="SourceAlpha" operator="arithmetic" k2="-1" k3="1" result="shadowInnerInner1"/><feColorMatrix values="0 0 0 0 1 0 0 0 0 1 0 0 0 0 1 0 0 0 0.5 0" type="matrix" in="shadowInnerInner1"/></filter><circle id="icon-project-game-path-5" cx="87" cy="73" r="4"/><filter x="-50.0%" y="-50.0%" width="200.0%" height="200.0%" filterUnits="objectBoundingBox" id="icon-project-game-filter-6"><feMorphology radius="1" operator="erode" in="SourceAlpha" result="shadowSpreadInner1"/><feOffset dx="0" dy="1" in="shadowSpreadInner1" result="shadowOffsetInner1"/><feComposite in="shadowOffsetInner1" in2="SourceAlpha" operator="arithmetic" k2="-1" k3="1" result="shadowInnerInner1"/><feColorMatrix values="0 0 0 0 1 0 0 0 0 1 0 0 0 0 1 0 0 0 0.5 0" type="matrix" in="shadowInnerInner1"/></filter><circle id="icon-project-game-path-7" cx="98" cy="62" r="4"/><filter x="-50.0%" y="-50.0%" width="200.0%" height="200.0%" filterUnits="objectBoundingBox" id="icon-project-game-filter-8"><feMorphology radius="1" operator="erode" in="SourceAlpha" result="shadowSpreadInner1"/><feOffset dx="0" dy="1" in="shadowSpreadInner1" result="shadowOffsetInner1"/><feComposite in="shadowOffsetInner1" in2="SourceAlpha" operator="arithmetic" k2="-1" k3="1" result="shadowInnerInner1"/><feColorMatrix values="0 0 0 0 1 0 0 0 0 1 0 0 0 0 1 0 0 0 0.5 0" type="matrix" in="shadowInnerInner1"/></filter><circle id="icon-project-game-path-9" cx="76" cy="62" r="4"/><filter x="-50.0%" y="-50.0%" width="200.0%" height="200.0%" filterUnits="objectBoundingBox" id="icon-project-game-filter-10"><feMorphology radius="1" operator="erode" in="SourceAlpha" result="shadowSpreadInner1"/><feOffset dx="0" dy="1" in="shadowSpreadInner1" result="shadowOffsetInner1"/><feComposite in="shadowOffsetInner1" in2="SourceAlpha" operator="arithmetic" k2="-1" k3="1" result="shadowInnerInner1"/><feColorMatrix values="0 0 0 0 1 0 0 0 0 1 0 0 0 0 1 0 0 0 0.5 0" type="matrix" in="shadowInnerInner1"/></filter><path d="M31.5108696,56.4891304 L38,56.4891304 C39.1045695,56.4891304 40,57.3845609 40,58.4891304 L40,63.0108696 C40,64.1154391 39.1045695,65.0108696 38,65.0108696 L31.5108696,65.0108696 L31.5108696,71.5 C31.5108696,72.6045695 30.6154391,73.5 29.5108696,73.5 L24.9891304,73.5 C23.8845609,73.5 22.9891304,72.6045695 22.9891304,71.5 L22.9891304,65.0108696 L16.5,65.0108696 C15.3954305,65.0108696 14.5,64.1154391 14.5,63.0108696 L14.5,58.4891304 C14.5,57.3845609 15.3954305,56.4891304 16.5,56.4891304 L22.9891304,56.4891304 L22.9891304,50 C22.9891304,48.8954305 23.8845609,48 24.9891304,48 L29.5108696,48 C30.6154391,48 31.5108696,48.8954305 31.5108696,50 L31.5108696,56.4891304 Z" id="icon-project-game-path-11"/><filter x="-16.3%" y="-15.7%" width="132.7%" height="131.4%" filterUnits="objectBoundingBox" id="icon-project-game-filter-12"><feMorphology radius="1" operator="erode" in="SourceAlpha" result="shadowSpreadInner1"/><feOffset dx="0" dy="1" in="shadowSpreadInner1" result="shadowOffsetInner1"/><feComposite in="shadowOffsetInner1" in2="SourceAlpha" operator="arithmetic" k2="-1" k3="1" result="shadowInnerInner1"/><feColorMatrix values="0 0 0 0 1 0 0 0 0 1 0 0 0 0 1 0 0 0 0.340268342 0" type="matrix" in="shadowInnerInner1"/></filter><rect id="icon-project-game-path-13" x="51" y="45" width="12" height="15" rx="3"/><filter x="-4.2%" y="-3.3%" width="108.3%" height="106.7%" filterUnits="objectBoundingBox" id="icon-project-game-filter-14"><feOffset dx="0" dy="1" in="SourceAlpha" result="shadowOffsetInner1"/><feComposite in="shadowOffsetInner1" in2="SourceAlpha" operator="arithmetic" k2="-1" k3="1" result="shadowInnerInner1"/><feColorMatrix values="0 0 0 0 1 0 0 0 0 1 0 0 0 0 1 0 0 0 0.351845562 0" type="matrix" in="shadowInnerInner1"/></filter></defs><g stroke="none" stroke-width="1" fill="none" fill-rule="evenodd"><g transform="translate(4.000000, 3.000000)"><path d="M58.9835697,64.3731884 L54.0164303,64.3731884 L53.9540626,64.75 L-0.954062555,64.75 L-1.19641489,63.2857623 C-1.56353895,61.0676822 -1.75,58.7980057 -1.75,56.5 C-1.75,39.2711336 13.9376484,23.3962955 29.8805213,22.3052734 L29.9982435,22.3011909 L81.0199431,22.2501136 C81.1005135,22.2510319 81.1685373,22.2510319 81.3264603,22.2504337 C81.4109851,22.2501126 81.4109851,22.2501126 81.5,22.25 C98.045141,22.25 114.75,38.5011101 114.75,56.5 C114.75,58.7980057 114.563539,61.0676822 114.196415,63.2857623 L113.954063,64.75 L59.0459374,64.75 L58.9835697,64.3731884 Z" stroke="#5E125C" stroke-width="3.5" fill="#B4B4B4"/><path d="M25,36.040952 L25,36 L86,36 L86,36.0045353 C86.1662967,36.0015162 86.3329679,36 86.5,36 C101.135546,36 113,47.6405965 113,62 C113,76.3594035 101.135546,88 86.5,88 C73.6076033,88 62.8655131,78.9671519 60.4895534,67 L52.5104466,67 C50.1344869,78.9671519 39.3923967,88 26.5,88 C11.8644541,88 0,76.3594035 0,62 C0,48.1345001 11.0623152,36.8039925 25,36.040952 Z" fill="#D8D8D8"/><use stroke="#5E125C" mask="url(#mask-2)" stroke-width="7" stroke-linecap="round" stroke-linejoin="round" stroke-dasharray="1,1" href="#icon-project-game-path-1"/><ellipse fill="#E9E9E9" cx="25.5" cy="62" rx="20.5" ry="20"/><ellipse fill="#E9E9E9" cx="87" cy="62.5" rx="21" ry="20.5"/><g><use fill="#F5A623" fill-rule="evenodd" href="#icon-project-game-path-3"/><use fill="black" fill-opacity="1" filter="url(#filter-4)" href="#icon-project-game-path-3"/><circle stroke="#5E125C" stroke-width="3" cx="87" cy="51" r="5.5"/></g><g><use fill="#D0021B" fill-rule="evenodd" href="#icon-project-game-path-5"/><use fill="black" fill-opacity="1" filter="url(#filter-6)" href="#icon-project-game-path-5"/><circle stroke="#5E125C" stroke-width="3" cx="87" cy="73" r="5.5"/></g><g><use fill="#7ED321" fill-rule="evenodd" href="#icon-project-game-path-7"/><use fill="black" fill-opacity="1" filter="url(#filter-8)" href="#icon-project-game-path-7"/><circle stroke="#5E125C" stroke-width="3" cx="98" cy="62" r="5.5"/></g><g><use fill="#4A90E2" fill-rule="evenodd" href="#icon-project-game-path-9"/><use fill="black" fill-opacity="1" filter="url(#filter-10)" href="#icon-project-game-path-9"/><circle stroke="#5E125C" stroke-width="3" cx="76" cy="62" r="5.5"/></g><g><use fill="#606060" fill-rule="evenodd" href="#icon-project-game-path-11"/><use fill="black" fill-opacity="1" filter="url(#filter-12)" href="#icon-project-game-path-11"/><path stroke="#5E125C" stroke-width="3" d="M33.0108696,54.9891304 L38,54.9891304 C39.9329966,54.9891304 41.5,56.5561338 41.5,58.4891304 L41.5,63.0108696 C41.5,64.9438662 39.9329966,66.5108696 38,66.5108696 L33.0108696,66.5108696 L33.0108696,71.5 C33.0108696,73.4329966 31.4438662,75 29.5108696,75 L24.9891304,75 C23.0561338,75 21.4891304,73.4329966 21.4891304,71.5 L21.4891304,66.5108696 L16.5,66.5108696 C14.5670034,66.5108696 13,64.9438662 13,63.0108696 L13,58.4891304 C13,56.5561338 14.5670034,54.9891304 16.5,54.9891304 L21.4891304,54.9891304 L21.4891304,50 C21.4891304,48.0670034 23.0561338,46.5 24.9891304,46.5 L29.5108696,46.5 C31.4438662,46.5 33.0108696,48.0670034 33.0108696,50 L33.0108696,54.9891304 Z"/></g><g opacity="0.206138393"><use fill="#353535" fill-rule="evenodd" href="#icon-project-game-path-13"/><use fill="black" fill-opacity="1" filter="url(#filter-14)" href="#icon-project-game-path-13"/></g><path d="M57.1435096,27.4101563 C56.2444074,17.9772514 59.5700311,13.2607989 67.1203809,13.2607989 C74.6707306,13.2607989 77.5127754,8.84053263 75.6465153,0" stroke="#5E125C" stroke-width="6" stroke-linecap="round"/></g></g></svg>