<svg width="123px" height="92px" viewBox="0 0 123 92" xmlns="http://www.w3.org/2000/svg" cl-svg="1537666456619"><defs/><g stroke="none" stroke-width="1" fill="none" fill-rule="evenodd"><g transform="translate(2.000000, 3.000000)"><path d="M60.1435096,27.4101563 C59.2444074,17.9772514 62.5700311,13.2607989 70.1203809,13.2607989 C77.6707306,13.2607989 80.5127754,8.84053263 78.6465153,0" stroke="#343434" stroke-width="6" stroke-linecap="round"/><path d="M33.77742,29.3033377 L83.196607,29.2501096 C83.5744951,29.2501087 83.5744951,29.2501087 83.6605157,29.25 C97.6124294,29.25 111.681871,31.541412 115.039904,46.1244009 C116.30392,49.1826868 117,52.5258014 117,56.0281986 C117,70.6097726 104.934727,84.3604342 90.0514567,84.3604342 C76.9408412,84.3604342 66.0169287,75.1878287 63.6007532,63.0355195 L55.4865906,63.0355195 C53.0704151,75.1878287 42.1465026,84.3604342 29.0358871,84.3604342 C27.0297121,84.3604342 25.0747385,84.145659 23.193614,83.7382971 C20.4850922,83.1517607 17.9296704,82.1659645 15.5949519,80.8471419 C13.9313116,79.907394 12.3797333,78.798552 10.9646766,77.5445793 C9.78363263,76.4979804 7.57774007,73.5023802 4.34699891,68.5577787 C2.89383238,65.3135 2.08734384,59.7981427 2.08734384,56.0281986 C2.08734384,52.6743776 2.72561926,49.466612 3.88965253,46.5151384 C6.99694244,32.4253766 20.2927093,30.2248204 33.77742,29.3033377 Z" stroke="#343434" stroke-width="3" fill="#969696" fill-rule="nonzero"/><path d="M2.42565535,63.9842882 C0.921905481,60.6222721 0.0873438435,54.9067583 0.0873438435,51 C0.0873438435,36.4089963 11.7284879,24.4856268 26.3954536,23.6826606 L90.5872414,23.6395658 C90.7622395,23.6411614 90.9376317,23.6395658 91.1134036,23.6395658 C106.514746,23.6395658 119,35.8892495 119,51 C119,66.1107505 106.514746,80.3604342 91.1134036,80.3604342 C77.5464201,80.3604342 66.2422566,70.8549478 63.7419763,58.261622 L55.3453675,58.261622 C52.8450872,70.8549478 41.5409237,80.3604342 27.9739402,80.3604342 C25.8979322,80.3604342 23.8749078,80.1378646 21.9283031,79.7157193 C19.1255003,79.107897 16.4811267,78.0863255 14.0651389,76.7196418 C12.3435888,75.7457898 10.7380016,74.596707 9.27368804,73.2972267 C8.0515331,72.2126459 5.76885553,69.1083331 2.42565535,63.9842882 Z" fill="#505050" fill-rule="nonzero"/><path d="M90.025641,27 C90.1855417,27.0014579 90.3458025,27 90.5064103,27 C104.579051,27 115.987179,38.1928813 115.987179,52 C115.987179,65.8071187 104.579051,77 90.5064103,77 C78.109875,77 67.7809421,67.3145692 65.4963655,55.8076923 L53.490814,55.8076923 C51.2062374,67.3145692 40.8773045,77 28.4807692,77 C14.408129,77 3,65.8071187 3,52 C3,38.6677886 13.6368415,27.7730697 27.0384615,27.0393769 L90.025641,27 Z" fill="#D8D8D8" fill-rule="nonzero"/><ellipse fill="#E9E9E9" fill-rule="nonzero" cx="28.5" cy="51" rx="20.5" ry="20"/><ellipse fill="#E9E9E9" fill-rule="nonzero" cx="90" cy="51.5" rx="21" ry="20.5"/><circle stroke="#343434" stroke-width="3" fill="#F5A623" fill-rule="nonzero" cx="90" cy="40" r="5.5"/><circle stroke="#343434" stroke-width="3" fill="#D0021B" fill-rule="nonzero" cx="90" cy="62" r="5.5"/><circle stroke="#343434" stroke-width="3" fill="#7ED321" fill-rule="nonzero" cx="101" cy="51" r="5.5"/><circle stroke="#343434" stroke-width="3" fill="#4A90E2" fill-rule="nonzero" cx="79" cy="51" r="5.5"/><path d="M34.0108696,44.9891304 L39,44.9891304 C40.9329966,44.9891304 42.5,46.5561338 42.5,48.4891304 L42.5,53.0108696 C42.5,54.9438662 40.9329966,56.5108696 39,56.5108696 L34.0108696,56.5108696 L34.0108696,61.5 C34.0108696,63.4329966 32.4438662,65 30.5108696,65 L25.9891304,65 C24.0561338,65 22.4891304,63.4329966 22.4891304,61.5 L22.4891304,56.5108696 L17.5,56.5108696 C15.5670034,56.5108696 14,54.9438662 14,53.0108696 L14,48.4891304 C14,46.5561338 15.5670034,44.9891304 17.5,44.9891304 L22.4891304,44.9891304 L22.4891304,40 C22.4891304,38.0670034 24.0561338,36.5 25.9891304,36.5 L30.5108696,36.5 C32.4438662,36.5 34.0108696,38.0670034 34.0108696,40 L34.0108696,44.9891304 Z" stroke="#343434" stroke-width="3" fill="#606060" fill-rule="nonzero"/><g opacity="0.206138393" transform="translate(54.000000, 31.000000)"><g fill="#353535"><rect x="0" y="0" width="12" height="17" rx="3"/></g><g fill="#000000" fill-rule="nonzero"><rect x="0" y="0" width="12" height="17" rx="3"/></g></g></g><circle fill="#000000" opacity="0.162555804" cx="30.5" cy="53.5" r="3.5"/><path d="M27.1449393,54.5 C27.0506388,54.1831453 27,53.8474863 27,53.5 C27,51.5670034 28.5670034,50 30.5,50 C32.4329966,50 34,51.5670034 34,53.5 C34,53.8474863 33.9493612,54.1831453 33.8550607,54.5 C33.4247861,53.0542555 32.0855103,52 30.5,52 C28.9144897,52 27.5752139,53.0542555 27.1449393,54.5 Z" fill="#000000" opacity="0.336104911"/></g></svg>