<svg width="63px" height="72px" viewBox="0 0 63 72" xmlns="http://www.w3.org/2000/svg" cl-svg="1533559710008"><defs/><g stroke="none" stroke-width="1" fill="none" fill-rule="evenodd"><g><polygon fill="#E2E2E2" opacity="0.25" points="0 3.55271368e-15 0 54 45 54 45 16 29 0"/><path d="M4,4 L4,50 L41,50 L41,17.6568542 L27.3431458,4 L4,4 Z M0,0 L29,0 L45,16 L45,54 L0,54 L0,0 Z" fill="#E2E2E2" fill-rule="nonzero"/><path d="M11,17 L32,17 L32,21 L11,21 L11,17 Z M11,27 L32,27 L32,31 L11,31 L11,27 Z M11,37 L32,37 L32,41 L11,41 L11,37 Z" fill="#E2E2E2"/><polygon fill="#363940" points="50 45 63 45 63 59 50 59 50 72 36 72 36 59 23 59 23 45 36 45 36 32 50 32"/><polygon fill="#7ED321" points="47 48 60 48 60 56 47 56 47 69 39 69 39 56 26 56 26 48 39 48 39 35 47 35"/></g></g></svg>