<svg width="50px" height="43px" viewBox="0 0 50 43" xmlns="http://www.w3.org/2000/svg" cl-svg="1534703572937"><defs><linearGradient x1="50%" y1="0%" x2="50%" y2="100%" id="icon-warning-linearGradient-1"><stop stop-color="#FFFFFF" stop-opacity="0.646993886" offset="0%"/><stop stop-color="#FFFFFF" stop-opacity="0" offset="100%"/></linearGradient><path d="M20.2880451,3.41743927 C22.8903873,-1.04854908 27.1105762,-1.04690369 29.7119596,3.41743927 L48.0648553,34.9136128 C50.6671974,39.3796011 48.5556648,43 43.3528981,43 L6.64710663,43 C1.44242241,43 -0.666233911,39.3779557 1.93514942,34.9136128 L20.2880451,3.41743927 Z" id="icon-warning-path-2"/></defs><g stroke="none" stroke-width="1" fill="none" fill-rule="evenodd"><g><g stroke-linejoin="square"><path stroke="url(#linearGradient-1)" stroke-width="6" d="M22.8800934,4.92783197 L4.52719763,36.4240055 C3.09584461,38.8804104 3.74804881,40 6.64710663,40 L43.3528981,40 C46.2517672,40 46.9042491,38.8805631 45.4728071,36.4240055 L27.1199114,4.92783197 C25.6754264,2.44889081 24.3246732,2.44872791 22.8800934,4.92783197 Z" fill="#F1C310" fill-rule="evenodd"/><path stroke="#DAAA0A" stroke-width="3" d="M21.5840693,4.17263562 L3.23117352,35.6688091 C1.21463978,39.1294672 2.5955667,41.5 6.64710663,41.5 L43.3528981,41.5 C47.4040471,41.5 48.7855577,39.129798 46.7688312,35.6688091 L28.4159355,4.17263562 C26.3928358,0.700709424 23.6073647,0.700373513 21.5840693,4.17263562 Z"/></g><rect fill="#7E6616" x="22" y="15" width="5" height="13" rx="2.5"/><rect fill="#7E6616" x="22" y="31" width="5" height="5" rx="2.5"/></g></g></svg>