<svg width="40px" height="40px" viewBox="0 0 40 40" xmlns="http://www.w3.org/2000/svg" cl-svg="1535229269309"><defs/><g stroke="none" stroke-width="1" fill="none" fill-rule="evenodd"><g fill="#A4ACB5"><path d="M22,36 C22,37.4794617 21.1968009,38.7713261 20.0026716,39.4633244 L20.0059514,39.9999992 C19.5347833,40 19.0732764,39.9841161 18.6159921,39.9528611 C18.4152027,39.9838969 18.2094819,40 18,40 C17.4461072,40 16.9185093,39.8874185 16.4388406,39.6838899 C7.09213235,38.0040871 0,29.8302717 0,20 C0,8.98883072 8.89841525,0.0559976712 19.8964844,0.000262243883 C19.9308834,0.000439551449 19.9653904,1.11022302e-16 20,1.11022302e-16 C22.209139,1.11022302e-16 24,1.790861 24,4 C24,6.209139 22.209139,8 20,8 C19.9653904,8 19.9308834,7.99956045 19.8964844,7.99868662 C13.3167294,8.05603365 8,13.4071225 8,20 C8,26.6130979 13.3493922,31.9767782 19.9570602,31.9999248 L19.9601921,32.5124049 C21.1777134,33.1981801 22,34.5030624 22,36 Z"/><circle opacity="0.595256696" cx="28" cy="35" r="4"/><circle opacity="0.344754464" cx="35" cy="29" r="3"/><circle opacity="0.186830357" cx="38" cy="22" r="2"/></g></g></svg>