<svg width="58px" height="67px" viewBox="0 0 58 67" xmlns="http://www.w3.org/2000/svg" cl-svg="1535245509112"><defs/><g stroke="none" stroke-width="1" fill="none" fill-rule="evenodd"><g><polygon fill="#FFFFFF" points="0 3.55271368e-15 0 54 45 54 45 16 29 0"/><path d="M4,4 L4,50 L41,50 L41,17.6568542 L27.3431458,4 L4,4 Z M0,0 L29,0 L45,16 L45,54 L0,54 L0,0 Z" fill="#E2E2E2" fill-rule="nonzero"/><path d="M11,17 L32,17 L32,21 L11,21 L11,17 Z M11,27 L32,27 L32,31 L11,31 L11,27 Z M11,37 L32,37 L32,41 L11,41 L11,37 Z" fill="#E2E2E2"/><path d="M43.5588235,24.5 L28.4411765,24.5 L28.4411765,37.4411765 L15.5,37.4411765 L15.5,52.5588235 L28.4411765,52.5588235 L28.4411765,65.5 L43.5588235,65.5 L43.5588235,52.5588235 L56.5,52.5588235 L56.5,37.4411765 L43.5588235,37.4411765 L43.5588235,24.5 Z" stroke="#213E00" stroke-width="3" fill="#7ED321"/></g></g></svg>