<svg width="45px" height="54px" viewBox="0 0 45 54" xmlns="http://www.w3.org/2000/svg" cl-svg="1535229269414"><defs/><g stroke="none" stroke-width="1" fill="none" fill-rule="evenodd"><g fill="#FFFFFF"><polygon opacity="0.25" points="0 3.55271368e-15 0 54 45 54 45 16 29 0"/><path d="M15.0334262,19.9275766 C15.0334262,19.1216301 15.1894135,18.3546926 15.5013928,17.6267409 C15.813372,16.8987893 16.2423371,16.2683406 16.7883008,15.735376 C17.3342646,15.2024114 17.9712127,14.7799458 18.6991643,14.4679666 C19.427116,14.1559873 20.2070525,14 21.0389972,14 C22.0009333,14 22.8783619,14.1949841 23.6713092,14.5849582 C24.4642565,14.9749323 25.1207031,15.5208879 25.6406685,16.2228412 C25.9006513,16.586817 26.1151338,16.9247895 26.2841226,17.2367688 C26.4531113,17.5487481 26.5896002,17.8802211 26.6935933,18.2311978 C26.7975864,18.5821745 26.8690806,18.9786422 26.908078,19.4206128 C26.9470754,19.8625835 26.9665738,20.3825411 26.9665738,20.9805014 C26.9665738,21.6564565 26.9600743,22.2219104 26.9470752,22.6768802 C26.9340761,23.13185 26.9015787,23.5283177 26.8495822,23.8662953 C26.7975856,24.2042728 26.7325909,24.496749 26.6545961,24.7437326 C26.5766013,24.9907162 26.4726097,25.2181977 26.3426184,25.4261838 L23.6518106,30.0278552 C23.4698227,30.3398344 23.3138354,30.6583085 23.183844,30.9832869 C23.0538526,31.3082653 22.9888579,31.6527373 22.9888579,32.0167131 L22.9888579,35.1364903 L19.0111421,35.1364903 L19.0111421,31.5097493 C19.0111421,30.9377873 19.1021347,30.3918318 19.2841226,29.8718663 C19.4661105,29.3519008 19.7000914,28.8449421 19.9860724,28.3509749 L22.4818942,24.2952646 C22.6898803,23.9572871 22.8263692,23.5933167 22.8913649,23.2033426 C22.9563606,22.8133685 22.9888579,22.4234003 22.9888579,22.0334262 L22.9888579,19.9665738 C22.9888579,19.4206101 22.8003733,18.9526482 22.4233983,18.5626741 C22.0464234,18.1727 21.5849609,17.9777159 21.0389972,17.9777159 C20.5710283,17.9777159 20.1160653,18.1467021 19.6740947,18.4846797 C19.2321241,18.8226572 19.0111421,19.316617 19.0111421,19.9665738 L19.0111421,22.2284123 L15.0334262,22.2284123 L15.0334262,19.9275766 Z M19.0111421,38.0222841 L22.9888579,38.0222841 L22.9888579,42 L19.0111421,42 L19.0111421,38.0222841 Z" fill-opacity="0.567425272"/></g></g></svg>