<svg width="43px" height="45px" viewBox="0 0 43 45" xmlns="http://www.w3.org/2000/svg" cl-svg="1533387942047"><defs><linearGradient x1="50%" y1="0%" x2="50%" y2="100%" id="icon-refresh-linearGradient-1"><stop stop-color="#A1A1A1" offset="0%"/><stop stop-color="#686868" offset="100%"/></linearGradient></defs><g stroke="none" stroke-width="1" fill="none" fill-rule="evenodd"><path d="M28.3080671,11.2110719 C26.2201022,10.0325155 23.8085883,9.36 21.24,9.36 C13.2870996,9.36 6.84,15.8070996 6.84,23.76 C6.84,31.7129004 13.2870996,38.16 21.24,38.16 C29.0725499,38.16 35.4445284,31.9065508 35.6355879,24.12 L42.4770107,24.12 C42.2848257,35.68447 32.8502921,45 21.24,45 C9.50947191,45 0,35.4905281 0,23.76 C0,12.0294719 9.50947191,2.52 21.24,2.52 C25.4112013,2.52 29.3015705,3.72238505 32.5834171,5.79946461 L36.6075,0 L42.48,17.64 L23.76,16.4475 L28.3080671,11.2110719 Z" fill="url(#icon-refresh-linearGradient-1)"/></g></svg>