<svg width="76px" height="67px" viewBox="0 0 76 67" xmlns="http://www.w3.org/2000/svg" cl-svg="1556200008859"><g stroke="none" stroke-width="1" fill="none" fill-rule="evenodd"><g transform="translate(-2069.000000, -381.000000)" fill="#ffffff"><path d="M2077.38,426.289 L2136.75,426.289 L2136.75,389.715 L2077.38,389.715 L2077.38,426.289 Z M2140.72,434.24 L2073.41,434.24 C2071.21,434.24 2069.43,432.46 2069.43,430.264 L2069.43,385.739 C2069.43,383.543 2071.21,381.764 2073.41,381.764 L2140.72,381.764 C2142.92,381.764 2144.7,383.543 2144.7,385.739 L2144.7,430.264 C2144.7,432.46 2142.92,434.24 2140.72,434.24 Z"/><path d="M2106.19,446.432 C2103.99,446.432 2102.69,444.652 2102.69,442.456 L2102.69,431.325 C2102.69,429.129 2103.99,427.35 2106.19,427.35 C2108.38,427.35 2109.69,429.129 2109.69,431.325 L2109.69,442.456 C2109.69,444.652 2108.38,446.432 2106.19,446.432"/><path d="M2119.9,447.117 L2092.87,447.117 C2090.67,447.117 2088.89,445.313 2088.89,443.117 C2088.89,440.922 2090.67,439.117 2092.87,439.117 L2119.9,439.117 C2122.1,439.117 2123.88,440.922 2123.88,443.117 C2123.88,445.313 2122.1,447.117 2119.9,447.117"/></g></g></svg>