<svg width="48px" height="54px" viewBox="0 0 48 54" xmlns="http://www.w3.org/2000/svg" cl-svg="1535244774546"><defs/><g stroke="none" stroke-width="1" fill="none" fill-rule="evenodd"><g><g transform="translate(25.919317, 29.101499) rotate(-315.000000) translate(-25.919317, -29.101499) translate(17.419317, 4.101499)"><rect fill="#FFDD3B" x="0" y="10.0518163" width="16.3477272" height="26.8048435"/><polygon fill="#585858" points="4.97539524 43.5578707 11.372332 43.5578707 8.17386361 49.4214303"/><polygon fill="#EECC80" points="5.23388581 44.3955221 0 36.0190085 16.3477272 36.0190085 11.1138414 44.3955221"/><path d="M4,0 L12.3477272,0 C14.5568662,-4.05812251e-16 16.3477272,1.790861 16.3477272,4 L16.3477272,10.0518163 L0,10.0518163 L0,4 C-2.705415e-16,1.790861 1.790861,-4.82366169e-16 4,-8.8817842e-16 Z" fill="#E7A4A4"/><path d="M3.84308299,3.35060544 L7.81847823,3.35060544 L7.81847823,46.0708248 L2.84308299,36.2656364 L2.84308299,4.35060544 C2.84308299,3.79832069 3.29079824,3.35060544 3.84308299,3.35060544 Z" fill="#FFFFFF" opacity="0.238895089"/></g><polygon fill="#E2E2E2" fill-rule="nonzero" points="27 0 27 6 7 6 7 48 38 48 38 40 45 40 45 54 0 54 0 0"/></g></g></svg>