<svg width="53px" height="46px" viewBox="0 0 53 46" xmlns="http://www.w3.org/2000/svg" cl-svg="1533181842022"><defs><path d="M24.4957271,8.65145481 C27.2595107,3.87338825 31.7415075,3.87514863 34.5042729,8.65145481 L53.9957271,42.3485452 C56.7595107,47.1266117 54.5169849,51 48.9914542,51 L10.0085458,51 C4.48097857,51 2.24150754,47.1248514 5.00427288,42.3485452 L24.4957271,8.65145481 Z" id="icon-warning-path-1"/></defs><g stroke="none" stroke-width="1" fill="none" fill-rule="evenodd"><g transform="translate(-3.000000, -5.000000)"><g><use fill="#FFDE3B" fill-rule="evenodd" href="#icon-warning-path-1"/><path stroke-opacity="0.646993886" stroke="#FFFFFF" stroke-width="6" d="M27.0925868,10.1535599 C28.7006783,7.3734696 30.2994341,7.37366382 31.9074132,10.1535599 L51.3988674,43.8506503 C53.0043195,46.6261775 52.2094341,48 48.9914542,48 L10.0085458,48 C6.79034147,48 5.99579169,46.6259854 7.60113256,43.8506503 L27.0925868,10.1535599 Z"/><path stroke="#DAAA0A" stroke-width="3" d="M25.794157,9.40250736 C27.9799187,5.62373287 31.020295,5.62410223 33.205843,9.40250736 L52.6972973,43.0995978 C54.8817393,46.8760907 53.3635612,49.5 48.9914542,49.5 L10.0085458,49.5 C5.63601165,49.5 4.11847378,46.8757224 6.30270272,43.0995978 L25.794157,9.40250736 L25.794157,9.40250736 Z"/></g><rect fill="#7E6615" x="27" y="21" width="5" height="13" rx="2.5"/><rect fill="#7E6615" x="27" y="37" width="5" height="5" rx="2.5"/></g></g></svg>