<svg width="43px" height="43px" viewBox="0 0 43 43" xmlns="http://www.w3.org/2000/svg" cl-svg="1534703572865"><defs><linearGradient x1="50%" y1="0%" x2="50%" y2="100%" id="icon-error-linearGradient-1"><stop stop-color="#FFFFFF" stop-opacity="0.646993886" offset="0%"/><stop stop-color="#FFFFFF" stop-opacity="0" offset="100%"/></linearGradient><circle id="icon-error-path-2" cx="21.5" cy="21.5" r="21.5"/></defs><g stroke="none" stroke-width="1" fill="none" fill-rule="evenodd"><g><g stroke-linejoin="square"><circle stroke="url(#linearGradient-1)" stroke-width="6" fill="#E74C3C" fill-rule="evenodd" cx="21.5" cy="21.5" r="18.5"/><circle stroke="#C0392B" stroke-width="3" cx="21.5" cy="21.5" r="20"/></g><path d="M21.8661416,18.3306077 L17.273615,13.7380811 C16.2866009,12.751067 14.7107244,12.7581029 13.7344136,13.7344136 C12.7512962,14.717531 12.7597449,16.2952788 13.7380811,17.273615 L18.3306077,21.8661416 L13.7380811,26.4586682 C12.751067,27.4456824 12.7581029,29.0215589 13.7344136,29.9978696 C14.717531,30.980987 16.2952788,30.9725384 17.273615,29.9942021 L21.8661416,25.4016755 L26.4586682,29.9942021 C27.4456824,30.9812163 29.0215589,30.9741803 29.9978696,29.9978696 C30.980987,29.0147522 30.9725384,27.4370044 29.9942021,26.4586682 L25.4016755,21.8661416 L29.9942021,17.273615 C30.9812163,16.2866009 30.9741803,14.7107244 29.9978696,13.7344136 C29.0147522,12.7512962 27.4370044,12.7597449 26.4586682,13.7380811 L21.8661416,18.3306077 Z" fill="#FFFFFF"/></g></g></svg>