<svg width="43px" height="34px" viewBox="0 0 43 34" xmlns="http://www.w3.org/2000/svg" cl-svg="1534703572926"><defs><linearGradient x1="50%" y1="0%" x2="50%" y2="100%" id="icon-success-linearGradient-1"><stop stop-color="#FFFFFF" stop-opacity="0.646993886" offset="0%"/><stop stop-color="#FFFFFF" stop-opacity="0" offset="100%"/></linearGradient><path d="M17.8072456,14.6048838 L31.4172831,0.994846259 C32.7437448,-0.33161542 34.8943641,-0.33161542 36.2208258,0.994846259 L41.8249589,6.59897937 C43.1514206,7.92544104 43.1514206,10.0760603 41.8249589,11.402522 L20.2090169,33.018464 C18.8825552,34.3449257 16.7319359,34.3449257 15.4054742,33.018464 L0.994846259,18.607836 C-0.33161542,17.2813743 -0.33161542,15.130755 0.994846259,13.8042934 L6.59897937,8.20016025 C7.92544104,6.87369857 10.0760603,6.87369857 11.402522,8.20016025 L17.8072456,14.6048838 Z" id="icon-success-path-2"/></defs><g stroke="none" stroke-width="1" fill="none" fill-rule="evenodd" stroke-linejoin="square"><g><path stroke="url(#linearGradient-1)" stroke-width="5" d="M33.1850501,2.76261321 L17.8072456,18.1404177 L9.63475508,9.96792721 C9.28460413,9.61777626 8.71689727,9.61777626 8.36674632,9.96792721 L2.76261321,15.5720603 C2.41246226,15.9222113 2.41246226,16.4899181 2.76261321,16.8400691 L17.1732412,31.2506971 C17.5233922,31.600848 18.091099,31.600848 18.44125,31.2506971 L40.0571919,9.63475508 C40.4073429,9.28460413 40.4073429,8.71689727 40.0571919,8.36674632 L34.4530588,2.76261321 C34.1029079,2.41246226 33.535201,2.41246226 33.1850501,2.76261321 Z" fill="#7ED321" fill-rule="evenodd"/><path stroke="#61A714" stroke-width="3" d="M32.4779433,2.05550643 L17.8072456,16.7262041 L10.3418619,9.26082043 C9.60118662,8.52014518 8.40031478,8.52014518 7.65963954,9.26082043 L2.05550643,14.8649535 C1.31483119,15.6056288 1.31483119,16.8065006 2.05550643,17.5471759 L16.4661344,31.9578038 C17.2068097,32.6984791 18.4076815,32.6984791 19.1483567,31.9578038 L40.7642987,10.3418619 C41.504974,9.60118662 41.504974,8.40031478 40.7642987,7.65963954 L35.1601656,2.05550643 C34.4194904,1.31483119 33.2186185,1.31483119 32.4779433,2.05550643 Z"/></g></g></svg>