<svg xmlns="http://www.w3.org/2000/svg" width="72.35" height="72.35" viewBox="0 0 72.35 72.35" cl-svg="1539438680922"><g><g><path d="M384.61,2520.77a4,4,0,0,1-2.81-1.16l-22.06-22.06a4,4,0,0,1,5.62-5.62L387.42,2514A4,4,0,0,1,384.61,2520.77Z" transform="translate(-337.41 -2469.58)" style="fill: #fff"/><path d="M362.56,2520.77a4,4,0,0,1-2.81-6.79l22.06-22.06a4,4,0,1,1,5.62,5.62l-22.06,22.06A4,4,0,0,1,362.56,2520.77Z" transform="translate(-337.41 -2469.58)" style="fill: #fff"/></g><path d="M373.58,2541.94a36.18,36.18,0,1,1,36.18-36.18A36.22,36.22,0,0,1,373.58,2541.94Zm0-64.4a28.23,28.23,0,1,0,28.23,28.23A28.26,28.26,0,0,0,373.58,2477.54Z" transform="translate(-337.41 -2469.58)" style="fill: #fff"/></g></svg>