<svg xmlns="http://www.w3.org/2000/svg" width="108.01" height="77.84" viewBox="0 0 108.01 77.84" cl-svg="1538530886236"><g style="isolation: isolate"><g><path d="M430.8,269.64v-16a9.87,9.87,0,0,1,9.87-9.87h81.92a9.87,9.87,0,0,1,9.87,9.87V307a9.87,9.87,0,0,1-9.87,9.87H440.67A9.87,9.87,0,0,1,430.8,307V287" transform="translate(-426.44 -241)" style="fill: #edf1f7"/><path d="M438.13,316h85c3.66,0,6.85-2.44,8.58-5.38l-43.12-41.34a10.79,10.79,0,0,0-15.26-.11l-43.56,42A10.32,10.32,0,0,0,438.13,316Z" transform="translate(-426.44 -241)" style="fill: #d0ddea"/><path d="M522.58,318.84H438.31A11.88,11.88,0,0,1,426.44,307V287a2,2,0,0,1,4,0v20a7.88,7.88,0,0,0,7.87,7.87h84.27a7.88,7.88,0,0,0,7.87-7.87V253.69a7.88,7.88,0,0,0-7.87-7.87H438.31a7.88,7.88,0,0,0-7.87,7.87v16a2,2,0,1,1-4,0v-16a11.88,11.88,0,0,1,11.87-11.87h84.27a11.88,11.88,0,0,1,11.87,11.87V307A11.88,11.88,0,0,1,522.58,318.84Z" transform="translate(-426.44 -241)" style="fill: #5e125c"/><g><line x1="2.01" y1="39.44" x2="2.01" y2="34.75" style="fill: #e6edec"/><path d="M428.46,282.44a2,2,0,0,1-2-2v-4.7a2,2,0,0,1,4,0v4.7A2,2,0,0,1,428.46,282.44Z" transform="translate(-426.44 -241)" style="fill: #5e125c"/></g><path d="M523.18,318h-85a12,12,0,0,1-10-5.73l-0.91-1.18L472,267.73a12.81,12.81,0,0,1,18.07.29l44.23,42.64-0.8,1C531.56,314.9,527.84,318,523.18,318Zm-90.69-6.63a7.5,7.5,0,0,0,5.65,2.63h85a7.69,7.69,0,0,0,6-3.11l-41.91-40.18a8.82,8.82,0,0,0-12.46-.34Z" transform="translate(-426.44 -241)" style="fill: #5e125c"/><path d="M521.79,243H439.11c-3.56,0-6.67,1-8.35,3.88l41.92,44.22a10.38,10.38,0,0,0,14.86-.25l42.35-44.28C528.15,243.9,525.17,243,521.79,243Z" transform="translate(-426.44 -241)" style="fill: #f8f9fb"/><path d="M488.47,290a11.7,11.7,0,0,1-16.73.35l-31.07-31.52L471.74,296c3.71,4.16,12.16,3.85,16.73-.35l30.83-36.81Z" transform="translate(-426.44 -241)" style="fill: #d0ddea;mix-blend-mode: multiply"/><path d="M479.77,296.27a11.84,11.84,0,0,1-8.52-3.56l-43-45.12,0.75-1.71c2.29-4,6.59-4.89,10.09-4.89h82.68c3.31,0,7.4.88,9.77,4.54a2.25,2.25,0,0,1-.59,3,2.1,2.1,0,0,1-2.77-.9c-1.07-1.65-2.87-2.61-6.41-2.61H439.11a8.42,8.42,0,0,0-5.7,1.77l40.72,43a8,8,0,0,0,5.64,2.44,8.92,8.92,0,0,0,6.34-2.66l36.4-37.6a2,2,0,0,1,2.88,2.8L489,292.34A13,13,0,0,1,479.77,296.27Z" transform="translate(-426.44 -241)" style="fill: #5e125c"/></g></g></svg>