<?xml version="1.0" encoding="UTF-8"?>
<svg width="121px" height="70px" viewBox="0 0 121 70" version="1.1" xmlns="http://www.w3.org/2000/svg" xmlns:xlink="http://www.w3.org/1999/xlink">
    <!-- Generator: Sketch 51.2 (57519) - http://www.bohemiancoding.com/sketch -->
    <title>Group</title>
    <desc>Created with Sketch.</desc>
    <defs>
        <path d="M2.22204439,46.4381199 C0.793064995,43.2432723 0,39.7125038 0,36 C0,22.1345001 11.0623152,10.8039925 25,10.040952 L86,10 C86.1662967,10.0015162 86.3329679,10 86.5,10 C101.135546,10 113,21.6405965 113,36 C113,50.3594035 101.135546,62 86.5,62 C73.6076033,62 62.8655131,52.9671519 60.4895534,41 L52.5104466,41 C50.1344869,52.9671519 39.3923967,62 26.5,62 C24.5272167,62 22.6047825,61.7884972 20.7549682,61.3873421 C18.0915283,60.8097424 15.57864,59.8389662 13.2827816,58.5402376 C11.6468316,57.6148081 10.1210785,56.5228608 8.72957453,55.2879941" id="path-1"></path>
        <mask id="mask-2" maskContentUnits="userSpaceOnUse" maskUnits="objectBoundingBox" x="-3.5" y="-3.5" width="120" height="59">
            <rect x="-3.5" y="6.5" width="120" height="59" fill="white"></rect>
            <use xlink:href="#path-1" fill="black"></use>
        </mask>
        <rect id="path-3" x="51" y="19" width="12" height="15" rx="3"></rect>
        <filter x="-4.2%" y="-3.3%" width="108.3%" height="106.7%" filterUnits="objectBoundingBox" id="filter-4">
            <feOffset dx="0" dy="1" in="SourceAlpha" result="shadowOffsetInner1"></feOffset>
            <feComposite in="shadowOffsetInner1" in2="SourceAlpha" operator="arithmetic" k2="-1" k3="1" result="shadowInnerInner1"></feComposite>
            <feColorMatrix values="0 0 0 0 1   0 0 0 0 1   0 0 0 0 1  0 0 0 0.351845562 0" type="matrix" in="shadowInnerInner1"></feColorMatrix>
        </filter>
    </defs>
    <g stroke="none" stroke-width="1" fill="none" fill-rule="evenodd">
        <g transform="translate(4.000000, 4.000000)">
            <path d="M58.9835697,40.3731884 L54.0164303,40.3731884 L53.9540626,40.75 L-0.954062555,40.75 L-1.19641489,39.2857623 C-1.56353895,37.0676822 -1.75,34.7980057 -1.75,32.5 C-1.75,15.2711336 13.9376484,-0.603704509 29.8805213,-1.69472665 L29.9982435,-1.69880915 L81.0199431,-1.74988636 C81.1005135,-1.74896811 81.1685373,-1.74896811 81.3264603,-1.74956628 C81.4109851,-1.7498874 81.4109851,-1.7498874 81.5,-1.75 C98.045141,-1.75 114.75,14.5011101 114.75,32.5 C114.75,34.7980057 114.563539,37.0676822 114.196415,39.2857623 L113.954063,40.75 L59.0459374,40.75 L58.9835697,40.3731884 Z" stroke="#614860" stroke-width="3.5" fill="#B4B4B4"></path>
            <path d="M112.469904,39 L60.530096,39 C60.5093499,38.8746566 60.4891919,38.7490512 60.4696259,38.6231884 L52.5303741,38.6231884 C52.5108081,38.7490512 52.4906501,38.8746566 52.469904,39 L0.530096012,39 C0.182480375,36.8997854 0,34.726028 0,32.5 C0,15.1681251 16.0623152,1.00499063 30,0.0511899729 L81,0 C81.1662967,0.00189525363 81.3329679,0 81.5,0 C96.1355459,0 113,14.5507456 113,32.5 C113,34.726028 112.81752,36.8997854 112.469904,39 Z" fill="#FFFFFF" opacity="0.278180804"></path>
            <path d="M112.469904,41 L60.530096,41 C60.5093499,40.8746566 60.4891919,40.7490512 60.4696259,40.6231884 L52.5303741,40.6231884 C52.5108081,40.7490512 52.4906501,40.8746566 52.469904,41 L0.530096012,41 C0.182480375,38.8997854 0,36.726028 0,34.5 C0,17.1681251 16.0623152,3.00499063 30,2.05118997 L81,2 C81.1662967,2.00189525 81.3329679,2 81.5,2 C96.1355459,2 113,16.5507456 113,34.5 C113,36.726028 112.81752,38.8997854 112.469904,41 Z" fill="#B4B4B4"></path>
            <path d="M25,10.040952 L25,10 L86,10 L86,10.0045353 C86.1662967,10.0015162 86.3329679,10 86.5,10 C101.135546,10 113,21.6405965 113,36 C113,50.3594035 101.135546,62 86.5,62 C73.6076033,62 62.8655131,52.9671519 60.4895534,41 L52.5104466,41 C50.1344869,52.9671519 39.3923967,62 26.5,62 C11.8644541,62 0,50.3594035 0,36 C0,22.1345001 11.0623152,10.8039925 25,10.040952 Z" fill="#D8D8D8"></path>
            <use stroke="#614860" mask="url(#mask-2)" stroke-width="7" stroke-linecap="round" stroke-linejoin="round" stroke-dasharray="1,1" xlink:href="#path-1"></use>
            <circle fill="#E9E9E9" cx="27" cy="35" r="20"></circle>
            <ellipse fill="#E9E9E9" cx="87" cy="35.5" rx="21" ry="20.5"></ellipse>
            <circle stroke="#614860" stroke-width="3" fill="#F5A623" cx="87" cy="25" r="5.5"></circle>
            <circle stroke="#614860" stroke-width="3" fill="#D0021B" cx="87" cy="47" r="5.5"></circle>
            <circle stroke="#614860" stroke-width="3" fill="#7ED321" cx="98" cy="36" r="5.5"></circle>
            <circle stroke="#614860" stroke-width="3" fill="#4A90E2" cx="76" cy="36" r="5.5"></circle>
            <path d="M72.1260175,37 C72.043753,36.6803801 72,36.3452996 72,36 C72,33.790861 73.790861,32 76,32 C78.209139,32 80,33.790861 80,36 C80,36.3452996 79.956247,36.6803801 79.8739825,37 C79.4299397,35.2747728 77.8638394,34 76,34 C74.1361606,34 72.5700603,35.2747728 72.1260175,37 Z M94.1260175,37 C94.043753,36.6803801 94,36.3452996 94,36 C94,33.790861 95.790861,32 98,32 C100.209139,32 102,33.790861 102,36 C102,36.3452996 101.956247,36.6803801 101.873983,37 C101.42994,35.2747728 99.8638394,34 98,34 C96.1361606,34 94.5700603,35.2747728 94.1260175,37 Z M83.1260175,48 C83.043753,47.6803801 83,47.3452996 83,47 C83,44.790861 84.790861,43 87,43 C89.209139,43 91,44.790861 91,47 C91,47.3452996 90.956247,47.6803801 90.8739825,48 C90.4299397,46.2747728 88.8638394,45 87,45 C85.1361606,45 83.5700603,46.2747728 83.1260175,48 Z M83.1260175,26 C83.043753,25.6803801 83,25.3452996 83,25 C83,22.790861 84.790861,21 87,21 C89.209139,21 91,22.790861 91,25 C91,25.3452996 90.956247,25.6803801 90.8739825,26 C90.4299397,24.2747728 88.8638394,23 87,23 C85.1361606,23 83.5700603,24.2747728 83.1260175,26 Z" fill="#FFFFFF" opacity="0.541183036"></path>
            <path d="M33.0108696,28.9891304 L38,28.9891304 C39.9329966,28.9891304 41.5,30.5561338 41.5,32.4891304 L41.5,37.0108696 C41.5,38.9438662 39.9329966,40.5108696 38,40.5108696 L33.0108696,40.5108696 L33.0108696,45.5 C33.0108696,47.4329966 31.4438662,49 29.5108696,49 L24.9891304,49 C23.0561338,49 21.4891304,47.4329966 21.4891304,45.5 L21.4891304,40.5108696 L16.5,40.5108696 C14.5670034,40.5108696 13,38.9438662 13,37.0108696 L13,32.4891304 C13,30.5561338 14.5670034,28.9891304 16.5,28.9891304 L21.4891304,28.9891304 L21.4891304,24 C21.4891304,22.0670034 23.0561338,20.5 24.9891304,20.5 L29.5108696,20.5 C31.4438662,20.5 33.0108696,22.0670034 33.0108696,24 L33.0108696,28.9891304 Z" stroke="#614860" stroke-width="3" fill="#777278"></path>
            <path d="M40,34.4891304 C40,33.3845609 39.1045695,32.4891304 38,32.4891304 L31.5108696,32.4891304 L31.5108696,30.4891304 L38,30.4891304 C39.1045695,30.4891304 40,31.3845609 40,32.4891304 L40,34.4891304 Z M31.5108696,41.0108696 L31.5108696,45.5 L31.5108696,41.0108696 Z M22.9891304,45.5 L22.9891304,41.0108696 L22.9891304,45.5 Z M14.5,34.4891304 L14.5,32.4891304 C14.5,31.3845609 15.3954305,30.4891304 16.5,30.4891304 L22.9891304,30.4891304 L22.9891304,32.4891304 L16.5,32.4891304 C15.3954305,32.4891304 14.5,33.3845609 14.5,34.4891304 Z M22.9891304,26 L22.9891304,24 C22.9891304,22.8954305 23.8845609,22 24.9891304,22 L29.5108696,22 C30.6154391,22 31.5108696,22.8954305 31.5108696,24 L31.5108696,26 C31.5108696,24.8954305 30.6154391,24 29.5108696,24 L24.9891304,24 C23.8845609,24 22.9891304,24.8954305 22.9891304,26 Z" fill="#FFFFFF" opacity="0.358035714"></path>
            <g opacity="0.206138393">
                <use fill="#353535" fill-rule="evenodd" xlink:href="#path-3"></use>
                <use fill="black" fill-opacity="1" filter="url(#filter-4)" xlink:href="#path-3"></use>
            </g>
        </g>
    </g>
</svg>