<svg xmlns="http://www.w3.org/2000/svg" xmlns:xlink="http://www.w3.org/1999/xlink" width="128.19" height="187.67" viewBox="0 0 128.19 187.67">
  <defs>
    <filter id="luminosity-noclip" x="76.66" y="-8472" width="19.59" height="32766" filterUnits="userSpaceOnUse" color-interpolation-filters="sRGB">
      <feFlood flood-color="#fff" result="bg"/>
      <feBlend in="SourceGraphic" in2="bg"/>
    </filter>
    <mask id="mask" x="76.66" y="-8472" width="19.59" height="32766" maskUnits="userSpaceOnUse">
      <g style="filter: url(#luminosity-noclip)"/>
    </mask>
    <radialGradient id="_ÂÁ_Ï_ÌÌ_È_ËÂÌÚ_14" data-name="¡ÂÁ˚ÏˇÌÌ˚È „‡‰ËÂÌÚ 14" cx="371.35" cy="609.6" r="4.41" gradientTransform="matrix(-0.06, 1.73, -1.98, -0.06, 1317.59, -501.45)" gradientUnits="userSpaceOnUse">
      <stop offset="0" stop-color="#fff"/>
      <stop offset="0.12" stop-color="#fbfbfb"/>
      <stop offset="0.24" stop-color="#eee"/>
      <stop offset="0.37" stop-color="#d9d9d9"/>
      <stop offset="0.5" stop-color="#bcbcbc"/>
      <stop offset="0.63" stop-color="#969696"/>
      <stop offset="0.76" stop-color="#686868"/>
      <stop offset="0.89" stop-color="#323232"/>
      <stop offset="1"/>
    </radialGradient>
    <filter id="luminosity-noclip-2" x="66.71" y="-8472" width="24.05" height="32766" filterUnits="userSpaceOnUse" color-interpolation-filters="sRGB">
      <feFlood flood-color="#fff" result="bg"/>
      <feBlend in="SourceGraphic" in2="bg"/>
    </filter>
    <mask id="mask-2" x="66.71" y="-8472" width="24.05" height="32766" maskUnits="userSpaceOnUse">
      <g style="filter: url(#luminosity-noclip-2)"/>
    </mask>
    <linearGradient id="_ÂÁ_Ï_ÌÌ_È_ËÂÌÚ_22" data-name="¡ÂÁ˚ÏˇÌÌ˚È „‡‰ËÂÌÚ 22" x1="-595.55" y1="137.55" x2="-592.73" y2="149.87" gradientTransform="translate(673.4)" gradientUnits="userSpaceOnUse">
      <stop offset="0" stop-color="#fff"/>
      <stop offset="0.1" stop-color="#f8f8f8"/>
      <stop offset="0.25" stop-color="#e4e4e4"/>
      <stop offset="0.43" stop-color="#c3c3c3"/>
      <stop offset="0.64" stop-color="#969696"/>
      <stop offset="0.86" stop-color="#5c5c5c"/>
      <stop offset="1" stop-color="#333"/>
    </linearGradient>
    <filter id="luminosity-noclip-3" x="77.69" y="-8472" width="19.31" height="32766" filterUnits="userSpaceOnUse" color-interpolation-filters="sRGB">
      <feFlood flood-color="#fff" result="bg"/>
      <feBlend in="SourceGraphic" in2="bg"/>
    </filter>
    <mask id="mask-3" x="77.69" y="-8472" width="19.31" height="32766" maskUnits="userSpaceOnUse">
      <g style="filter: url(#luminosity-noclip-3)"/>
    </mask>
    <radialGradient id="_ÂÁ_Ï_ÌÌ_È_ËÂÌÚ_14-2" cx="347.77" cy="611.37" r="4.41" gradientTransform="matrix(0.08, 1.85, -1.96, 0.07, 1254.81, -584.79)" xlink:href="#_ÂÁ_Ï_ÌÌ_È_ËÂÌÚ_14"/>
    <filter id="luminosity-noclip-4" x="34.66" y="-8472" width="19.26" height="32766" filterUnits="userSpaceOnUse" color-interpolation-filters="sRGB">
      <feFlood flood-color="#fff" result="bg"/>
      <feBlend in="SourceGraphic" in2="bg"/>
    </filter>
    <mask id="mask-4" x="34.66" y="-8472" width="19.26" height="32766" maskUnits="userSpaceOnUse">
      <g style="filter: url(#luminosity-noclip-4)"/>
    </mask>
    <radialGradient id="_ÂÁ_Ï_ÌÌ_È_ËÂÌÚ_14-3" cx="318.56" cy="-290.94" r="4.41" gradientTransform="matrix(0.19, 1.84, 1.95, -0.2, 548.48, -535.42)" xlink:href="#_ÂÁ_Ï_ÌÌ_È_ËÂÌÚ_14"/>
    <filter id="luminosity-noclip-5" x="67.83" y="-8472" width="31.94" height="32766" filterUnits="userSpaceOnUse" color-interpolation-filters="sRGB">
      <feFlood flood-color="#fff" result="bg"/>
      <feBlend in="SourceGraphic" in2="bg"/>
    </filter>
    <mask id="mask-5" x="67.83" y="-8472" width="31.94" height="32766" maskUnits="userSpaceOnUse">
      <g style="filter: url(#luminosity-noclip-5)"/>
    </mask>
    <linearGradient id="_ÂÁ_Ï_ÌÌ_È_ËÂÌÚ_15" data-name="¡ÂÁ˚ÏˇÌÌ˚È „‡‰ËÂÌÚ 15" x1="875.97" y1="74.49" x2="877.18" y2="106.5" gradientTransform="matrix(-1, 0, 0, 1, 960.45, 0)" gradientUnits="userSpaceOnUse">
      <stop offset="0"/>
      <stop offset="0.2" stop-color="#454545"/>
      <stop offset="0.42" stop-color="#868686"/>
      <stop offset="0.61" stop-color="#bababa"/>
      <stop offset="0.78" stop-color="#e0e0e0"/>
      <stop offset="0.91" stop-color="#f7f7f7"/>
      <stop offset="1" stop-color="#fff"/>
    </linearGradient>
    <filter id="luminosity-noclip-6" x="20.88" y="-8472" width="31.94" height="32766" filterUnits="userSpaceOnUse" color-interpolation-filters="sRGB">
      <feFlood flood-color="#fff" result="bg"/>
      <feBlend in="SourceGraphic" in2="bg"/>
    </filter>
    <mask id="mask-6" x="20.88" y="-8472" width="31.94" height="32766" maskUnits="userSpaceOnUse">
      <g style="filter: url(#luminosity-noclip-6)"/>
    </mask>
    <linearGradient id="_ÂÁ_Ï_ÌÌ_È_ËÂÌÚ_13" data-name="¡ÂÁ˚ÏˇÌÌ˚È „‡‰ËÂÌÚ 13" x1="922.92" y1="74.49" x2="924.31" y2="111.27" gradientTransform="matrix(-1, 0, 0, 1, 960.45, 0)" gradientUnits="userSpaceOnUse">
      <stop offset="0"/>
      <stop offset="1" stop-color="#fff"/>
    </linearGradient>
    <filter id="luminosity-noclip-7" x="32.68" y="-8472" width="19.59" height="32766" filterUnits="userSpaceOnUse" color-interpolation-filters="sRGB">
      <feFlood flood-color="#fff" result="bg"/>
      <feBlend in="SourceGraphic" in2="bg"/>
    </filter>
    <mask id="mask-7" x="32.68" y="-8472" width="19.59" height="32766" maskUnits="userSpaceOnUse">
      <g style="filter: url(#luminosity-noclip-7)"/>
    </mask>
    <radialGradient id="_ÂÁ_Ï_ÌÌ_È_ËÂÌÚ_14-4" cx="342.22" cy="-290.55" r="4.41" gradientTransform="matrix(0.06, 1.73, 1.98, -0.06, 599.04, -501.45)" xlink:href="#_ÂÁ_Ï_ÌÌ_È_ËÂÌÚ_14"/>
    <filter id="luminosity-noclip-9" x="76.96" y="-8472" width="19.6" height="32766" filterUnits="userSpaceOnUse" color-interpolation-filters="sRGB">
      <feFlood flood-color="#fff" result="bg"/>
      <feBlend in="SourceGraphic" in2="bg"/>
    </filter>
    <mask id="mask-9" x="76.96" y="-8472" width="19.6" height="32766" maskUnits="userSpaceOnUse">
      <g style="filter: url(#luminosity-noclip-9)"/>
    </mask>
    <radialGradient id="_ÂÁ_Ï_ÌÌ_È_ËÂÌÚ_14-5" cx="355.29" cy="608.08" r="4.41" gradientTransform="matrix(0.05, 1.91, -1.98, 0.03, 1275.66, -597.33)" xlink:href="#_ÂÁ_Ï_ÌÌ_È_ËÂÌÚ_14"/>
    <filter id="luminosity-noclip-11" x="33.21" y="-8472" width="19.56" height="32766" filterUnits="userSpaceOnUse" color-interpolation-filters="sRGB">
      <feFlood flood-color="#fff" result="bg"/>
      <feBlend in="SourceGraphic" in2="bg"/>
    </filter>
    <mask id="mask-11" x="33.21" y="-8472" width="19.56" height="32766" maskUnits="userSpaceOnUse">
      <g style="filter: url(#luminosity-noclip-11)"/>
    </mask>
    <radialGradient id="_ÂÁ_Ï_ÌÌ_È_ËÂÌÚ_14-6" cx="326.29" cy="-288.09" r="4.41" gradientTransform="matrix(0.17, 1.91, 1.98, -0.16, 558.14, -561.25)" xlink:href="#_ÂÁ_Ï_ÌÌ_È_ËÂÌÚ_14"/>
    <filter id="luminosity-noclip-16" x="78.82" y="-8472" width="19.58" height="32766" filterUnits="userSpaceOnUse" color-interpolation-filters="sRGB">
      <feFlood flood-color="#fff" result="bg"/>
      <feBlend in="SourceGraphic" in2="bg"/>
    </filter>
    <mask id="mask-16" x="78.82" y="-8472" width="19.58" height="32766" maskUnits="userSpaceOnUse">
      <g style="filter: url(#luminosity-noclip-16)"/>
    </mask>
    <radialGradient id="_ÂÁ_Ï_ÌÌ_È_ËÂÌÚ_14-7" cx="341.43" cy="604.87" r="4.41" gradientTransform="matrix(0.16, 1.9, -1.98, 0.14, 1230.6, -632.44)" xlink:href="#_ÂÁ_Ï_ÌÌ_È_ËÂÌÚ_14"/>
    <filter id="luminosity-noclip-17" x="35.44" y="-8472" width="19.51" height="32766" filterUnits="userSpaceOnUse" color-interpolation-filters="sRGB">
      <feFlood flood-color="#fff" result="bg"/>
      <feBlend in="SourceGraphic" in2="bg"/>
    </filter>
    <mask id="mask-17" x="35.44" y="-8472" width="19.51" height="32766" maskUnits="userSpaceOnUse">
      <g style="filter: url(#luminosity-noclip-17)"/>
    </mask>
    <radialGradient id="_ÂÁ_Ï_ÌÌ_È_ËÂÌÚ_14-8" cx="312.67" cy="-284.07" r="4.41" gradientTransform="matrix(0.28, 1.89, 1.96, -0.27, 516.35, -558.53)" xlink:href="#_ÂÁ_Ï_ÌÌ_È_ËÂÌÚ_14"/>
    <linearGradient id="_ÂÁ_Ï_ÌÌ_È_ËÂÌÚ_196" data-name="¡ÂÁ˚ÏˇÌÌ˚È „‡‰ËÂÌÚ 196" x1="854.86" y1="246.52" x2="913.88" y2="119.65" gradientTransform="matrix(-1, 0, 0, 1, 960.45, 0)" gradientUnits="userSpaceOnUse">
      <stop offset="0" stop-color="#ffcfab"/>
      <stop offset="0.18" stop-color="#fecba7"/>
      <stop offset="0.37" stop-color="#fbbe9c"/>
      <stop offset="0.57" stop-color="#f7a989"/>
      <stop offset="0.77" stop-color="#f18b6f"/>
      <stop offset="0.97" stop-color="#e9654d"/>
      <stop offset="1" stop-color="#e85f48"/>
    </linearGradient>
    <linearGradient id="linear-gradient" x1="847.48" y1="27.21" x2="848.51" y2="163.37" gradientTransform="matrix(-1, 0, 0, 1, 960.45, 0)" gradientUnits="userSpaceOnUse">
      <stop offset="0" stop-color="#a36c27"/>
      <stop offset="0.11" stop-color="#946125"/>
      <stop offset="0.52" stop-color="#643b1d"/>
      <stop offset="0.83" stop-color="#452418"/>
      <stop offset="1" stop-color="#3a1b16"/>
    </linearGradient>
    <linearGradient id="_ÂÁ_Ï_ÌÌ_È_ËÂÌÚ_274" data-name="¡ÂÁ˚ÏˇÌÌ˚È „‡‰ËÂÌÚ 274" x1="933.45" y1="150.81" x2="828.23" y2="223.98" gradientTransform="matrix(-1, 0, 0, 1, 960.45, 0)" gradientUnits="userSpaceOnUse">
      <stop offset="0" stop-color="#63315c"/>
      <stop offset="0.26" stop-color="#803454"/>
      <stop offset="0.54" stop-color="#9a364d"/>
      <stop offset="0.8" stop-color="#aa3749"/>
      <stop offset="1" stop-color="#af3847"/>
    </linearGradient>
    <linearGradient id="_ÂÁ_Ï_ÌÌ_È_ËÂÌÚ_196-2" x1="-614.29" y1="71.09" x2="-570.41" y2="192.15" gradientTransform="translate(673.4)" xlink:href="#_ÂÁ_Ï_ÌÌ_È_ËÂÌÚ_196"/>
    <linearGradient id="_ÂÁ_Ï_ÌÌ_È_ËÂÌÚ_196-3" x1="-540.3" y1="89.8" x2="-581.41" y2="107.42" gradientTransform="translate(673.4)" xlink:href="#_ÂÁ_Ï_ÌÌ_È_ËÂÌÚ_196"/>
    <linearGradient id="_ÂÁ_Ï_ÌÌ_È_ËÂÌÚ_196-4" x1="-535.44" y1="115" x2="-575.23" y2="100.52" gradientTransform="translate(673.4)" xlink:href="#_ÂÁ_Ï_ÌÌ_È_ËÂÌÚ_196"/>
    <linearGradient id="_ÂÁ_Ï_ÌÌ_È_ËÂÌÚ_196-5" x1="-592.75" y1="98.19" x2="-590.49" y2="68.16" gradientTransform="translate(673.4)" xlink:href="#_ÂÁ_Ï_ÌÌ_È_ËÂÌÚ_196"/>
    <linearGradient id="linear-gradient-2" x1="-633.09" y1="74.8" x2="-579.23" y2="74.8" gradientTransform="translate(673.4)" xlink:href="#linear-gradient"/>
    <linearGradient id="linear-gradient-3" x1="-597.15" y1="93.37" x2="-588.17" y2="82.48" gradientTransform="translate(667.5 -10)" gradientUnits="userSpaceOnUse">
      <stop offset="0" stop-color="#538276"/>
      <stop offset="0.2" stop-color="#477a6f"/>
      <stop offset="0.7" stop-color="#2e6960"/>
      <stop offset="1" stop-color="#25635b"/>
    </linearGradient>
    <linearGradient id="_ÂÁ_Ï_ÌÌ_È_ËÂÌÚ_196-6" x1="-636.05" y1="92.16" x2="-623.9" y2="72.28" gradientTransform="translate(673.4)" xlink:href="#_ÂÁ_Ï_ÌÌ_È_ËÂÌÚ_196"/>
    <filter id="luminosity-noclip-23" x="76.66" y="99.43" width="19.59" height="13.19" filterUnits="userSpaceOnUse" color-interpolation-filters="sRGB">
      <feFlood flood-color="#fff" result="bg"/>
      <feBlend in="SourceGraphic" in2="bg"/>
    </filter>
    <mask id="mask-23" x="70.76" y="89.43" width="19.59" height="13.19" maskUnits="userSpaceOnUse">
      <g style="filter: url(#luminosity-noclip-23)">
        <g transform="translate(-5.91 -10)">
          <g style="mask: url(#mask)">
            <path d="M86.24,112.61c-5.41-.16-9.69-3.24-9.57-6.88s4.61-6.46,10-6.3,9.69,3.24,9.57,6.88S91.64,112.77,86.24,112.61Z" style="mix-blend-mode: multiply;fill: url(#_ÂÁ_Ï_ÌÌ_È_ËÂÌÚ_14)"/>
          </g>
        </g>
      </g>
    </mask>
    <radialGradient id="_ÂÁ_Ï_ÌÌ_È_ËÂÌÚ_29" data-name="¡ÂÁ˚ÏˇÌÌ˚È „‡‰ËÂÌÚ 29" cx="371.35" cy="609.6" r="4.41" gradientTransform="matrix(-0.06, 1.73, -1.98, -0.06, 1317.59, -501.45)" gradientUnits="userSpaceOnUse">
      <stop offset="0" stop-color="#e85f48"/>
      <stop offset="0.18" stop-color="#e9634c"/>
      <stop offset="0.37" stop-color="#eb7057"/>
      <stop offset="0.57" stop-color="#f08569"/>
      <stop offset="0.77" stop-color="#f6a283"/>
      <stop offset="0.96" stop-color="#fdc7a4"/>
      <stop offset="1" stop-color="#ffcfab"/>
    </radialGradient>
    <filter id="luminosity-noclip-24" x="32.68" y="101.82" width="19.59" height="13.19" filterUnits="userSpaceOnUse" color-interpolation-filters="sRGB">
      <feFlood flood-color="#fff" result="bg"/>
      <feBlend in="SourceGraphic" in2="bg"/>
    </filter>
    <mask id="mask-24" x="26.77" y="91.82" width="19.59" height="13.19" maskUnits="userSpaceOnUse">
      <g style="filter: url(#luminosity-noclip-24)">
        <g transform="translate(-5.91 -10)">
          <g style="mask: url(#mask-7)">
            <path d="M42.69,115c5.41-.16,9.69-3.24,9.57-6.88s-4.61-6.46-10-6.3-9.69,3.24-9.57,6.88S37.29,115.16,42.69,115Z" style="mix-blend-mode: multiply;fill: url(#_ÂÁ_Ï_ÌÌ_È_ËÂÌÚ_14-4)"/>
          </g>
        </g>
      </g>
    </mask>
    <radialGradient id="_ÂÁ_Ï_ÌÌ_È_ËÂÌÚ_29-2" cx="342.22" cy="-290.55" r="4.41" gradientTransform="matrix(0.06, 1.73, 1.98, -0.06, 599.04, -501.45)" xlink:href="#_ÂÁ_Ï_ÌÌ_È_ËÂÌÚ_29"/>
    <linearGradient id="_ÂÁ_Ï_ÌÌ_È_ËÂÌÚ_196-7" x1="-614.34" y1="74.94" x2="-612.8" y2="120.51" gradientTransform="translate(673.4)" xlink:href="#_ÂÁ_Ï_ÌÌ_È_ËÂÌÚ_196"/>
    <linearGradient id="linear-gradient-4" x1="-643.69" y1="72.98" x2="-621.39" y2="72.98" gradientTransform="translate(673.4)" xlink:href="#linear-gradient"/>
    <linearGradient id="linear-gradient-5" x1="-628.78" y1="93.73" x2="-620.68" y2="84.78" xlink:href="#linear-gradient-3"/>
    <filter id="luminosity-noclip-25" x="66.71" y="130.36" width="24.05" height="19.21" filterUnits="userSpaceOnUse" color-interpolation-filters="sRGB">
      <feFlood flood-color="#fff" result="bg"/>
      <feBlend in="SourceGraphic" in2="bg"/>
    </filter>
    <mask id="mask-25" x="60.8" y="120.36" width="24.05" height="19.21" maskUnits="userSpaceOnUse">
      <g style="filter: url(#luminosity-noclip-25)">
        <g transform="translate(-5.91 -10)">
          <g style="mask: url(#mask-2)">
            <path d="M89,130.36l1.74,6.41s-5.86,7.28-11.65,9.78a35.93,35.93,0,0,1-11.59,3l-0.81-8.42a26.46,26.46,0,0,0,12-2.74C86,134.75,89,130.36,89,130.36Z" style="mix-blend-mode: multiply;fill: url(#_ÂÁ_Ï_ÌÌ_È_ËÂÌÚ_22)"/>
          </g>
        </g>
      </g>
    </mask>
    <linearGradient id="New_Gradient_Swatch_1" data-name="New Gradient Swatch 1" x1="-595.51" y1="137.71" x2="-592.74" y2="149.82" gradientTransform="translate(673.4)" gradientUnits="userSpaceOnUse">
      <stop offset="0" stop-color="#4c70a3"/>
      <stop offset="0.2" stop-color="#5074aa"/>
      <stop offset="0.5" stop-color="#5b7fbe"/>
      <stop offset="0.86" stop-color="#6c90df"/>
      <stop offset="1" stop-color="#7498ed"/>
    </linearGradient>
    <linearGradient id="linear-gradient-6" x1="860.28" y1="26.71" x2="860.74" y2="164.66" xlink:href="#linear-gradient"/>
    <linearGradient id="_ÂÁ_Ï_ÌÌ_È_ËÂÌÚ_205" data-name="¡ÂÁ˚ÏˇÌÌ˚È „‡‰ËÂÌÚ 205" x1="784.59" y1="41.4" x2="931.46" y2="41.4" gradientTransform="matrix(-1, 0, 0, 1, 960.45, 0)" gradientUnits="userSpaceOnUse">
      <stop offset="0" stop-color="#a36c27"/>
      <stop offset="0.21" stop-color="#7e4f21"/>
      <stop offset="0.41" stop-color="#60381c"/>
      <stop offset="0.61" stop-color="#4b2819"/>
      <stop offset="0.81" stop-color="#3e1e17"/>
      <stop offset="1" stop-color="#3a1b16"/>
    </linearGradient>
    <linearGradient id="New_Gradient_Swatch_1-2" x1="891.24" y1="33.63" x2="956.19" y2="112.51" gradientTransform="matrix(-1, 0, 0, 1, 960.45, 0)" xlink:href="#New_Gradient_Swatch_1"/>
    <radialGradient id="_ÂÁ_Ï_ÌÌ_È_ËÂÌÚ_186" data-name="¡ÂÁ˚ÏˇÌÌ˚È „‡‰ËÂÌÚ 186" cx="857.74" cy="52.31" r="13.21" gradientTransform="matrix(-1, 0, 0, 0.94, 960.45, 0.62)" gradientUnits="userSpaceOnUse">
      <stop offset="0" stop-color="#edb548"/>
      <stop offset="1" stop-color="#fff"/>
    </radialGradient>
    <radialGradient id="_ÂÁ_Ï_ÌÌ_È_ËÂÌÚ_186-2" cx="860.89" cy="46.04" r="11.99" xlink:href="#_ÂÁ_Ï_ÌÌ_È_ËÂÌÚ_186"/>
    <linearGradient id="_ÂÁ_Ï_ÌÌ_È_ËÂÌÚ_205-2" x1="907.62" y1="1.12" x2="907.96" y2="200.86" xlink:href="#_ÂÁ_Ï_ÌÌ_È_ËÂÌÚ_205"/>
    <linearGradient id="_ÂÁ_Ï_ÌÌ_È_ËÂÌÚ_205-3" x1="843.5" y1="-21.01" x2="978.16" y2="139.43" xlink:href="#_ÂÁ_Ï_ÌÌ_È_ËÂÌÚ_205"/>
    <radialGradient id="_ÂÁ_Ï_ÌÌ_È_ËÂÌÚ_186-3" cx="937.35" cy="31.75" r="27.3" gradientTransform="matrix(-1, 0, 0, 1.04, 960.45, 13.48)" xlink:href="#_ÂÁ_Ï_ÌÌ_È_ËÂÌÚ_186"/>
    <radialGradient id="_ÂÁ_Ï_ÌÌ_È_ËÂÌÚ_186-4" cx="938.06" cy="39.45" r="33.42" gradientTransform="matrix(-1, 0, 0, 1.04, 960.45, 13.48)" xlink:href="#_ÂÁ_Ï_ÌÌ_È_ËÂÌÚ_186"/>
    <filter id="luminosity-noclip-26" x="67.83" y="77.44" width="31.94" height="29.96" filterUnits="userSpaceOnUse" color-interpolation-filters="sRGB">
      <feFlood flood-color="#fff" result="bg"/>
      <feBlend in="SourceGraphic" in2="bg"/>
    </filter>
    <mask id="mask-26" x="61.92" y="67.44" width="31.94" height="29.96" maskUnits="userSpaceOnUse">
      <g style="filter: url(#luminosity-noclip-26)">
        <g transform="translate(-5.91 -10)">
          <g style="mask: url(#mask-5)">
            <path d="M67.83,92.42c0,8.26,7.17,15,16,15l1,0a16.37,16.37,0,0,0,5.56-1.31A15.36,15.36,0,0,0,99.53,95a13.61,13.61,0,0,0,.24-2.55c0-7.06-5.24-13-12.26-14.56a16.24,16.24,0,0,0-3.71-.42,16.85,16.85,0,0,0-5,.76,16.3,16.3,0,0,0-5.08,2.62A14.61,14.61,0,0,0,67.83,92.42Z" style="mix-blend-mode: multiply;fill: url(#_ÂÁ_Ï_ÌÌ_È_ËÂÌÚ_15)"/>
          </g>
        </g>
      </g>
    </mask>
    <linearGradient id="_ÂÁ_Ï_ÌÌ_È_ËÂÌÚ_64" data-name="¡ÂÁ˚ÏˇÌÌ˚È „‡‰ËÂÌÚ 64" x1="875.97" y1="74.49" x2="877.18" y2="106.5" gradientTransform="matrix(-1, 0, 0, 1, 960.45, 0)" gradientUnits="userSpaceOnUse">
      <stop offset="0" stop-color="#fff"/>
      <stop offset="0.05" stop-color="#fefefe"/>
      <stop offset="1" stop-color="#f6f6f6"/>
    </linearGradient>
    <filter id="luminosity-noclip-27" x="20.88" y="77.44" width="31.94" height="29.96" filterUnits="userSpaceOnUse" color-interpolation-filters="sRGB">
      <feFlood flood-color="#fff" result="bg"/>
      <feBlend in="SourceGraphic" in2="bg"/>
    </filter>
    <mask id="mask-27" x="14.97" y="67.44" width="31.94" height="29.96" maskUnits="userSpaceOnUse">
      <g style="filter: url(#luminosity-noclip-27)">
        <g transform="translate(-5.91 -10)">
          <g style="mask: url(#mask-6)">
            <path d="M20.88,92.42c0,8.26,7.17,15,16,15l1,0a16.37,16.37,0,0,0,5.56-1.31A15.36,15.36,0,0,0,52.58,95a13.62,13.62,0,0,0,.24-2.55c0-7.06-5.24-13-12.26-14.57a16.24,16.24,0,0,0-3.71-.42,16.85,16.85,0,0,0-5,.76,16.29,16.29,0,0,0-5.08,2.62A14.61,14.61,0,0,0,20.88,92.42Z" style="mix-blend-mode: multiply;fill: url(#_ÂÁ_Ï_ÌÌ_È_ËÂÌÚ_13)"/>
          </g>
        </g>
      </g>
    </mask>
    <linearGradient id="_ÂÁ_Ï_ÌÌ_È_ËÂÌÚ_61" data-name="¡ÂÁ˚ÏˇÌÌ˚È „‡‰ËÂÌÚ 61" x1="922.92" y1="74.49" x2="924.31" y2="111.27" gradientTransform="matrix(-1, 0, 0, 1, 960.45, 0)" gradientUnits="userSpaceOnUse">
      <stop offset="0" stop-color="#fff"/>
      <stop offset="1" stop-color="#fff"/>
    </linearGradient>
    <linearGradient id="_ÂÁ_Ï_ÌÌ_È_ËÂÌÚ_196-11" x1="-606.03" y1="30.81" x2="-563.89" y2="147.06" gradientTransform="translate(662.2 -0.51) rotate(-4.12)" xlink:href="#_ÂÁ_Ï_ÌÌ_È_ËÂÌÚ_196"/>
    <linearGradient id="_ÂÁ_Ï_ÌÌ_È_ËÂÌÚ_196-12" x1="-587.21" y1="52.73" x2="-584.51" y2="16.78" gradientTransform="translate(662.2 -0.51) rotate(-4.12)" xlink:href="#_ÂÁ_Ï_ÌÌ_È_ËÂÌÚ_196"/>
    <linearGradient id="linear-gradient-8" x1="-985.4" y1="1288.66" x2="-960.91" y2="1288.66" gradientTransform="matrix(0.87, 0.5, 0.5, -0.87, 277.32, 1669.8)" gradientUnits="userSpaceOnUse">
      <stop offset="0" stop-color="#87603a"/>
      <stop offset="1" stop-color="#68462a"/>
    </linearGradient>
    <linearGradient id="_ÂÁ_Ï_ÌÌ_È_ËÂÌÚ_333" data-name="¡ÂÁ˚ÏˇÌÌ˚È „‡‰ËÂÌÚ 333" x1="-591" y1="47.62" x2="-581.73" y2="36.37" gradientTransform="translate(662.2 -0.51) rotate(-4.12)" gradientUnits="userSpaceOnUse">
      <stop offset="0" stop-color="#57bfb4"/>
      <stop offset="0.19" stop-color="#50b2aa"/>
      <stop offset="0.55" stop-color="#3d9091"/>
      <stop offset="1" stop-color="#215d6b"/>
    </linearGradient>
    <linearGradient id="_ÂÁ_Ï_ÌÌ_È_ËÂÌÚ_196-13" x1="-628.94" y1="46.08" x2="-613.8" y2="21.31" gradientTransform="translate(662.2 -0.51) rotate(-4.12)" xlink:href="#_ÂÁ_Ï_ÌÌ_È_ËÂÌÚ_196"/>
    <filter id="luminosity-noclip-29" x="77.69" y="95.32" width="19.31" height="14.06" filterUnits="userSpaceOnUse" color-interpolation-filters="sRGB">
      <feFlood flood-color="#fff" result="bg"/>
      <feBlend in="SourceGraphic" in2="bg"/>
    </filter>
    <mask id="mask-29" x="71.78" y="85.32" width="19.31" height="14.06" maskUnits="userSpaceOnUse">
      <g style="filter: url(#luminosity-noclip-29)">
        <g transform="translate(-5.91 -10)">
          <g style="mask: url(#mask-3)">
            <path d="M87.64,109.36c-5.33.2-9.78-2.78-10-6.65s4-7.18,9.34-7.38S96.82,98.1,97,102,93,109.16,87.64,109.36Z" style="mix-blend-mode: multiply;fill: url(#_ÂÁ_Ï_ÌÌ_È_ËÂÌÚ_14-2)"/>
          </g>
        </g>
      </g>
    </mask>
    <radialGradient id="_ÂÁ_Ï_ÌÌ_È_ËÂÌÚ_29-3" cx="347.77" cy="611.37" r="4.41" gradientTransform="matrix(0.08, 1.85, -1.96, 0.07, 1254.81, -584.79)" xlink:href="#_ÂÁ_Ï_ÌÌ_È_ËÂÌÚ_29"/>
    <filter id="luminosity-noclip-30" x="34.66" y="100.85" width="19.26" height="14.11" filterUnits="userSpaceOnUse" color-interpolation-filters="sRGB">
      <feFlood flood-color="#fff" result="bg"/>
      <feBlend in="SourceGraphic" in2="bg"/>
    </filter>
    <mask id="mask-30" x="28.75" y="90.85" width="19.26" height="14.11" maskUnits="userSpaceOnUse">
      <g style="filter: url(#luminosity-noclip-30)">
        <g transform="translate(-5.91 -10)">
          <g style="mask: url(#mask-4)">
            <path d="M45,114.9c5.3-.54,9.27-4.11,8.86-8s-5-6.55-10.34-6-9.27,4.11-8.86,8S39.73,115.44,45,114.9Z" style="mix-blend-mode: multiply;fill: url(#_ÂÁ_Ï_ÌÌ_È_ËÂÌÚ_14-3)"/>
          </g>
        </g>
      </g>
    </mask>
    <radialGradient id="_ÂÁ_Ï_ÌÌ_È_ËÂÌÚ_29-4" cx="318.56" cy="-290.94" r="4.41" gradientTransform="matrix(0.19, 1.84, 1.95, -0.2, 548.48, -535.42)" xlink:href="#_ÂÁ_Ï_ÌÌ_È_ËÂÌÚ_29"/>
    <linearGradient id="_ÂÁ_Ï_ÌÌ_È_ËÂÌÚ_196-14" x1="-607.84" y1="28.04" x2="-606.2" y2="76.63" gradientTransform="translate(662.2 -0.51) rotate(-4.12)" xlink:href="#_ÂÁ_Ï_ÌÌ_È_ËÂÌÚ_196"/>
    <linearGradient id="linear-gradient-9" x1="-432.93" y1="774.48" x2="-410.9" y2="774.48" gradientTransform="matrix(0.82, -0.57, -0.57, -0.82, 826.78, 468.69)" xlink:href="#linear-gradient-8"/>
    <linearGradient id="_ÂÁ_Ï_ÌÌ_È_ËÂÌÚ_333-2" x1="-622.17" y1="47.96" x2="-613.78" y2="38.69" xlink:href="#_ÂÁ_Ï_ÌÌ_È_ËÂÌÚ_333"/>
    <linearGradient id="_ÂÁ_Ï_ÌÌ_È_ËÂÌÚ_196-16" x1="-608.23" y1="32.3" x2="-565.15" y2="151.16" gradientTransform="translate(665.21 9.06) rotate(-3.07)" xlink:href="#_ÂÁ_Ï_ÌÌ_È_ËÂÌÚ_196"/>
    <linearGradient id="_ÂÁ_Ï_ÌÌ_È_ËÂÌÚ_196-17" x1="-589.7" y1="54.12" x2="-586.53" y2="11.99" gradientTransform="translate(665.21 9.06) rotate(-3.07)" xlink:href="#_ÂÁ_Ï_ÌÌ_È_ËÂÌÚ_196"/>
    <linearGradient id="linear-gradient-12" x1="-746.53" y1="-119.26" x2="-721.64" y2="-119.26" gradientTransform="translate(778.99 316.74) rotate(10.74)" xlink:href="#linear-gradient-8"/>
    <linearGradient id="_ÂÁ_Ï_ÌÌ_È_ËÂÌÚ_196-18" x1="-629.91" y1="43.7" x2="-616.04" y2="21.02" gradientTransform="translate(665.21 9.06) rotate(-3.07)" xlink:href="#_ÂÁ_Ï_ÌÌ_È_ËÂÌÚ_196"/>
    <filter id="luminosity-noclip-34" x="76.96" y="95.89" width="19.6" height="14.54" filterUnits="userSpaceOnUse" color-interpolation-filters="sRGB">
      <feFlood flood-color="#fff" result="bg"/>
      <feBlend in="SourceGraphic" in2="bg"/>
    </filter>
    <mask id="mask-34" x="71.06" y="85.89" width="19.6" height="14.54" maskUnits="userSpaceOnUse">
      <g style="filter: url(#luminosity-noclip-34)">
        <g transform="translate(-5.91 -10)">
          <g style="mask: url(#mask-9)">
            <path d="M87,110.43c-5.41.1-9.88-3.08-10-7.1s4.19-7.35,9.6-7.44,9.88,3.08,10,7.1S92.37,110.34,87,110.43Z" style="mix-blend-mode: multiply;fill: url(#_ÂÁ_Ï_ÌÌ_È_ËÂÌÚ_14-5)"/>
          </g>
        </g>
      </g>
    </mask>
    <radialGradient id="radial-gradient-3" cx="355.29" cy="608.08" r="4.41" gradientTransform="matrix(0.05, 1.91, -1.98, 0.03, 1275.66, -597.33)" xlink:href="#_ÂÁ_Ï_ÌÌ_È_ËÂÌÚ_29"/>
    <filter id="luminosity-noclip-36" x="33.21" y="100.71" width="19.56" height="14.59" filterUnits="userSpaceOnUse" color-interpolation-filters="sRGB">
      <feFlood flood-color="#fff" result="bg"/>
      <feBlend in="SourceGraphic" in2="bg"/>
    </filter>
    <mask id="mask-36" x="27.3" y="90.71" width="19.56" height="14.59" maskUnits="userSpaceOnUse">
      <g style="filter: url(#luminosity-noclip-36)">
        <g transform="translate(-5.91 -10)">
          <g style="mask: url(#mask-11)">
            <path d="M43.62,115.25c5.39-.45,9.47-4.06,9.12-8.06s-5-6.88-10.4-6.44-9.47,4.06-9.12,8.06S38.23,115.7,43.62,115.25Z" style="mix-blend-mode: multiply;fill: url(#_ÂÁ_Ï_ÌÌ_È_ËÂÌÚ_14-6)"/>
          </g>
        </g>
      </g>
    </mask>
    <radialGradient id="radial-gradient-4" cx="326.29" cy="-288.09" r="4.41" gradientTransform="matrix(0.17, 1.91, 1.98, -0.16, 558.14, -561.25)" xlink:href="#_ÂÁ_Ï_ÌÌ_È_ËÂÌÚ_29"/>
    <linearGradient id="_ÂÁ_Ï_ÌÌ_È_ËÂÌÚ_196-19" x1="-610.46" y1="26.35" x2="-608.67" y2="79.32" gradientTransform="translate(665.21 9.06) rotate(-3.07)" xlink:href="#_ÂÁ_Ï_ÌÌ_È_ËÂÌÚ_196"/>
    <linearGradient id="linear-gradient-13" x1="-525.92" y1="204.92" x2="-503.59" y2="204.92" gradientTransform="translate(466.96 -287.82) rotate(-17.7)" xlink:href="#linear-gradient-8"/>
    <linearGradient id="_ÂÁ_Ï_ÌÌ_È_ËÂÌÚ_333-3" x1="-591.57" y1="47.03" x2="-586.81" y2="41.25" gradientTransform="translate(665.21 9.06) rotate(-3.07)" xlink:href="#_ÂÁ_Ï_ÌÌ_È_ËÂÌÚ_333"/>
    <linearGradient id="_ÂÁ_Ï_ÌÌ_È_ËÂÌÚ_333-4" x1="-623.78" y1="47.63" x2="-619.36" y2="42.75" gradientTransform="translate(665.21 9.06) rotate(-3.07)" xlink:href="#_ÂÁ_Ï_ÌÌ_È_ËÂÌÚ_333"/>
    <linearGradient id="_ÂÁ_Ï_ÌÌ_È_ËÂÌÚ_89" data-name="¡ÂÁ˚ÏˇÌÌ˚È „‡‰ËÂÌÚ 89" x1="892.12" y1="78.36" x2="893.67" y2="92.32" gradientTransform="matrix(-1, 0.05, 0.05, 1, 951.84, -6.3)" gradientUnits="userSpaceOnUse">
      <stop offset="0" stop-color="#594a42"/>
      <stop offset="1" stop-color="#bf3d4e"/>
    </linearGradient>
    <linearGradient id="_ÂÁ_Ï_ÌÌ_È_ËÂÌÚ_145" data-name="¡ÂÁ˚ÏˇÌÌ˚È „‡‰ËÂÌÚ 145" x1="892.83" y1="88.45" x2="889.05" y2="98.88" gradientTransform="matrix(-1, 0.05, 0.05, 1, 951.84, -6.3)" gradientUnits="userSpaceOnUse">
      <stop offset="0" stop-color="#ed654c"/>
      <stop offset="1" stop-color="#bf3d4e"/>
    </linearGradient>
    <linearGradient id="_ÂÁ_Ï_ÌÌ_È_ËÂÌÚ_196-25" x1="-600.78" y1="10.27" x2="-557.87" y2="128.65" gradientTransform="translate(655.92 -1.77) rotate(-6.26)" xlink:href="#_ÂÁ_Ï_ÌÌ_È_ËÂÌÚ_196"/>
    <linearGradient id="_ÂÁ_Ï_ÌÌ_È_ËÂÌÚ_196-26" x1="-581.51" y1="27.71" x2="-579.39" y2="-0.36" gradientTransform="translate(655.92 -1.77) rotate(-6.26)" xlink:href="#_ÂÁ_Ï_ÌÌ_È_ËÂÌÚ_196"/>
    <linearGradient id="linear-gradient-16" x1="-592.23" y1="6.34" x2="-567.48" y2="6.34" gradientTransform="translate(655.92 -1.77) rotate(-6.26)" xlink:href="#linear-gradient-8"/>
    <linearGradient id="_ÂÁ_Ï_ÌÌ_È_ËÂÌÚ_196-27" x1="-624.89" y1="24.83" x2="-611.97" y2="3.7" gradientTransform="translate(655.92 -1.77) rotate(-6.26)" xlink:href="#_ÂÁ_Ï_ÌÌ_È_ËÂÌÚ_196"/>
    <filter id="luminosity-noclip-41" x="78.82" y="94.15" width="19.58" height="14.53" filterUnits="userSpaceOnUse" color-interpolation-filters="sRGB">
      <feFlood flood-color="#fff" result="bg"/>
      <feBlend in="SourceGraphic" in2="bg"/>
    </filter>
    <mask id="mask-41" x="72.91" y="84.15" width="19.58" height="14.53" maskUnits="userSpaceOnUse">
      <g style="filter: url(#luminosity-noclip-41)">
        <g transform="translate(-5.91 -10)">
          <g style="mask: url(#mask-16)">
            <path d="M89.23,108.64c-5.4.38-10-2.55-10.39-6.54S82.6,94.56,88,94.18s10,2.55,10.39,6.54S94.62,108.26,89.23,108.64Z" style="mix-blend-mode: multiply;fill: url(#_ÂÁ_Ï_ÌÌ_È_ËÂÌÚ_14-7)"/>
          </g>
        </g>
      </g>
    </mask>
    <radialGradient id="_ÂÁ_Ï_ÌÌ_È_ËÂÌÚ_29-5" cx="341.43" cy="604.87" r="4.41" gradientTransform="matrix(0.16, 1.9, -1.98, 0.14, 1230.6, -632.44)" xlink:href="#_ÂÁ_Ï_ÌÌ_È_ËÂÌÚ_29"/>
    <filter id="luminosity-noclip-42" x="35.44" y="101.25" width="19.51" height="14.61" filterUnits="userSpaceOnUse" color-interpolation-filters="sRGB">
      <feFlood flood-color="#fff" result="bg"/>
      <feBlend in="SourceGraphic" in2="bg"/>
    </filter>
    <mask id="mask-42" x="29.53" y="91.25" width="19.51" height="14.61" maskUnits="userSpaceOnUse">
      <g style="filter: url(#luminosity-noclip-42)">
        <g transform="translate(-5.91 -10)">
          <g style="mask: url(#mask-17)">
            <path d="M46.25,115.74c5.36-.73,9.22-4.54,8.64-8.51s-5.4-6.59-10.75-5.86-9.22,4.54-8.64,8.51S40.89,116.47,46.25,115.74Z" style="mix-blend-mode: multiply;fill: url(#_ÂÁ_Ï_ÌÌ_È_ËÂÌÚ_14-8)"/>
          </g>
        </g>
      </g>
    </mask>
    <radialGradient id="_ÂÁ_Ï_ÌÌ_È_ËÂÌÚ_29-6" cx="312.67" cy="-284.07" r="4.41" gradientTransform="matrix(0.28, 1.89, 1.96, -0.27, 516.35, -558.53)" xlink:href="#_ÂÁ_Ï_ÌÌ_È_ËÂÌÚ_29"/>
    <linearGradient id="_ÂÁ_Ï_ÌÌ_È_ËÂÌÚ_196-28" x1="-602.72" y1="6.34" x2="-601.02" y2="56.53" gradientTransform="translate(655.92 -1.77) rotate(-6.26)" xlink:href="#_ÂÁ_Ï_ÌÌ_È_ËÂÌÚ_196"/>
    <linearGradient id="linear-gradient-17" x1="-632.11" y1="4.02" x2="-609.82" y2="4.02" gradientTransform="translate(655.92 -1.77) rotate(-6.26)" xlink:href="#linear-gradient-8"/>
    <linearGradient id="_ÂÁ_Ï_ÌÌ_È_ËÂÌÚ_196-29" x1="856.77" y1="49.75" x2="888.08" y2="41.23" gradientTransform="matrix(-0.99, 0.11, 0.11, 0.99, 941.26, -33.05)" xlink:href="#_ÂÁ_Ï_ÌÌ_È_ËÂÌÚ_196"/>
    <linearGradient id="_ÂÁ_Ï_ÌÌ_È_ËÂÌÚ_196-30" x1="896.96" y1="47.35" x2="914.13" y2="42.68" gradientTransform="matrix(-0.99, 0.11, 0.11, 0.99, 935.35, -43.05)" xlink:href="#_ÂÁ_Ï_ÌÌ_È_ËÂÌÚ_196"/>
    <linearGradient id="_ÂÁ_Ï_ÌÌ_È_ËÂÌÚ_89-2" x1="918.34" y1="71.37" x2="866.02" y2="41.05" gradientTransform="matrix(-0.99, 0.11, 0.11, 0.99, 941.26, -33.05)" xlink:href="#_ÂÁ_Ï_ÌÌ_È_ËÂÌÚ_89"/>
    <linearGradient id="_ÂÁ_Ï_ÌÌ_È_ËÂÌÚ_145-2" x1="859.18" y1="38.65" x2="902.4" y2="80.11" gradientTransform="matrix(-0.99, 0.11, 0.11, 0.99, 941.26, -33.05)" xlink:href="#_ÂÁ_Ï_ÌÌ_È_ËÂÌÚ_145"/>
    <linearGradient id="_ÂÁ_Ï_ÌÌ_È_ËÂÌÚ_69" data-name="¡ÂÁ˚ÏˇÌÌ˚È „‡‰ËÂÌÚ 69" x1="878.07" y1="66.78" x2="895.36" y2="58.21" gradientTransform="matrix(-0.99, 0.11, 0.11, 0.99, 941.26, -33.05)" gradientUnits="userSpaceOnUse">
      <stop offset="0" stop-color="#f6f6f6"/>
      <stop offset="1" stop-color="#c6c7c8"/>
    </linearGradient>
  </defs>
  <title>girl-1</title>
  <g style="isolation: isolate">
    <g id="Layer_1" data-name="Layer 1">
      <g id="girl-1-default">
        <path d="M43.17,180.3c0.21-.26.43-0.53,0.66-0.78l0.05-.06a76.54,76.54,0,0,1,14.05-12.26l0.36-.25,0.54-.38,0.26-.18,0.21-.14,0.14-.1,0.41-.28,0.57-.38,0.19-.13,0.82-.53a2.59,2.59,0,0,1,.28-0.19l0.3-.19h0c3.88-2.49,6.63-3.92,6.63-3.92l-1.85-19.17-1-10.23L74,128.92l12.83-3.49,0.79-.22,1.46,5.37L96,155.86s2,1.15,5,3.2l0.73,0.51,1.06,0.75,0.32,0.22,0.29,0.21,0.25,0.18,0.1,0.07c3.76,2.69,21.93,15.69,26.17,33.81,0.24,1,.23,1.41.48,2.85H33.65A50.45,50.45,0,0,1,43.17,180.3Z" transform="translate(-5.91 -10)" style="fill: url(#_ÂÁ_Ï_ÌÌ_È_ËÂÌÚ_196)"/>
        <path d="M26,128.84s-2.53-12.43,11.11-14.75,58.1,0,69.1,14.75C125,118,116.39,112.62,116.39,112.62L83.5,98.52,13,106Z" transform="translate(-5.91 -10)" style="fill: #2b140a"/>
        <path d="M121.65,73c-0.32.82-5.87,14.08-2,18.6,4.78,5.56,25.06,14.91,7.23,29.52-17.41,14.26-28.63,9.26-28.63,9.26s16.08-4,5.31-11.62-11.88-9.65-11.88-9.65L90.76,88.34Z" transform="translate(-5.91 -10)" style="fill: url(#linear-gradient)"/>
        <path d="M33.65,197.67h96.7a32.67,32.67,0,0,0-2.14-8.08,46.82,46.82,0,0,0-16-21.73c-3.51,6.2-19.3,21.23-36.56,22-17.76.83-24.37-8.11-27.13-15.23-1.54,1.43-3.32,3-4.81,4.64-0.23.25-.45,0.52-0.66,0.78A51,51,0,0,0,33.65,197.67Z" transform="translate(-5.91 -10)" style="fill: url(#_ÂÁ_Ï_ÌÌ_È_ËÂÌÚ_274)"/>
        <path d="M103.56,91.85c0,26.14-16.67,49.32-36.5,49.32-22.37,0-38.17-21.49-38.17-53.7,0-.43,0-0.86,0-1.3a87,87,0,0,1,.82-10.51C32.87,53.1,44.86,31.5,63.89,31.5,86.26,31.5,103.56,65.71,103.56,91.85Z" transform="translate(-5.91 -10)" style="fill: url(#_ÂÁ_Ï_ÌÌ_È_ËÂÌÚ_196-2)"/>
        <path d="M49.5,121A38,38,0,0,0,62,121c6.5-1.17,20-4.22,20-4.22s-11.48,8.44-17.48,9.73S49.5,121,49.5,121Z" transform="translate(-5.91 -10)" style="fill: #f1f2f2"/>
        <g>
          <path d="M116.13,99.64a15.15,15.15,0,0,1-1.77,4.56c-0.37.68-.75,1.33-1.12,1.92a18.11,18.11,0,0,1-8.34,7.05c-0.43.17-.86,0.32-1.29,0.44l-0.25.07a11.9,11.9,0,0,1-3.94.35,48.58,48.58,0,0,0,1.84-6.16,52.89,52.89,0,0,0,1.25-16.11L104,91c2.79-1.35,7.19-3,10.25-.37C116.4,92.59,116.73,95.92,116.13,99.64Z" transform="translate(-5.91 -10)" style="fill: url(#_ÂÁ_Ï_ÌÌ_È_ËÂÌÚ_196-3)"/>
          <path d="M114.8,100.06a10.2,10.2,0,0,1-.79,3.67,13.9,13.9,0,0,1-1.12,2.2,18.61,18.61,0,0,1-8,7.25c-0.43.17-.86,0.32-1.29,0.44a7.52,7.52,0,0,1,.95-6.91c1.16,0.94,5-2.09,4.83-5.86-0.12-3.16-4.51-3.28-4.51-3.28a11.8,11.8,0,0,1,2.59-2.11,6.12,6.12,0,0,1,5.1-.81C115,95.47,114.8,98,114.8,100.06Z" transform="translate(-5.91 -10)" style="fill: url(#_ÂÁ_Ï_ÌÌ_È_ËÂÌÚ_196-4)"/>
        </g>
        <path d="M76.61,72.3s-5.67-.47-6.57,2.08c-1.09,5.25-1.45,15.22-1.45,15.22l1.35,7.84,17.93-2S96.75,83.18,94.36,79,76.61,72.3,76.61,72.3Z" transform="translate(-5.91 -10)" style="fill: url(#_ÂÁ_Ï_ÌÌ_È_ËÂÌÚ_196-5)"/>
        <path d="M69.64,74.45s9.1-.64,13.42,0C88.8,75.3,94.36,79,94.36,79s-1.45-3.61-3.57-5.36-5.65-3-11.4-3.08a42.31,42.31,0,0,0-9.75.84v3Z" transform="translate(-5.91 -10)" style="fill: url(#linear-gradient-2)"/>
        <g>
          <path d="M88.52,92.29A7.42,7.42,0,0,1,86,98L71.49,99.64s-3.29-2-3.29-7.35A10.16,10.16,0,0,1,88.52,92.29Z" transform="translate(-5.91 -10)" style="fill: #f1f2f2"/>
          <path d="M68.58,89.6c-0.31-.35,1.06-7.76,6.93-9.4,9.54-2.67,13,5.16,13,5.16l5.84,0.23-5.84,4.46a31.72,31.72,0,0,0-2.46-4.27c-0.71-.73-3.08-2.7-4.79-3.05s-5.45-.53-8.06,1A10.86,10.86,0,0,0,68.58,89.6Z" transform="translate(-5.91 -10)" style="fill: #3f3531"/>
          <ellipse cx="73.21" cy="79.91" rx="7.35" ry="7.6" style="fill: url(#linear-gradient-3)"/>
        </g>
        <path d="M54.81,92.63l-18.43,1L28.9,86.17a87,87,0,0,1,.82-10.51l0-.08,11.68-3.31,10,1.44Z" transform="translate(-5.91 -10)" style="fill: url(#_ÂÁ_Ï_ÌÌ_È_ËÂÌÚ_196-6)"/>
        <g style="mask: url(#mask-23)">
          <path d="M86.24,112.61c-5.41-.16-9.69-3.24-9.57-6.88s4.61-6.46,10-6.3,9.69,3.24,9.57,6.88S91.64,112.77,86.24,112.61Z" transform="translate(-5.91 -10)" style="opacity: 0.4;fill: url(#_ÂÁ_Ï_ÌÌ_È_ËÂÌÚ_29)"/>
        </g>
        <g style="mask: url(#mask-24)">
          <path d="M42.69,115c5.41-.16,9.69-3.24,9.57-6.88s-4.61-6.46-10-6.3-9.69,3.24-9.57,6.88S37.29,115.16,42.69,115Z" transform="translate(-5.91 -10)" style="opacity: 0.4;fill: url(#_ÂÁ_Ï_ÌÌ_È_ËÂÌÚ_29-2)"/>
        </g>
        <path d="M51.84,75.42l5.06,29.29s-5.5-2-7,0,1.38,6,4.37,7.5c7.08,3.46,9.62-.45,10.37-5.39,0.44-2.88,4-30.26,5-32.37S51.84,75.42,51.84,75.42Z" transform="translate(-5.91 -10)" style="fill: url(#_ÂÁ_Ï_ÌÌ_È_ËÂÌÚ_196-7)"/>
        <path d="M52,75.27V72.21a48.46,48.46,0,0,0-9-1.58,17.2,17.2,0,0,0-13.35,4.79,37.28,37.28,0,0,1,12.4-1.88A41.44,41.44,0,0,1,52,75.27Z" transform="translate(-5.91 -10)" style="fill: url(#linear-gradient-4)"/>
        <path d="M54.72,92.94a14.31,14.31,0,0,1-2.21,6.94L39.65,98.72s-2.49-.56-2.49-5.78,3.93-9.66,8.78-9.66S54.72,87.61,54.72,92.94Z" transform="translate(-5.91 -10)" style="fill: #f1f2f2"/>
        <path d="M54.7,92.22c0.28-.34-0.76-9.31-6-10.9a9.13,9.13,0,0,0-11.54,5L32,86.55l5.18,4.31a31.56,31.56,0,0,1,2.19-4.13c0.63-.71,2.73-2.62,4.25-3s4.83-.51,7.15.94C53.9,86.66,54.7,92.22,54.7,92.22Z" transform="translate(-5.91 -10)" style="fill: #3f3531"/>
        <ellipse cx="41.44" cy="80.73" rx="6.07" ry="7.36" style="fill: url(#linear-gradient-5)"/>
        <g style="mask: url(#mask-25)">
          <path d="M89.1,130.58l1.66,6.19s-5.86,7.28-11.65,9.78a35.93,35.93,0,0,1-11.59,3l-0.81-8.42a26.46,26.46,0,0,0,12-2.74C86,134.75,89.1,130.58,89.1,130.58Z" transform="translate(-5.91 -10)" style="opacity: 0.4;mix-blend-mode: multiply;fill: url(#New_Gradient_Swatch_1)"/>
        </g>
        <path d="M69.68,99.94s15-3,17.35-3.12,4.64,2.08,4.64,2.08-7.9-.12-10,0.08S69.68,99.94,69.68,99.94Z" transform="translate(-5.91 -10)" style="fill: #e89f89"/>
        <path d="M53.31,100s-13.75-2.94-15.89-3a4.09,4.09,0,0,0-3.34,2s6.32-.12,8.2.07S53.31,100,53.31,100Z" transform="translate(-5.91 -10)" style="fill: #e89f89"/>
        <path d="M102.57,92.51c-1-41.75-25.91-50.67-25.91-50.67L93,31.5s25.32-4.47,30.2,27.28c2.18,14.18-10.14,31.13-10.14,31.13S107.91,87.77,102.57,92.51Z" transform="translate(-5.91 -10)" style="fill: url(#linear-gradient-6)"/>
        <path d="M76.66,38.41S49.5,30.19,37.16,52.09C30.61,63.7,32.79,62,32.79,62L26,46.05,43.7,25.39,68.58,20.7s9.84,1.4,9.78,2.34S76.66,38.41,76.66,38.41Z" transform="translate(-5.91 -10)" style="fill: url(#_ÂÁ_Ï_ÌÌ_È_ËÂÌÚ_205)"/>
        <path d="M54.72,32c-8.12,3.4-11.88,10-12.07,14.4S45.11,60,47.34,75.25c2,13.52-2.59,27.22-10.19,32-18.36,11.51-3.59,27.7-3.59,27.7L20,123.91l9.74-39.06-10.91-48L64,19.84l23.27,2.41L76.66,41.84S64.63,27.86,54.72,32Z" transform="translate(-5.91 -10)" style="opacity: 0.4;mix-blend-mode: multiply;fill: url(#New_Gradient_Swatch_1-2)"/>
        <path d="M117.32,42.31s-4.13,8.53-9.41,8.88a53.54,53.54,0,0,1-22.14-3.3L89.66,52s16.75,6.7,22.75,4.7,7.23-10.29,7.23-10.29Z" transform="translate(-5.91 -10)" style="opacity: 0.30000000000000004;mix-blend-mode: soft-light;fill: url(#_ÂÁ_Ï_ÌÌ_È_ËÂÌÚ_186)"/>
        <path d="M115.77,40.24S112,47,107.91,48c-6.65,1.67-23.84-1.61-23.84-1.61l-0.71-.57s19.8,2.19,23.9.57c2.81-1.12,7.55-7.28,7.55-7.28Z" transform="translate(-5.91 -10)" style="opacity: 0.30000000000000004;mix-blend-mode: soft-light;fill: url(#_ÂÁ_Ï_ÌÌ_È_ËÂÌÚ_186-2)"/>
        <g>
          <path d="M13,120c11,15.28,24.11,17.61,24.11,17.61S26,130.77,23.92,120.92C20.72,106,38.3,111.78,40.86,86.75c1.07-10.43-2.79-25.25-2.91-36.28,0-.58,0-1.14,0-1.7a27.71,27.71,0,0,1,.4-4.24,15.44,15.44,0,0,1,1.1-3.7,9.72,9.72,0,0,1,1.4-2.24c21.11-25,35.8,3.26,35.8,3.26L93,34.19s4.75-1.32,6.37-7.8a6.7,6.7,0,0,0,.13-1.6C99.42,3.26,56.13,10.5,45.94,14.25,31,19.75,11.69,32.92,7.95,43.16a19.59,19.59,0,0,0-1.22,5.59c0,0.52,0,1,0,1.52s0.05,0.74.09,1.1a28.27,28.27,0,0,0,1.3,5.79C11.47,67.28,26,79.65,22.39,86.33,20.44,89.89,9.49,92.43,6.73,96,4.46,98.89,7,111.57,13,120Z" transform="translate(-5.91 -10)" style="fill: url(#_ÂÁ_Ï_ÌÌ_È_ËÂÌÚ_205-2)"/>
          <path d="M29.17,130.66h0c-4.85-2.29-9-5.65-10.68-9-3.65-7.28.74-11.85,5.81-17.15,3.07-3.21,6.56-6.85,8.55-11.56,3.92-9.24.86-23-1.61-34.07-0.8-3.6-1.55-7-2-10a23.3,23.3,0,0,1,4.66-18c5-6.44,13.1-10.46,22.27-11,7.25-.45,13,1.37,17,5.38,5.71,5.66,6.08,13.81,6.1,15.34a0.91,0.91,0,0,1-.5.23l-0.64.3c0-.09.21-9.3-5.66-15.14-3.81-3.8-9.28-5.5-16.24-5.08-8.88.54-16.73,4.41-21.54,10.62A22.32,22.32,0,0,0,30.2,48.78c0.46,2.91,1.21,6.31,2,9.9,2.49,11.21,5.6,25.16,1.55,34.72-2.07,4.89-5.63,8.6-8.76,11.88-5,5.21-8.94,9.32-5.63,15.92,1.31,2.62,4.44,5.35,8.21,7.47Z" transform="translate(-5.91 -10)" style="fill: url(#_ÂÁ_Ï_ÌÌ_È_ËÂÌÚ_205-3)"/>
          <path d="M6.73,48.76a15.49,15.49,0,0,0,7.57,3.13c7.21,0.91,17.51-3.81,24.06-7.36a15.44,15.44,0,0,1,1.1-3.7c-6.93,3-18,6.65-26.16,4.32a33.52,33.52,0,0,1-5.35-2A19.59,19.59,0,0,0,6.73,48.76Z" transform="translate(-5.91 -10)" style="opacity: 0.30000000000000004;mix-blend-mode: soft-light;fill: url(#_ÂÁ_Ï_ÌÌ_È_ËÂÌÚ_186-3)"/>
          <path d="M6.82,51.38a28.27,28.27,0,0,0,1.3,5.79A14.69,14.69,0,0,0,18.8,59.84c6.21-1,15.06-6.61,19.15-9.38,0-.58,0-1.14,0-1.7-4.64,3-13.24,7.79-19.83,7.79C13.17,56.56,9.34,53.91,6.82,51.38Z" transform="translate(-5.91 -10)" style="opacity: 0.30000000000000004;mix-blend-mode: soft-light;fill: url(#_ÂÁ_Ï_ÌÌ_È_ËÂÌÚ_186-4)"/>
        </g>
        <g>
          <path d="M16.13,81.3v3.38a16.24,16.24,0,0,1,2.68,7.73,17.56,17.56,0,0,0,18,16.36c9.62,0,16-5.87,19.38-15.33,0.68-1.91,1.17-3,.66-4.28-0.09-.23-0.19-0.46-0.3-0.68h0s-0.88-2.36-.15-3.81c0.33-.66,1.84-0.88,3.91-1,2.08,0.12,3.58.33,3.91,1,0.74,1.45-.15,3.81-0.15,3.81h0c-0.1.23-.2,0.45-0.3,0.68-0.5,1.24,0,2.37.66,4.28,3.39,9.46,9.76,15.33,19.38,15.33a17.56,17.56,0,0,0,18-16.36,16.24,16.24,0,0,1,2.68-7.73V81.3a18.62,18.62,0,0,1-5.65-1.17c-6.56-3.31-11-4.07-15.06-4.07a23.5,23.5,0,0,0-15.41,6.5h0a2.12,2.12,0,0,1-2,.47c-0.91-.44-0.89-1.09-1.78-1.51a18.66,18.66,0,0,0-4.36-.3,18.66,18.66,0,0,0-4.36.3c-0.88.41-.87,1.07-1.78,1.51a2.12,2.12,0,0,1-2-.47h0a23.5,23.5,0,0,0-15.41-6.5c-4.05,0-8.5.76-15.06,4.07A18.62,18.62,0,0,1,16.13,81.3ZM67.91,92.42c0-8.26,7.16-15,16-15s16,6.72,16,15-7.16,15-16,15S67.91,100.68,67.91,92.42Zm-47,0c0-8.26,7.16-15,16-15s16,6.72,16,15-7.16,15-16,15S20.88,100.68,20.88,92.42Z" transform="translate(-5.91 -10)" style="fill: #2e4b54"/>
          <g>
            <g style="mask: url(#mask-26)">
              <path d="M67.83,92.42c0,8.26,7.17,15,16,15l1,0a16.37,16.37,0,0,0,5.56-1.31A15.36,15.36,0,0,0,99.53,95a13.61,13.61,0,0,0,.24-2.55c0-7.06-5.24-13-12.26-14.56a16.24,16.24,0,0,0-3.71-.42,16.85,16.85,0,0,0-5,.76,16.3,16.3,0,0,0-5.08,2.62A14.61,14.61,0,0,0,67.83,92.42Z" transform="translate(-5.91 -10)" style="opacity: 0.1;fill: url(#_ÂÁ_Ï_ÌÌ_È_ËÂÌÚ_64)"/>
            </g>
            <path d="M78.79,78.2l13.83,26.71A15,15,0,0,0,99.53,95l-12-17.11a16.24,16.24,0,0,0-3.71-.42A16.85,16.85,0,0,0,78.79,78.2Z" transform="translate(-5.91 -10)" style="fill: #f6f6f6;opacity: 0.2"/>
            <path d="M73.71,80.82L84.8,107.38a16.37,16.37,0,0,0,5.56-1.31L76.66,79A15.43,15.43,0,0,0,73.71,80.82Z" transform="translate(-5.91 -10)" style="fill: #f6f6f6;opacity: 0.2"/>
          </g>
          <g>
            <g style="mask: url(#mask-27)">
              <path d="M20.88,92.42c0,8.26,7.17,15,16,15l1,0a16.37,16.37,0,0,0,5.56-1.31A15.36,15.36,0,0,0,52.58,95a13.62,13.62,0,0,0,.24-2.55c0-7.06-5.24-13-12.26-14.57a16.24,16.24,0,0,0-3.71-.42,16.85,16.85,0,0,0-5,.76,16.29,16.29,0,0,0-5.08,2.62A14.61,14.61,0,0,0,20.88,92.42Z" transform="translate(-5.91 -10)" style="opacity: 0.1;fill: url(#_ÂÁ_Ï_ÌÌ_È_ËÂÌÚ_61)"/>
            </g>
            <path d="M31.84,78.2l13.83,26.71A15,15,0,0,0,52.58,95l-12-17.11a16.24,16.24,0,0,0-3.71-.42A16.85,16.85,0,0,0,31.84,78.2Z" transform="translate(-5.91 -10)" style="fill: #f6f6f6;opacity: 0.2"/>
            <path d="M26.76,80.82l11.09,26.55a16.37,16.37,0,0,0,5.56-1.31L29.71,79A15.43,15.43,0,0,0,26.76,80.82Z" transform="translate(-5.91 -10)" style="fill: #f6f6f6;opacity: 0.2"/>
          </g>
        </g>
      </g>
      <g id="girl-1-sad">
        <path d="M43.17,180.3c0.21-.26.43-0.53,0.66-0.78l0.05-.06a76.54,76.54,0,0,1,14.05-12.26l0.36-.25,0.54-.38,0.26-.18,0.21-.14,0.14-.1,0.41-.28,0.57-.38,0.19-.13,0.82-.53a2.59,2.59,0,0,1,.28-0.19l0.3-.19h0c3.88-2.49,6.63-3.92,6.63-3.92l-1.85-19.17-1-10.23L74,128.92l12.83-3.49,0.79-.22,1.46,5.37L96,155.86s2,1.15,5,3.2l0.73,0.51,1.06,0.75,0.32,0.22,0.29,0.21,0.25,0.18,0.1,0.07c3.76,2.69,21.93,15.69,26.17,33.81,0.24,1,.23,1.41.48,2.85H33.65A50.45,50.45,0,0,1,43.17,180.3Z" transform="translate(-5.91 -10)" style="fill: url(#_ÂÁ_Ï_ÌÌ_È_ËÂÌÚ_196)"/>
        <g style="mask: url(#mask-25)">
          <path d="M89.1,130.58l1.66,6.19s-5.86,7.28-11.65,9.78a35.93,35.93,0,0,1-11.59,3l-0.81-8.42a26.46,26.46,0,0,0,12-2.74C86,134.75,89.1,130.58,89.1,130.58Z" transform="translate(-5.91 -10)" style="opacity: 0.4;mix-blend-mode: multiply;fill: url(#New_Gradient_Swatch_1)"/>
        </g>
        <path d="M26,128.84s-2.53-12.43,11.11-14.75,58.1,0,69.1,14.75C125,118,116.39,112.62,116.39,112.62L83.5,98.52,13,106Z" transform="translate(-5.91 -10)" style="fill: #2b140a"/>
        <path d="M121.65,73c-0.32.82-5.87,14.08-2,18.6,4.78,5.56,25.06,14.91,7.23,29.52-17.41,14.26-28.63,9.26-28.63,9.26s16.08-4,5.31-11.62-11.88-9.65-11.88-9.65L90.76,88.34Z" transform="translate(-5.91 -10)" style="fill: url(#linear-gradient)"/>
        <path d="M33.65,197.67h96.7a32.67,32.67,0,0,0-2.14-8.08,46.82,46.82,0,0,0-16-21.73c-3.51,6.2-19.3,21.23-36.56,22-17.76.83-24.37-8.11-27.13-15.23-1.54,1.43-3.32,3-4.81,4.64-0.23.25-.45,0.52-0.66,0.78A51,51,0,0,0,33.65,197.67Z" transform="translate(-5.91 -10)" style="fill: url(#_ÂÁ_Ï_ÌÌ_È_ËÂÌÚ_274)"/>
        <g>
          <path d="M116.13,99.64a15.15,15.15,0,0,1-1.77,4.56c-0.37.68-.75,1.33-1.12,1.92a18.11,18.11,0,0,1-8.34,7.05c-0.43.17-.86,0.32-1.29,0.44l-0.25.07a11.9,11.9,0,0,1-3.94.35,48.58,48.58,0,0,0,1.84-6.16,52.89,52.89,0,0,0,1.25-16.11L104,91c2.79-1.35,7.19-3,10.25-.37C116.4,92.59,116.73,95.92,116.13,99.64Z" transform="translate(-5.91 -10)" style="fill: url(#_ÂÁ_Ï_ÌÌ_È_ËÂÌÚ_196-3)"/>
          <path d="M114.8,100.06a10.2,10.2,0,0,1-.79,3.67,13.9,13.9,0,0,1-1.12,2.2,18.61,18.61,0,0,1-8,7.25c-0.43.17-.86,0.32-1.29,0.44a7.52,7.52,0,0,1,.95-6.91c1.16,0.94,5-2.09,4.83-5.86-0.12-3.16-4.51-3.28-4.51-3.28a11.8,11.8,0,0,1,2.59-2.11,6.12,6.12,0,0,1,5.1-.81C115,95.47,114.8,98,114.8,100.06Z" transform="translate(-5.91 -10)" style="fill: url(#_ÂÁ_Ï_ÌÌ_È_ËÂÌÚ_196-4)"/>
        </g>
        <g>
          <path d="M103,86.09c2.07,27.8-12.48,53.59-32,55-22,1.54-39.22-20.23-41.77-54.47,0-.46-0.07-0.92-0.09-1.39a100.18,100.18,0,0,1,0-11.23C30.47,49.76,44.09,37.65,62.8,36.35,84.79,34.81,101,58.3,103,86.09Z" transform="translate(-5.91 -10)" style="fill: url(#_ÂÁ_Ï_ÌÌ_È_ËÂÌÚ_196-11)"/>
          <path d="M48.74,117.72a15.32,15.32,0,0,1,5.43-.38C57,117.7,63,118.72,63,118.72s-5.28-3.62-7.93-4S48.74,117.72,48.74,117.72Z" transform="translate(-5.91 -10)" style="fill: #e89f89"/>
          <path d="M75,67.16s-5.69-5.4-6.38-2.62C68,70.2,68.47,86.11,68.47,86.11l1.95,8.24L87.88,91s6.61-16.36,3.94-20.61C86.21,71.64,75,67.16,75,67.16Z" transform="translate(-5.91 -10)" style="fill: url(#_ÂÁ_Ï_ÌÌ_È_ËÂÌÚ_196-12)"/>
          <path d="M69.56,61.17S77,66.34,81,67.92C86.39,70,93.09,69.4,93.09,69.4S90,72,87.23,72.54s-6.38-.11-11.35-2.9A39.64,39.64,0,0,1,68,64Z" transform="translate(-5.91 -10)" style="fill: url(#linear-gradient-8)"/>
          <g>
            <path d="M68.31,89a10.54,10.54,0,0,0,2.52,6.48,5.62,5.62,0,0,0,1.3,1.1l14.08-2.76a8,8,0,0,0,2.09-5.39,7.55,7.55,0,0,0,0-.83A11.46,11.46,0,0,0,87.4,84a10.86,10.86,0,0,0-1.85-2.9,2.65,2.65,0,0,0-.21-0.24l0,0a10.11,10.11,0,0,0-3.55-2.44l-0.05,0-0.25-.1-0.08,0C81.11,78.13,80.82,78,80.55,78h0a9.63,9.63,0,0,0-2.49-.3H77.87l-0.36,0a9.46,9.46,0,0,0-5,1.83l-0.09.07L72,80a10.55,10.55,0,0,0-3.45,5.95c0,0.12,0,.18,0,0.18A11,11,0,0,0,68.31,89Z" transform="translate(-5.91 -10)" style="fill: #f1f2f2"/>
            <path d="M68.47,86.11c-0.34-.35.43-8.32,6.07-10.47a10.2,10.2,0,0,1,13.19,4.59l5.76-.15L88.1,85.22a34.83,34.83,0,0,0-2.76-4.37c-0.75-.73-3.24-2.66-4.95-2.92s-5.4-.19-7.85,1.58A11.52,11.52,0,0,0,68.47,86.11Z" transform="translate(-5.91 -10)" style="fill: #594a42"/>
            <path d="M86.06,85.21c0.33,4.46-2.63,8.3-6.62,8.58S72,90.68,71.62,86.22s2.63-8.3,6.62-8.58S85.73,80.75,86.06,85.21Z" transform="translate(-5.91 -10)" style="fill: url(#_ÂÁ_Ï_ÌÌ_È_ËÂÌÚ_333)"/>
          </g>
          <path d="M55.17,90.28l-18,2.32-7.94-7.41a83.6,83.6,0,0,1,.59-10.61l10.59-3.49,8.41-7.28Z" transform="translate(-5.91 -10)" style="fill: url(#_ÂÁ_Ï_ÌÌ_È_ËÂÌÚ_196-13)"/>
          <g style="mask: url(#mask-29)">
            <path d="M87.64,109.36c-5.33.2-9.78-2.78-10-6.65s4-7.18,9.34-7.38S96.82,98.1,97,102,93,109.16,87.64,109.36Z" transform="translate(-5.91 -10)" style="opacity: 0.4;fill: url(#_ÂÁ_Ï_ÌÌ_È_ËÂÌÚ_29-3)"/>
          </g>
          <g style="mask: url(#mask-30)">
            <path d="M45,114.9c5.3-.54,9.27-4.11,8.86-8s-5-6.55-10.34-6-9.27,4.11-8.86,8S39.73,115.44,45,114.9Z" transform="translate(-5.91 -10)" style="opacity: 0.4;fill: url(#_ÂÁ_Ï_ÌÌ_È_ËÂÌÚ_29-4)"/>
          </g>
          <path d="M50.88,72.18L58.17,103s-5.56-1.74-6.88.48,1.84,6.33,4.89,7.68c7.24,3.19,9.42-1.14,9.77-6.45,0.21-3.09,1.54-32.45,2.35-34.76S50.88,72.18,50.88,72.18Z" transform="translate(-5.91 -10)" style="fill: url(#_ÂÁ_Ï_ÌÌ_È_ËÂÌÚ_196-14)"/>
          <path d="M47.57,62l1.83,2.68a45.08,45.08,0,0,1-6.31,6.45c-6,5.27-13.68,3.33-13.68,3.33a34.23,34.23,0,0,0,11.17-5.34A38.52,38.52,0,0,0,47.57,62Z" transform="translate(-5.91 -10)" style="fill: url(#linear-gradient-9)"/>
          <path d="M37.84,91.82v0c0.43,5.49,2.9,5.92,2.9,5.92l12.74,0.35a15.51,15.51,0,0,0,.77-1.87,14.53,14.53,0,0,0,.85-5.66c-0.42-5.67-3.81-10.26-8.57-9.93S37.42,86.15,37.84,91.82Z" transform="translate(-5.91 -10)" style="fill: #f1f2f2"/>
          <path d="M55,89.85c0.25-.38-1.49-9.85-6.74-11.18-8.53-2.16-10.94,6.11-10.94,6.11l-5.08.6,5.44,4.23a34.52,34.52,0,0,1,1.82-4.54c0.56-.79,2.48-3,3.94-3.43s4.71-.87,7.1.5C53.81,84,55,89.85,55,89.85Z" transform="translate(-5.91 -10)" style="fill: #594a42"/>
          <path d="M41.71,89.18C42,93.5,45,96.82,48.26,96.59s5.7-3.92,5.38-8.24-3.25-7.64-6.55-7.41S41.39,84.86,41.71,89.18Z" transform="translate(-5.91 -10)" style="fill: url(#_ÂÁ_Ï_ÌÌ_È_ËÂÌÚ_333-2)"/>
          <path d="M70.83,95.48a5.62,5.62,0,0,0,1.3,1.1l14.08-2.76a8,8,0,0,0,2.09-5.39,12.1,12.1,0,0,0-2.7.33c-1.08.23-2.5,0.6-4.36,1.19a34.66,34.66,0,0,0-6.09,2.64A28.63,28.63,0,0,0,70.83,95.48Z" transform="translate(-5.91 -10)" style="fill: #f6f6f6;opacity: 0.5"/>
          <path d="M70.37,97s14.52-4.26,16.81-4.51,4.73,1.89,4.73,1.89-7.78.41-9.78,0.76S70.37,97,70.37,97Z" transform="translate(-5.91 -10)" style="fill: #e89f89"/>
          <path d="M37.84,91.87c0.43,5.49,2.9,5.92,2.9,5.92l12.74,0.35a15.51,15.51,0,0,0,.77-1.87C52.18,95.11,44.55,91.12,37.84,91.87Z" transform="translate(-5.91 -10)" style="fill: #f6f6f6;opacity: 0.5"/>
          <path d="M54.28,98.25s-13.75-2.18-15.85-2.12S35.3,98.5,35.3,98.5s6.2-.56,8.06-0.48S54.28,98.25,54.28,98.25Z" transform="translate(-5.91 -10)" style="fill: #e89f89"/>
          <path d="M75.66,80.53c0.06,0.81,1.47,1.37,3.14,1.25s3-.87,2.93-1.67-1.47-1.37-3.14-1.25S75.6,79.72,75.66,80.53Z" transform="translate(-5.91 -10)" style="fill: #f6f6f6;opacity: 0.2"/>
          <path d="M44.25,83.73c0.06,0.81,1.47,1.37,3.14,1.25s3-.87,2.93-1.67-1.47-1.37-3.14-1.25S44.19,82.92,44.25,83.73Z" transform="translate(-5.91 -10)" style="fill: #f6f6f6;opacity: 0.2"/>
        </g>
        <path d="M102.57,92.51c-1-41.75-25.91-50.67-25.91-50.67L93,31.5s25.32-4.47,30.2,27.28c2.18,14.18-10.14,31.13-10.14,31.13S107.91,87.77,102.57,92.51Z" transform="translate(-5.91 -10)" style="fill: url(#linear-gradient-6)"/>
        <path d="M76.66,38.41S49.5,30.19,37.16,52.09C30.61,63.7,32.79,62,32.79,62L26,46.05,43.7,25.39,68.58,20.7s9.84,1.4,9.78,2.34S76.66,38.41,76.66,38.41Z" transform="translate(-5.91 -10)" style="fill: url(#_ÂÁ_Ï_ÌÌ_È_ËÂÌÚ_205)"/>
        <path d="M54.72,32c-8.12,3.4-11.88,10-12.07,14.4S45.11,60,47.34,75.25c2,13.52-2.59,27.22-10.19,32-18.36,11.51-3.59,27.7-3.59,27.7L20,123.91l9.74-39.06-10.91-48L64,19.84l23.27,2.41L76.66,41.84S64.63,27.86,54.72,32Z" transform="translate(-5.91 -10)" style="opacity: 0.4;mix-blend-mode: multiply;fill: url(#New_Gradient_Swatch_1-2)"/>
        <path d="M117.32,42.31s-4.13,8.53-9.41,8.88a53.54,53.54,0,0,1-22.14-3.3L89.66,52s16.75,6.7,22.75,4.7,7.23-10.29,7.23-10.29Z" transform="translate(-5.91 -10)" style="opacity: 0.30000000000000004;mix-blend-mode: soft-light;fill: url(#_ÂÁ_Ï_ÌÌ_È_ËÂÌÚ_186)"/>
        <path d="M115.77,40.24S112,47,107.91,48c-6.65,1.67-23.84-1.61-23.84-1.61l-0.71-.57s19.8,2.19,23.9.57c2.81-1.12,7.55-7.28,7.55-7.28Z" transform="translate(-5.91 -10)" style="opacity: 0.30000000000000004;mix-blend-mode: soft-light;fill: url(#_ÂÁ_Ï_ÌÌ_È_ËÂÌÚ_186-2)"/>
        <g>
          <path d="M13,120c11,15.28,24.11,17.61,24.11,17.61S26,130.77,23.92,120.92C20.72,106,38.3,111.78,40.86,86.75c1.07-10.43-2.79-25.25-2.91-36.28,0-.58,0-1.14,0-1.7a27.71,27.71,0,0,1,.4-4.24,15.44,15.44,0,0,1,1.1-3.7,9.72,9.72,0,0,1,1.4-2.24c21.11-25,35.8,3.26,35.8,3.26L93,34.19s4.75-1.32,6.37-7.8a6.7,6.7,0,0,0,.13-1.6C99.42,3.26,56.13,10.5,45.94,14.25,31,19.75,11.69,32.92,7.95,43.16a19.59,19.59,0,0,0-1.22,5.59c0,0.52,0,1,0,1.52s0.05,0.74.09,1.1a28.27,28.27,0,0,0,1.3,5.79C11.47,67.28,26,79.65,22.39,86.33,20.44,89.89,9.49,92.43,6.73,96,4.46,98.89,7,111.57,13,120Z" transform="translate(-5.91 -10)" style="fill: url(#_ÂÁ_Ï_ÌÌ_È_ËÂÌÚ_205-2)"/>
          <path d="M29.17,130.66h0c-4.85-2.29-9-5.65-10.68-9-3.65-7.28.74-11.85,5.81-17.15,3.07-3.21,6.56-6.85,8.55-11.56,3.92-9.24.86-23-1.61-34.07-0.8-3.6-1.55-7-2-10a23.3,23.3,0,0,1,4.66-18c5-6.44,13.1-10.46,22.27-11,7.25-.45,13,1.37,17,5.38,5.71,5.66,6.08,13.81,6.1,15.34a0.91,0.91,0,0,1-.5.23l-0.64.3c0-.09.21-9.3-5.66-15.14-3.81-3.8-9.28-5.5-16.24-5.08-8.88.54-16.73,4.41-21.54,10.62A22.32,22.32,0,0,0,30.2,48.78c0.46,2.91,1.21,6.31,2,9.9,2.49,11.21,5.6,25.16,1.55,34.72-2.07,4.89-5.63,8.6-8.76,11.88-5,5.21-8.94,9.32-5.63,15.92,1.31,2.62,4.44,5.35,8.21,7.47Z" transform="translate(-5.91 -10)" style="fill: url(#_ÂÁ_Ï_ÌÌ_È_ËÂÌÚ_205-3)"/>
          <path d="M6.73,48.76a15.49,15.49,0,0,0,7.57,3.13c7.21,0.91,17.51-3.81,24.06-7.36a15.44,15.44,0,0,1,1.1-3.7c-6.93,3-18,6.65-26.16,4.32a33.52,33.52,0,0,1-5.35-2A19.59,19.59,0,0,0,6.73,48.76Z" transform="translate(-5.91 -10)" style="opacity: 0.30000000000000004;mix-blend-mode: soft-light;fill: url(#_ÂÁ_Ï_ÌÌ_È_ËÂÌÚ_186-3)"/>
          <path d="M6.82,51.38a28.27,28.27,0,0,0,1.3,5.79A14.69,14.69,0,0,0,18.8,59.84c6.21-1,15.06-6.61,19.15-9.38,0-.58,0-1.14,0-1.7-4.64,3-13.24,7.79-19.83,7.79C13.17,56.56,9.34,53.91,6.82,51.38Z" transform="translate(-5.91 -10)" style="opacity: 0.30000000000000004;mix-blend-mode: soft-light;fill: url(#_ÂÁ_Ï_ÌÌ_È_ËÂÌÚ_186-4)"/>
        </g>
        <g>
          <path d="M16.13,81.3v3.38a16.24,16.24,0,0,1,2.68,7.73,17.56,17.56,0,0,0,18,16.36c9.62,0,16-5.87,19.38-15.33,0.68-1.91,1.17-3,.66-4.28-0.09-.23-0.19-0.46-0.3-0.68h0s-0.88-2.36-.15-3.81c0.33-.66,1.84-0.88,3.91-1,2.08,0.12,3.58.33,3.91,1,0.74,1.45-.15,3.81-0.15,3.81h0c-0.1.23-.2,0.45-0.3,0.68-0.5,1.24,0,2.37.66,4.28,3.39,9.46,9.76,15.33,19.38,15.33a17.56,17.56,0,0,0,18-16.36,16.24,16.24,0,0,1,2.68-7.73V81.3a18.62,18.62,0,0,1-5.65-1.17c-6.56-3.31-11-4.07-15.06-4.07a23.5,23.5,0,0,0-15.41,6.5h0a2.12,2.12,0,0,1-2,.47c-0.91-.44-0.89-1.09-1.78-1.51a18.66,18.66,0,0,0-4.36-.3,18.66,18.66,0,0,0-4.36.3c-0.88.41-.87,1.07-1.78,1.51a2.12,2.12,0,0,1-2-.47h0a23.5,23.5,0,0,0-15.41-6.5c-4.05,0-8.5.76-15.06,4.07A18.62,18.62,0,0,1,16.13,81.3ZM67.91,92.42c0-8.26,7.16-15,16-15s16,6.72,16,15-7.16,15-16,15S67.91,100.68,67.91,92.42Zm-47,0c0-8.26,7.16-15,16-15s16,6.72,16,15-7.16,15-16,15S20.88,100.68,20.88,92.42Z" transform="translate(-5.91 -10)" style="fill: #2e4b54"/>
          <g>
            <g style="mask: url(#mask-26)">
              <path d="M67.83,92.42c0,8.26,7.17,15,16,15l1,0a16.37,16.37,0,0,0,5.56-1.31A15.36,15.36,0,0,0,99.53,95a13.61,13.61,0,0,0,.24-2.55c0-7.06-5.24-13-12.26-14.56a16.24,16.24,0,0,0-3.71-.42,16.85,16.85,0,0,0-5,.76,16.3,16.3,0,0,0-5.08,2.62A14.61,14.61,0,0,0,67.83,92.42Z" transform="translate(-5.91 -10)" style="opacity: 0.1;fill: url(#_ÂÁ_Ï_ÌÌ_È_ËÂÌÚ_64)"/>
            </g>
            <path d="M78.79,78.2l13.83,26.71A15,15,0,0,0,99.53,95l-12-17.11a16.24,16.24,0,0,0-3.71-.42A16.85,16.85,0,0,0,78.79,78.2Z" transform="translate(-5.91 -10)" style="fill: #f6f6f6;opacity: 0.2"/>
            <path d="M73.71,80.82L84.8,107.38a16.37,16.37,0,0,0,5.56-1.31L76.66,79A15.43,15.43,0,0,0,73.71,80.82Z" transform="translate(-5.91 -10)" style="fill: #f6f6f6;opacity: 0.2"/>
          </g>
          <g>
            <g style="mask: url(#mask-27)">
              <path d="M20.88,92.42c0,8.26,7.17,15,16,15l1,0a16.37,16.37,0,0,0,5.56-1.31A15.36,15.36,0,0,0,52.58,95a13.62,13.62,0,0,0,.24-2.55c0-7.06-5.24-13-12.26-14.57a16.24,16.24,0,0,0-3.71-.42,16.85,16.85,0,0,0-5,.76,16.29,16.29,0,0,0-5.08,2.62A14.61,14.61,0,0,0,20.88,92.42Z" transform="translate(-5.91 -10)" style="opacity: 0.1;fill: url(#_ÂÁ_Ï_ÌÌ_È_ËÂÌÚ_61)"/>
            </g>
            <path d="M31.84,78.2l13.83,26.71A15,15,0,0,0,52.58,95l-12-17.11a16.24,16.24,0,0,0-3.71-.42A16.85,16.85,0,0,0,31.84,78.2Z" transform="translate(-5.91 -10)" style="fill: #f6f6f6;opacity: 0.2"/>
            <path d="M26.76,80.82l11.09,26.55a16.37,16.37,0,0,0,5.56-1.31L29.71,79A15.43,15.43,0,0,0,26.76,80.82Z" transform="translate(-5.91 -10)" style="fill: #f6f6f6;opacity: 0.2"/>
          </g>
        </g>
      </g>
      <g id="girl-1-surprised">
        <path d="M43.17,180.3c0.21-.26.43-0.53,0.66-0.78l0.05-.06a76.54,76.54,0,0,1,14.05-12.26l0.36-.25,0.54-.38,0.26-.18,0.21-.14,0.14-.1,0.41-.28,0.57-.38,0.19-.13,0.82-.53a2.59,2.59,0,0,1,.28-0.19l0.3-.19h0c3.88-2.49,6.63-3.92,6.63-3.92l-1.85-19.17-1-10.23L74,128.92l12.83-3.49,0.79-.22,1.46,5.37L96,155.86s2,1.15,5,3.2l0.73,0.51,1.06,0.75,0.32,0.22,0.29,0.21,0.25,0.18,0.1,0.07c3.76,2.69,21.93,15.69,26.17,33.81,0.24,1,.23,1.41.48,2.85H33.65A50.45,50.45,0,0,1,43.17,180.3Z" transform="translate(-5.91 -10)" style="fill: url(#_ÂÁ_Ï_ÌÌ_È_ËÂÌÚ_196)"/>
        <path d="M26,128.84s-2.53-12.43,11.11-14.75,58.1,0,69.1,14.75C125,118,116.39,112.62,116.39,112.62L83.5,98.52,13,106Z" transform="translate(-5.91 -10)" style="fill: #2b140a"/>
        <path d="M121.65,73c-0.32.82-5.87,14.08-2,18.6,4.78,5.56,25.06,14.91,7.23,29.52-17.41,14.26-28.63,9.26-28.63,9.26s16.08-4,5.31-11.62-11.88-9.65-11.88-9.65L90.76,88.34Z" transform="translate(-5.91 -10)" style="fill: url(#linear-gradient)"/>
        <g style="mask: url(#mask-25)">
          <path d="M89.1,130.58l1.66,6.19s-5.86,7.28-11.65,9.78a35.93,35.93,0,0,1-11.59,3l-0.81-8.42a26.46,26.46,0,0,0,12-2.74C86,134.75,89.1,130.58,89.1,130.58Z" transform="translate(-5.91 -10)" style="opacity: 0.4;mix-blend-mode: multiply;fill: url(#New_Gradient_Swatch_1)"/>
        </g>
        <g>
          <path d="M102.94,86.68c1.65,28.81-13.54,55.19-33.34,56.19C47.26,144,30.13,121.1,28.11,85.61c0-.48-0.05-1-0.07-1.44a105.73,105.73,0,0,1,.16-11.62c1.72-25,15.47-35.52,34.47-36.48C85,35,101.3,57.88,102.94,86.68Z" transform="translate(-5.91 -10)" style="fill: url(#_ÂÁ_Ï_ÌÌ_È_ËÂÌÚ_196-16)"/>
          <path d="M76.18,59.93s-7.54-2.84-8.28,0c-0.76,5.84,0,26,0,26l1.84,8.57,16.89-7.08,5.22-6.55S92,69.22,90.56,66.8C87.91,62.35,76.18,59.93,76.18,59.93Z" transform="translate(-5.91 -10)" style="opacity: 0.5;fill: url(#_ÂÁ_Ï_ÌÌ_È_ËÂÌÚ_196-17)"/>
          <path d="M67.9,60S77,61.06,81.1,62.61c5.49,2.06,10.24,7.19,10.24,7.19s-0.73-4.19-2.48-6.51-5-4.33-10.62-5.59a38.61,38.61,0,0,0-9.75-1Z" transform="translate(-5.91 -10)" style="fill: url(#linear-gradient-12)"/>
          <path d="M67.88,86c-0.33-.37.57-8.6,6.33-10.7,9.36-3.42,13.31,5,13.31,5l5.85,0-5.64,6s-1.89-4.56-2.65-5.33-3.24-2.83-5-3.12-5.47-.31-8,1.47A11.91,11.91,0,0,0,67.88,86Z" transform="translate(-5.91 -10)" style="fill: #594a42"/>
          <path d="M54.31,90L37,87.86l-5.83-3.42C31,80.61,30.28,69,30.28,69l9-5.58,11-.55Z" transform="translate(-5.91 -10)" style="opacity: 0.5;fill: url(#_ÂÁ_Ï_ÌÌ_È_ËÂÌÚ_196-18)"/>
          <g style="mask: url(#mask-34)">
            <g style="mask: url(#mask-34)">
              <path d="M87,110.43c-5.41.1-9.88-3.08-10-7.1s4.19-7.35,9.6-7.44,9.88,3.08,10,7.1S92.37,110.34,87,110.43Z" transform="translate(-5.91 -10)" style="opacity: 0.2;fill: url(#radial-gradient-3)"/>
            </g>
          </g>
          <g style="mask: url(#mask-36)">
            <g style="mask: url(#mask-36)">
              <path d="M43.62,115.25c5.39-.45,9.47-4.06,9.12-8.06s-5-6.88-10.4-6.44-9.47,4.06-9.12,8.06S38.23,115.7,43.62,115.25Z" transform="translate(-5.91 -10)" style="opacity: 0.2;fill: url(#radial-gradient-4)"/>
            </g>
          </g>
          <path d="M50.91,67.45l6.24,35.75s-5.62-1.92-7,.35,1.76,6.59,4.84,8.05c7.29,3.46,9.57-1,10-6.47,0.26-3.19,2.37-32,2.53-35.94C67.66,66.65,50.91,67.45,50.91,67.45Z" transform="translate(-5.91 -10)" style="fill: url(#_ÂÁ_Ï_ÌÌ_È_ËÂÌÚ_196-19)"/>
          <path d="M50.22,62.82l-1-3.21a44.19,44.19,0,0,0-9,1.11C32.26,62.32,29,69.89,29,69.89a34.42,34.42,0,0,1,11.17-5.82A37.78,37.78,0,0,1,50.22,62.82Z" transform="translate(-5.91 -10)" style="fill: url(#linear-gradient-13)"/>
          <path d="M54.18,89.55c0.26-.39-1.35-10.22-6.65-11.71-8.62-2.42-11.2,6.09-11.2,6.09l-5.16.51,5.45,4.49a36,36,0,0,1,1.92-4.66c0.58-.81,2.56-3,4.05-3.47s4.14-1.05,6.55.42C52.38,83.21,54.18,89.55,54.18,89.55Z" transform="translate(-5.91 -10)" style="fill: #594a42"/>
          <path d="M88,87.93c0.24,4.13-1,6.45-3.23,8.06-3.25,2.31-10.17,3.34-13,1.63-1.58-1-3.72-2.73-4.06-8.66s3.91-11.22,9.51-11.5S87.61,81.85,88,87.93Z" transform="translate(-5.91 -10)" style="fill: #f1f2f2"/>
          <path d="M82.08,85.59A3.93,3.93,0,0,1,78.65,90a4,4,0,0,1-3.91-4,3.93,3.93,0,0,1,3.43-4.37A4,4,0,0,1,82.08,85.59Z" transform="translate(-5.91 -10)" style="fill: url(#_ÂÁ_Ï_ÌÌ_È_ËÂÌÚ_333-3)"/>
          <path d="M54.25,90.34a16.78,16.78,0,0,1-1.77,7.76l-12.93-.64S37,97,36.71,91.23,40,80.38,44.87,80.14,53.91,84.46,54.25,90.34Z" transform="translate(-5.91 -10)" style="fill: #f1f2f2"/>
          <path d="M43,88.46c0.13,2.24,1.69,4,3.5,3.89s3.16-2,3-4.22-1.69-4-3.5-3.89S42.87,86.22,43,88.46Z" transform="translate(-5.91 -10)" style="fill: url(#_ÂÁ_Ï_ÌÌ_È_ËÂÌÚ_333-4)"/>
          <path d="M53.28,98.22s-13.92-2.55-16.05-2.53S34,98.08,34,98.08s6.3-.45,8.19-0.33S53.28,98.22,53.28,98.22Z" transform="translate(-5.91 -10)" style="fill: #e89f89"/>
          <path d="M54.14,128.91a4.86,4.86,0,0,0,1.72,3.65c2,1.66,5.55,2.07,10,1.85,6-.3,8.9-1.43,9.36-4.88a8.72,8.72,0,0,0,0-1.6,7.08,7.08,0,0,0-.49-2.68,16.26,16.26,0,0,0-2.7-4c-2.48-2.81-5.82-4.77-8.06-4.67-3.74.16-6.82,3-8.55,6.55A14.59,14.59,0,0,0,54.39,126,8.39,8.39,0,0,0,54.14,128.91Z" transform="translate(-5.91 -10)" style="fill: url(#_ÂÁ_Ï_ÌÌ_È_ËÂÌÚ_89)"/>
          <path d="M55.48,123.12a32.47,32.47,0,0,1,8.08-2.94c2.65-.44,6.07.32,8.52,1.06-2.48-2.81-5.79-5-8-4.94C60.33,116.47,57.21,119.62,55.48,123.12Z" transform="translate(-5.91 -10)" style="fill: #f6f6f6"/>
          <path d="M55.86,132.55c2,1.66,5.55,2.07,10,1.85,6-.3,8.9-1.43,9.36-4.88a17.06,17.06,0,0,0-11.55-2.27C60.17,127.8,57.91,129.88,55.86,132.55Z" transform="translate(-5.91 -10)" style="fill: url(#_ÂÁ_Ï_ÌÌ_È_ËÂÌÚ_145)"/>
        </g>
        <path d="M33.65,197.67h96.7a32.67,32.67,0,0,0-2.14-8.08,46.82,46.82,0,0,0-16-21.73c-3.51,6.2-19.3,21.23-36.56,22-17.76.83-24.37-8.11-27.13-15.23-1.54,1.43-3.32,3-4.81,4.64-0.23.25-.45,0.52-0.66,0.78A51,51,0,0,0,33.65,197.67Z" transform="translate(-5.91 -10)" style="fill: url(#_ÂÁ_Ï_ÌÌ_È_ËÂÌÚ_274)"/>
        <g>
          <path d="M116.13,99.64a15.15,15.15,0,0,1-1.77,4.56c-0.37.68-.75,1.33-1.12,1.92a18.11,18.11,0,0,1-8.34,7.05c-0.43.17-.86,0.32-1.29,0.44l-0.25.07a11.9,11.9,0,0,1-3.94.35,48.58,48.58,0,0,0,1.84-6.16,52.89,52.89,0,0,0,1.25-16.11L104,91c2.79-1.35,7.19-3,10.25-.37C116.4,92.59,116.73,95.92,116.13,99.64Z" transform="translate(-5.91 -10)" style="fill: url(#_ÂÁ_Ï_ÌÌ_È_ËÂÌÚ_196-3)"/>
          <path d="M114.8,100.06a10.2,10.2,0,0,1-.79,3.67,13.9,13.9,0,0,1-1.12,2.2,18.61,18.61,0,0,1-8,7.25c-0.43.17-.86,0.32-1.29,0.44a7.52,7.52,0,0,1,.95-6.91c1.16,0.94,5-2.09,4.83-5.86-0.12-3.16-4.51-3.28-4.51-3.28a11.8,11.8,0,0,1,2.59-2.11,6.12,6.12,0,0,1,5.1-.81C115,95.47,114.8,98,114.8,100.06Z" transform="translate(-5.91 -10)" style="fill: url(#_ÂÁ_Ï_ÌÌ_È_ËÂÌÚ_196-4)"/>
        </g>
        <path d="M102.57,92.51c-1-41.75-25.91-50.67-25.91-50.67L93,31.5s25.32-4.47,30.2,27.28c2.18,14.18-10.14,31.13-10.14,31.13S107.91,87.77,102.57,92.51Z" transform="translate(-5.91 -10)" style="fill: url(#linear-gradient-6)"/>
        <path d="M76.66,38.41S49.5,30.19,37.16,52.09C30.61,63.7,32.79,62,32.79,62L26,46.05,43.7,25.39,68.58,20.7s9.84,1.4,9.78,2.34S76.66,38.41,76.66,38.41Z" transform="translate(-5.91 -10)" style="fill: url(#_ÂÁ_Ï_ÌÌ_È_ËÂÌÚ_205)"/>
        <path d="M54.72,32c-8.12,3.4-11.88,10-12.07,14.4S45.11,60,47.34,75.25c2,13.52-2.59,27.22-10.19,32-18.36,11.51-3.59,27.7-3.59,27.7L20,123.91l9.74-39.06-10.91-48L64,19.84l23.27,2.41L76.66,41.84S64.63,27.86,54.72,32Z" transform="translate(-5.91 -10)" style="opacity: 0.4;mix-blend-mode: multiply;fill: url(#New_Gradient_Swatch_1-2)"/>
        <path d="M117.32,42.31s-4.13,8.53-9.41,8.88a53.54,53.54,0,0,1-22.14-3.3L89.66,52s16.75,6.7,22.75,4.7,7.23-10.29,7.23-10.29Z" transform="translate(-5.91 -10)" style="opacity: 0.30000000000000004;mix-blend-mode: soft-light;fill: url(#_ÂÁ_Ï_ÌÌ_È_ËÂÌÚ_186)"/>
        <path d="M115.77,40.24S112,47,107.91,48c-6.65,1.67-23.84-1.61-23.84-1.61l-0.71-.57s19.8,2.19,23.9.57c2.81-1.12,7.55-7.28,7.55-7.28Z" transform="translate(-5.91 -10)" style="opacity: 0.30000000000000004;mix-blend-mode: soft-light;fill: url(#_ÂÁ_Ï_ÌÌ_È_ËÂÌÚ_186-2)"/>
        <g>
          <path d="M13,120c11,15.28,24.11,17.61,24.11,17.61S26,130.77,23.92,120.92C20.72,106,38.3,111.78,40.86,86.75c1.07-10.43-2.79-25.25-2.91-36.28,0-.58,0-1.14,0-1.7a27.71,27.71,0,0,1,.4-4.24,15.44,15.44,0,0,1,1.1-3.7,9.72,9.72,0,0,1,1.4-2.24c21.11-25,35.8,3.26,35.8,3.26L93,34.19s4.75-1.32,6.37-7.8a6.7,6.7,0,0,0,.13-1.6C99.42,3.26,56.13,10.5,45.94,14.25,31,19.75,11.69,32.92,7.95,43.16a19.59,19.59,0,0,0-1.22,5.59c0,0.52,0,1,0,1.52s0.05,0.74.09,1.1a28.27,28.27,0,0,0,1.3,5.79C11.47,67.28,26,79.65,22.39,86.33,20.44,89.89,9.49,92.43,6.73,96,4.46,98.89,7,111.57,13,120Z" transform="translate(-5.91 -10)" style="fill: url(#_ÂÁ_Ï_ÌÌ_È_ËÂÌÚ_205-2)"/>
          <path d="M29.17,130.66h0c-4.85-2.29-9-5.65-10.68-9-3.65-7.28.74-11.85,5.81-17.15,3.07-3.21,6.56-6.85,8.55-11.56,3.92-9.24.86-23-1.61-34.07-0.8-3.6-1.55-7-2-10a23.3,23.3,0,0,1,4.66-18c5-6.44,13.1-10.46,22.27-11,7.25-.45,13,1.37,17,5.38,5.71,5.66,6.08,13.81,6.1,15.34a0.91,0.91,0,0,1-.5.23l-0.64.3c0-.09.21-9.3-5.66-15.14-3.81-3.8-9.28-5.5-16.24-5.08-8.88.54-16.73,4.41-21.54,10.62A22.32,22.32,0,0,0,30.2,48.78c0.46,2.91,1.21,6.31,2,9.9,2.49,11.21,5.6,25.16,1.55,34.72-2.07,4.89-5.63,8.6-8.76,11.88-5,5.21-8.94,9.32-5.63,15.92,1.31,2.62,4.44,5.35,8.21,7.47Z" transform="translate(-5.91 -10)" style="fill: url(#_ÂÁ_Ï_ÌÌ_È_ËÂÌÚ_205-3)"/>
          <path d="M6.73,48.76a15.49,15.49,0,0,0,7.57,3.13c7.21,0.91,17.51-3.81,24.06-7.36a15.44,15.44,0,0,1,1.1-3.7c-6.93,3-18,6.65-26.16,4.32a33.52,33.52,0,0,1-5.35-2A19.59,19.59,0,0,0,6.73,48.76Z" transform="translate(-5.91 -10)" style="opacity: 0.30000000000000004;mix-blend-mode: soft-light;fill: url(#_ÂÁ_Ï_ÌÌ_È_ËÂÌÚ_186-3)"/>
          <path d="M6.82,51.38a28.27,28.27,0,0,0,1.3,5.79A14.69,14.69,0,0,0,18.8,59.84c6.21-1,15.06-6.61,19.15-9.38,0-.58,0-1.14,0-1.7-4.64,3-13.24,7.79-19.83,7.79C13.17,56.56,9.34,53.91,6.82,51.38Z" transform="translate(-5.91 -10)" style="opacity: 0.30000000000000004;mix-blend-mode: soft-light;fill: url(#_ÂÁ_Ï_ÌÌ_È_ËÂÌÚ_186-4)"/>
        </g>
        <g>
          <path d="M16.13,81.3v3.38a16.24,16.24,0,0,1,2.68,7.73,17.56,17.56,0,0,0,18,16.36c9.62,0,16-5.87,19.38-15.33,0.68-1.91,1.17-3,.66-4.28-0.09-.23-0.19-0.46-0.3-0.68h0s-0.88-2.36-.15-3.81c0.33-.66,1.84-0.88,3.91-1,2.08,0.12,3.58.33,3.91,1,0.74,1.45-.15,3.81-0.15,3.81h0c-0.1.23-.2,0.45-0.3,0.68-0.5,1.24,0,2.37.66,4.28,3.39,9.46,9.76,15.33,19.38,15.33a17.56,17.56,0,0,0,18-16.36,16.24,16.24,0,0,1,2.68-7.73V81.3a18.62,18.62,0,0,1-5.65-1.17c-6.56-3.31-11-4.07-15.06-4.07a23.5,23.5,0,0,0-15.41,6.5h0a2.12,2.12,0,0,1-2,.47c-0.91-.44-0.89-1.09-1.78-1.51a18.66,18.66,0,0,0-4.36-.3,18.66,18.66,0,0,0-4.36.3c-0.88.41-.87,1.07-1.78,1.51a2.12,2.12,0,0,1-2-.47h0a23.5,23.5,0,0,0-15.41-6.5c-4.05,0-8.5.76-15.06,4.07A18.62,18.62,0,0,1,16.13,81.3ZM67.91,92.42c0-8.26,7.16-15,16-15s16,6.72,16,15-7.16,15-16,15S67.91,100.68,67.91,92.42Zm-47,0c0-8.26,7.16-15,16-15s16,6.72,16,15-7.16,15-16,15S20.88,100.68,20.88,92.42Z" transform="translate(-5.91 -10)" style="fill: #2e4b54"/>
          <g>
            <g style="mask: url(#mask-26)">
              <path d="M67.83,92.42c0,8.26,7.17,15,16,15l1,0a16.37,16.37,0,0,0,5.56-1.31A15.36,15.36,0,0,0,99.53,95a13.61,13.61,0,0,0,.24-2.55c0-7.06-5.24-13-12.26-14.56a16.24,16.24,0,0,0-3.71-.42,16.85,16.85,0,0,0-5,.76,16.3,16.3,0,0,0-5.08,2.62A14.61,14.61,0,0,0,67.83,92.42Z" transform="translate(-5.91 -10)" style="opacity: 0.1;fill: url(#_ÂÁ_Ï_ÌÌ_È_ËÂÌÚ_64)"/>
            </g>
            <path d="M78.79,78.2l13.83,26.71A15,15,0,0,0,99.53,95l-12-17.11a16.24,16.24,0,0,0-3.71-.42A16.85,16.85,0,0,0,78.79,78.2Z" transform="translate(-5.91 -10)" style="fill: #f6f6f6;opacity: 0.2"/>
            <path d="M73.71,80.82L84.8,107.38a16.37,16.37,0,0,0,5.56-1.31L76.66,79A15.43,15.43,0,0,0,73.71,80.82Z" transform="translate(-5.91 -10)" style="fill: #f6f6f6;opacity: 0.2"/>
          </g>
          <g>
            <g style="mask: url(#mask-27)">
              <path d="M20.88,92.42c0,8.26,7.17,15,16,15l1,0a16.37,16.37,0,0,0,5.56-1.31A15.36,15.36,0,0,0,52.58,95a13.62,13.62,0,0,0,.24-2.55c0-7.06-5.24-13-12.26-14.57a16.24,16.24,0,0,0-3.71-.42,16.85,16.85,0,0,0-5,.76,16.29,16.29,0,0,0-5.08,2.62A14.61,14.61,0,0,0,20.88,92.42Z" transform="translate(-5.91 -10)" style="opacity: 0.1;fill: url(#_ÂÁ_Ï_ÌÌ_È_ËÂÌÚ_61)"/>
            </g>
            <path d="M31.84,78.2l13.83,26.71A15,15,0,0,0,52.58,95l-12-17.11a16.24,16.24,0,0,0-3.71-.42A16.85,16.85,0,0,0,31.84,78.2Z" transform="translate(-5.91 -10)" style="fill: #f6f6f6;opacity: 0.2"/>
            <path d="M26.76,80.82l11.09,26.55a16.37,16.37,0,0,0,5.56-1.31L29.71,79A15.43,15.43,0,0,0,26.76,80.82Z" transform="translate(-5.91 -10)" style="fill: #f6f6f6;opacity: 0.2"/>
          </g>
        </g>
      </g>
      <g id="girl-1-happy">
        <path d="M43.17,180.3c0.21-.26.43-0.53,0.66-0.78l0.05-.06a76.54,76.54,0,0,1,14.05-12.26l0.36-.25,0.54-.38,0.26-.18,0.21-.14,0.14-.1,0.41-.28,0.57-.38,0.19-.13,0.82-.53a2.59,2.59,0,0,1,.28-0.19l0.3-.19h0c3.88-2.49,6.63-3.92,6.63-3.92l-1.85-19.17-1-10.23L74,128.92l12.83-3.49,0.79-.22,1.46,5.37L96,155.86s2,1.15,5,3.2l0.73,0.51,1.06,0.75,0.32,0.22,0.29,0.21,0.25,0.18,0.1,0.07c3.76,2.69,21.93,15.69,26.17,33.81,0.24,1,.23,1.41.48,2.85H33.65A50.45,50.45,0,0,1,43.17,180.3Z" transform="translate(-5.91 -10)" style="fill: url(#_ÂÁ_Ï_ÌÌ_È_ËÂÌÚ_196)"/>
        <path d="M26,128.84s-2.53-12.43,11.11-14.75,58.1,0,69.1,14.75C125,118,116.39,112.62,116.39,112.62L83.5,98.52,13,106Z" transform="translate(-5.91 -10)" style="fill: #2b140a"/>
        <path d="M121.65,73c-0.32.82-5.87,14.08-2,18.6,4.78,5.56,25.06,14.91,7.23,29.52-17.41,14.26-28.63,9.26-28.63,9.26s16.08-4,5.31-11.62-11.88-9.65-11.88-9.65L90.76,88.34Z" transform="translate(-5.91 -10)" style="fill: url(#linear-gradient)"/>
        <path d="M33.65,197.67h96.7a32.67,32.67,0,0,0-2.14-8.08,46.82,46.82,0,0,0-16-21.73c-3.51,6.2-19.3,21.23-36.56,22-17.76.83-24.37-8.11-27.13-15.23-1.54,1.43-3.32,3-4.81,4.64-0.23.25-.45,0.52-0.66,0.78A51,51,0,0,0,33.65,197.67Z" transform="translate(-5.91 -10)" style="fill: url(#_ÂÁ_Ï_ÌÌ_È_ËÂÌÚ_274)"/>
        <g style="mask: url(#mask-25)">
          <path d="M89.1,130.58l1.66,6.19s-5.86,7.28-11.65,9.78a35.93,35.93,0,0,1-11.59,3l-0.81-8.42a26.46,26.46,0,0,0,12-2.74C86,134.75,89.1,130.58,89.1,130.58Z" transform="translate(-5.91 -10)" style="opacity: 0.4;mix-blend-mode: multiply;fill: url(#New_Gradient_Swatch_1)"/>
        </g>
        <g>
          <path d="M116.13,99.64a15.15,15.15,0,0,1-1.77,4.56c-0.37.68-.75,1.33-1.12,1.92a18.11,18.11,0,0,1-8.34,7.05c-0.43.17-.86,0.32-1.29,0.44l-0.25.07a11.9,11.9,0,0,1-3.94.35,48.58,48.58,0,0,0,1.84-6.16,52.89,52.89,0,0,0,1.25-16.11L104,91c2.79-1.35,7.19-3,10.25-.37C116.4,92.59,116.73,95.92,116.13,99.64Z" transform="translate(-5.91 -10)" style="fill: url(#_ÂÁ_Ï_ÌÌ_È_ËÂÌÚ_196-3)"/>
          <path d="M114.8,100.06a10.2,10.2,0,0,1-.79,3.67,13.9,13.9,0,0,1-1.12,2.2,18.61,18.61,0,0,1-8,7.25c-0.43.17-.86,0.32-1.29,0.44a7.52,7.52,0,0,1,.95-6.91c1.16,0.94,5-2.09,4.83-5.86-0.12-3.16-4.51-3.28-4.51-3.28a11.8,11.8,0,0,1,2.59-2.11,6.12,6.12,0,0,1,5.1-.81C115,95.47,114.8,98,114.8,100.06Z" transform="translate(-5.91 -10)" style="fill: url(#_ÂÁ_Ï_ÌÌ_È_ËÂÌÚ_196-4)"/>
        </g>
        <path d="M103.8,84.14c3.32,28.61-10.3,55.69-30,57.73C51.56,144.17,33.12,122.28,29,87c-0.05-.47-0.11-0.94-0.16-1.43A105.27,105.27,0,0,1,28.35,74c0.26-25,13-35.46,31.9-37.42C82.49,34.31,100.48,55.54,103.8,84.14Z" transform="translate(-5.91 -10)" style="fill: url(#_ÂÁ_Ï_ÌÌ_È_ËÂÌÚ_196-25)"/>
        <path d="M74.53,65.52s-5.69.07-6.27,3c-0.42,5.86,2.09,21.09,2.09,21.09L73.8,84l9.55-1.51,6.45,5s4.54-14,1.64-18.33S74.53,65.52,74.53,65.52Z" transform="translate(-5.91 -10)" style="fill: url(#_ÂÁ_Ï_ÌÌ_È_ËÂÌÚ_196-26)"/>
        <path d="M67.88,68.59s9-1.63,13.34-1.38C87,67.55,93,71.06,93,71.06s-1.9-3.8-4.23-5.5-6-2.66-11.72-2.2a38.35,38.35,0,0,0-9.58,1.93Z" transform="translate(-5.91 -10)" style="fill: url(#linear-gradient-16)"/>
        <path d="M70.14,92.46c-0.36-.35.06-8.6,5.7-11,9.14-3.9,13.58,4.31,13.58,4.31l5.84-.34L90,90.9s-3.37-6.47-8.14-7.26A11.35,11.35,0,0,0,74,85.53,11.79,11.79,0,0,0,70.14,92.46Z" transform="translate(-5.91 -10)" style="fill: #594a42"/>
        <path d="M54.87,90.5l-4.08-5.38-9.21.43L37.25,93l-8.38-7.38A105.27,105.27,0,0,1,28.35,74l0.26-.67,10.94-4.25,10.08,0.56Z" transform="translate(-5.91 -10)" style="fill: url(#_ÂÁ_Ï_ÌÌ_È_ËÂÌÚ_196-27)"/>
        <g style="mask: url(#mask-41)">
          <path d="M89.23,108.64c-5.4.38-10-2.55-10.39-6.54S82.6,94.56,88,94.18s10,2.55,10.39,6.54S94.62,108.26,89.23,108.64Z" transform="translate(-5.91 -10)" style="opacity: 0.4;fill: url(#_ÂÁ_Ï_ÌÌ_È_ËÂÌÚ_29-5)"/>
        </g>
        <g style="mask: url(#mask-42)">
          <path d="M46.25,115.74c5.36-.73,9.22-4.54,8.64-8.51s-5.4-6.59-10.75-5.86-9.22,4.54-8.64,8.51S40.89,116.47,46.25,115.74Z" transform="translate(-5.91 -10)" style="opacity: 0.4;fill: url(#_ÂÁ_Ï_ÌÌ_È_ËÂÌÚ_29-6)"/>
        </g>
        <path d="M50.3,71.48L59.05,103s-5.72-1.62-7,.72,2.14,6.47,5.3,7.76c7.48,3.06,9.5-1.48,9.63-7,0.07-3.2.13-33.52,0.85-35.94S50.3,71.48,50.3,71.48Z" transform="translate(-5.91 -10)" style="fill: url(#_ÂÁ_Ï_ÌÌ_È_ËÂÌÚ_196-28)"/>
        <path d="M50.46,71.29L50.07,68A44.8,44.8,0,0,0,41,67.15c-8.07-.1-12.66,6.61-12.66,6.61a33.94,33.94,0,0,1,12.08-3.33A38.28,38.28,0,0,1,50.46,71.29Z" transform="translate(-5.91 -10)" style="fill: url(#linear-gradient-17)"/>
        <path d="M55.85,94.44c0.23-.4-1.94-10.11-7.33-11.31-8.74-2-10.83,6.65-10.83,6.65l-5.13.78,5.7,4.19s1-6.62,5.49-8.42a9.53,9.53,0,0,1,7.23.29C53.85,88.17,55.85,94.44,55.85,94.44Z" transform="translate(-5.91 -10)" style="fill: #594a42"/>
        <path d="M85,107.58c-0.32,0-6.89-1.27-6.89-1.27l3.52,2.15Z" transform="translate(-5.91 -10)" style="mix-blend-mode: multiply;fill: url(#_ÂÁ_Ï_ÌÌ_È_ËÂÌÚ_196-29)"/>
        <polygon points="43.53 99.81 42.77 101.88 39.39 101.39 43.53 99.81" style="mix-blend-mode: multiply;fill: url(#_ÂÁ_Ï_ÌÌ_È_ËÂÌÚ_196-30)"/>
        <g>
          <path d="M48.66,111.88s1.25,2.26,3.23,5.25a56.72,56.72,0,0,0,8.81,10.71c2.69,2.37,5.49,3.11,8,2.56s4.8-3.07,6.88-7h0a84.37,84.37,0,0,0,4.35-9.94h0c1-2.77,1.65-4.79,1.7-5-0.37.18-11.44,7-16.28,8.64S48.66,111.88,48.66,111.88Z" transform="translate(-5.91 -10)" style="fill: url(#_ÂÁ_Ï_ÌÌ_È_ËÂÌÚ_89-2)"/>
          <path d="M48.67,111.88s1.24,2.26,3.23,5.25l0,0s1.44,2.12,9.33,4.12,18.32-7.48,18.67-7.8h0c1-2.77,1.65-4.79,1.7-5-0.36.18-11.91,6.35-16.75,8S48.67,111.88,48.67,111.88Z" transform="translate(-5.91 -10)" style="fill: #f6f6f6"/>
          <path d="M76.9,120.73s-8.25-.51-10.88,2.61a42.32,42.32,0,0,0-3.27,4.28s4.47,2.8,4.75,2.88A45.3,45.3,0,0,0,74.69,125,45.44,45.44,0,0,0,76.9,120.73Z" transform="translate(-5.91 -10)" style="fill: url(#_ÂÁ_Ï_ÌÌ_È_ËÂÌÚ_145-2)"/>
          <path d="M60.7,127.83c2.69,2.37,5.48,3.87,8,3.32s4.81-3.83,6.88-7.75c-0.21.27-3.53,4.55-8.29,5.15S64.11,126,64.11,126A6.54,6.54,0,0,0,60.7,127.83Z" transform="translate(-5.91 -10)" style="fill: url(#_ÂÁ_Ï_ÌÌ_È_ËÂÌÚ_69)"/>
        </g>
        <path d="M102.57,92.51c-1-41.75-25.91-50.67-25.91-50.67L93,31.5s25.32-4.47,30.2,27.28c2.18,14.18-10.14,31.13-10.14,31.13S107.91,87.77,102.57,92.51Z" transform="translate(-5.91 -10)" style="fill: url(#linear-gradient-6)"/>
        <path d="M76.66,38.41S49.5,30.19,37.16,52.09C30.61,63.7,32.79,62,32.79,62L26,46.05,43.7,25.39,68.58,20.7s9.84,1.4,9.78,2.34S76.66,38.41,76.66,38.41Z" transform="translate(-5.91 -10)" style="fill: url(#_ÂÁ_Ï_ÌÌ_È_ËÂÌÚ_205)"/>
        <path d="M54.72,32c-8.12,3.4-11.88,10-12.07,14.4S45.11,60,47.34,75.25c2,13.52-2.59,27.22-10.19,32-18.36,11.51-3.59,27.7-3.59,27.7L20,123.91l9.74-39.06-10.91-48L64,19.84l23.27,2.41L76.66,41.84S64.63,27.86,54.72,32Z" transform="translate(-5.91 -10)" style="opacity: 0.4;mix-blend-mode: multiply;fill: url(#New_Gradient_Swatch_1-2)"/>
        <path d="M117.32,42.31s-4.13,8.53-9.41,8.88a53.54,53.54,0,0,1-22.14-3.3L89.66,52s16.75,6.7,22.75,4.7,7.23-10.29,7.23-10.29Z" transform="translate(-5.91 -10)" style="opacity: 0.30000000000000004;mix-blend-mode: soft-light;fill: url(#_ÂÁ_Ï_ÌÌ_È_ËÂÌÚ_186)"/>
        <path d="M115.77,40.24S112,47,107.91,48c-6.65,1.67-23.84-1.61-23.84-1.61l-0.71-.57s19.8,2.19,23.9.57c2.81-1.12,7.55-7.28,7.55-7.28Z" transform="translate(-5.91 -10)" style="opacity: 0.30000000000000004;mix-blend-mode: soft-light;fill: url(#_ÂÁ_Ï_ÌÌ_È_ËÂÌÚ_186-2)"/>
        <g>
          <path d="M13,120c11,15.28,24.11,17.61,24.11,17.61S26,130.77,23.92,120.92C20.72,106,38.3,111.78,40.86,86.75c1.07-10.43-2.79-25.25-2.91-36.28,0-.58,0-1.14,0-1.7a27.71,27.71,0,0,1,.4-4.24,15.44,15.44,0,0,1,1.1-3.7,9.72,9.72,0,0,1,1.4-2.24c21.11-25,35.8,3.26,35.8,3.26L93,34.19s4.75-1.32,6.37-7.8a6.7,6.7,0,0,0,.13-1.6C99.42,3.26,56.13,10.5,45.94,14.25,31,19.75,11.69,32.92,7.95,43.16a19.59,19.59,0,0,0-1.22,5.59c0,0.52,0,1,0,1.52s0.05,0.74.09,1.1a28.27,28.27,0,0,0,1.3,5.79C11.47,67.28,26,79.65,22.39,86.33,20.44,89.89,9.49,92.43,6.73,96,4.46,98.89,7,111.57,13,120Z" transform="translate(-5.91 -10)" style="fill: url(#_ÂÁ_Ï_ÌÌ_È_ËÂÌÚ_205-2)"/>
          <path d="M29.17,130.66h0c-4.85-2.29-9-5.65-10.68-9-3.65-7.28.74-11.85,5.81-17.15,3.07-3.21,6.56-6.85,8.55-11.56,3.92-9.24.86-23-1.61-34.07-0.8-3.6-1.55-7-2-10a23.3,23.3,0,0,1,4.66-18c5-6.44,13.1-10.46,22.27-11,7.25-.45,13,1.37,17,5.38,5.71,5.66,6.08,13.81,6.1,15.34a0.91,0.91,0,0,1-.5.23l-0.64.3c0-.09.21-9.3-5.66-15.14-3.81-3.8-9.28-5.5-16.24-5.08-8.88.54-16.73,4.41-21.54,10.62A22.32,22.32,0,0,0,30.2,48.78c0.46,2.91,1.21,6.31,2,9.9,2.49,11.21,5.6,25.16,1.55,34.72-2.07,4.89-5.63,8.6-8.76,11.88-5,5.21-8.94,9.32-5.63,15.92,1.31,2.62,4.44,5.35,8.21,7.47Z" transform="translate(-5.91 -10)" style="fill: url(#_ÂÁ_Ï_ÌÌ_È_ËÂÌÚ_205-3)"/>
          <path d="M6.73,48.76a15.49,15.49,0,0,0,7.57,3.13c7.21,0.91,17.51-3.81,24.06-7.36a15.44,15.44,0,0,1,1.1-3.7c-6.93,3-18,6.65-26.16,4.32a33.52,33.52,0,0,1-5.35-2A19.59,19.59,0,0,0,6.73,48.76Z" transform="translate(-5.91 -10)" style="opacity: 0.30000000000000004;mix-blend-mode: soft-light;fill: url(#_ÂÁ_Ï_ÌÌ_È_ËÂÌÚ_186-3)"/>
          <path d="M6.82,51.38a28.27,28.27,0,0,0,1.3,5.79A14.69,14.69,0,0,0,18.8,59.84c6.21-1,15.06-6.61,19.15-9.38,0-.58,0-1.14,0-1.7-4.64,3-13.24,7.79-19.83,7.79C13.17,56.56,9.34,53.91,6.82,51.38Z" transform="translate(-5.91 -10)" style="opacity: 0.30000000000000004;mix-blend-mode: soft-light;fill: url(#_ÂÁ_Ï_ÌÌ_È_ËÂÌÚ_186-4)"/>
        </g>
        <g>
          <path d="M16.13,81.3v3.38a16.24,16.24,0,0,1,2.68,7.73,17.56,17.56,0,0,0,18,16.36c9.62,0,16-5.87,19.38-15.33,0.68-1.91,1.17-3,.66-4.28-0.09-.23-0.19-0.46-0.3-0.68h0s-0.88-2.36-.15-3.81c0.33-.66,1.84-0.88,3.91-1,2.08,0.12,3.58.33,3.91,1,0.74,1.45-.15,3.81-0.15,3.81h0c-0.1.23-.2,0.45-0.3,0.68-0.5,1.24,0,2.37.66,4.28,3.39,9.46,9.76,15.33,19.38,15.33a17.56,17.56,0,0,0,18-16.36,16.24,16.24,0,0,1,2.68-7.73V81.3a18.62,18.62,0,0,1-5.65-1.17c-6.56-3.31-11-4.07-15.06-4.07a23.5,23.5,0,0,0-15.41,6.5h0a2.12,2.12,0,0,1-2,.47c-0.91-.44-0.89-1.09-1.78-1.51a18.66,18.66,0,0,0-4.36-.3,18.66,18.66,0,0,0-4.36.3c-0.88.41-.87,1.07-1.78,1.51a2.12,2.12,0,0,1-2-.47h0a23.5,23.5,0,0,0-15.41-6.5c-4.05,0-8.5.76-15.06,4.07A18.62,18.62,0,0,1,16.13,81.3ZM67.91,92.42c0-8.26,7.16-15,16-15s16,6.72,16,15-7.16,15-16,15S67.91,100.68,67.91,92.42Zm-47,0c0-8.26,7.16-15,16-15s16,6.72,16,15-7.16,15-16,15S20.88,100.68,20.88,92.42Z" transform="translate(-5.91 -10)" style="fill: #2e4b54"/>
          <g>
            <g style="mask: url(#mask-26)">
              <path d="M67.83,92.42c0,8.26,7.17,15,16,15l1,0a16.37,16.37,0,0,0,5.56-1.31A15.36,15.36,0,0,0,99.53,95a13.61,13.61,0,0,0,.24-2.55c0-7.06-5.24-13-12.26-14.56a16.24,16.24,0,0,0-3.71-.42,16.85,16.85,0,0,0-5,.76,16.3,16.3,0,0,0-5.08,2.62A14.61,14.61,0,0,0,67.83,92.42Z" transform="translate(-5.91 -10)" style="opacity: 0.1;fill: url(#_ÂÁ_Ï_ÌÌ_È_ËÂÌÚ_64)"/>
            </g>
            <path d="M78.79,78.2l13.83,26.71A15,15,0,0,0,99.53,95l-12-17.11a16.24,16.24,0,0,0-3.71-.42A16.85,16.85,0,0,0,78.79,78.2Z" transform="translate(-5.91 -10)" style="fill: #f6f6f6;opacity: 0.2"/>
            <path d="M73.71,80.82L84.8,107.38a16.37,16.37,0,0,0,5.56-1.31L76.66,79A15.43,15.43,0,0,0,73.71,80.82Z" transform="translate(-5.91 -10)" style="fill: #f6f6f6;opacity: 0.2"/>
          </g>
          <g>
            <g style="mask: url(#mask-27)">
              <path d="M20.88,92.42c0,8.26,7.17,15,16,15l1,0a16.37,16.37,0,0,0,5.56-1.31A15.36,15.36,0,0,0,52.58,95a13.62,13.62,0,0,0,.24-2.55c0-7.06-5.24-13-12.26-14.57a16.24,16.24,0,0,0-3.71-.42,16.85,16.85,0,0,0-5,.76,16.29,16.29,0,0,0-5.08,2.62A14.61,14.61,0,0,0,20.88,92.42Z" transform="translate(-5.91 -10)" style="opacity: 0.1;fill: url(#_ÂÁ_Ï_ÌÌ_È_ËÂÌÚ_61)"/>
            </g>
            <path d="M31.84,78.2l13.83,26.71A15,15,0,0,0,52.58,95l-12-17.11a16.24,16.24,0,0,0-3.71-.42A16.85,16.85,0,0,0,31.84,78.2Z" transform="translate(-5.91 -10)" style="fill: #f6f6f6;opacity: 0.2"/>
            <path d="M26.76,80.82l11.09,26.55a16.37,16.37,0,0,0,5.56-1.31L29.71,79A15.43,15.43,0,0,0,26.76,80.82Z" transform="translate(-5.91 -10)" style="fill: #f6f6f6;opacity: 0.2"/>
          </g>
        </g>
      </g>
    </g>
  </g>
</svg>
